{"glyphs":{"0":{"ha":1175,"x_min":56,"x_max":1119,"o":"m 585 -28 q 326 26 447 -28 q 131 185 206 79 q 56 439 56 290 q 130 697 56 593 q 324 849 204 800 q 585 899 444 899 q 847 849 725 899 q 1044 697 969 800 q 1119 439 1119 593 q 1044 185 1119 290 q 845 26 968 79 q 585 -28 722 -28 m 585 -4 q 747 47 671 -4 q 869 199 822 99 q 915 439 915 299 q 869 675 915 576 q 747 824 822 774 q 586 874 672 874 q 426 824 501 874 q 305 676 351 774 q 258 439 258 578 q 304 197 258 297 q 425 47 350 97 q 585 -4 500 -4 z "},"1":{"ha":469,"x_min":56,"x_max":414,"o":"m 414 0 l 219 0 l 219 822 l 56 756 l 56 778 l 261 875 l 414 875 l 414 0 z "},"2":{"ha":1071,"x_min":56,"x_max":1008,"o":"m 56 36 q 120 222 56 142 q 276 359 185 303 q 510 485 367 415 q 676 571 617 538 q 774 646 735 604 q 814 735 814 688 q 759 830 814 797 q 615 863 704 863 q 360 801 504 863 q 118 650 217 740 l 71 813 q 269 875 149 853 q 519 897 390 897 q 867 842 725 897 q 1008 678 1008 786 q 940 548 1008 603 q 776 456 872 493 q 518 369 679 418 q 315 304 389 331 q 185 242 242 278 q 114 164 128 207 l 997 179 l 997 1 l 56 0 l 56 36 z "},"3":{"ha":1067,"x_min":56,"x_max":1011,"o":"m 424 -17 q 234 -8 326 -17 q 71 17 142 1 l 79 158 q 294 45 182 85 q 507 6 406 6 q 663 34 592 6 q 775 118 733 63 q 817 251 817 174 q 715 431 817 374 q 454 489 614 489 q 328 479 403 489 l 328 507 q 547 539 449 507 q 702 624 646 571 q 758 735 758 676 q 699 831 758 796 q 540 867 639 867 q 303 825 431 867 q 83 717 176 783 l 56 860 q 447 890 265 890 q 814 849 678 890 q 950 718 950 807 q 899 618 950 664 q 750 544 847 572 q 522 517 653 517 l 522 508 q 866 451 721 508 q 1011 271 1011 394 q 841 51 1011 118 q 424 -17 671 -17 z "},"4":{"ha":1136,"x_min":56,"x_max":1081,"o":"m 967 0 l 772 0 l 772 281 l 56 281 l 56 288 l 881 875 l 967 875 l 967 303 l 1081 303 l 1081 281 l 967 281 l 967 0 m 772 769 l 111 303 l 772 303 l 772 769 z "},"5":{"ha":992,"x_min":56,"x_max":936,"o":"m 465 -6 q 258 18 364 -6 q 56 88 153 42 l 71 219 q 276 68 169 119 q 476 17 382 17 q 668 91 594 17 q 742 301 742 165 q 701 442 742 381 q 590 537 660 503 q 435 571 519 571 q 256 529 346 571 q 90 403 167 488 l 76 403 l 149 875 l 900 875 l 876 724 l 144 725 l 113 517 q 515 599 326 599 q 733 565 638 599 q 882 465 828 531 q 936 310 936 400 q 874 138 936 210 q 704 31 811 67 q 465 -6 597 -6 z "},"6":{"ha":1113,"x_min":56,"x_max":1057,"o":"m 569 -24 q 301 33 418 -24 q 120 188 185 90 q 56 407 56 286 q 145 675 56 565 q 381 838 235 785 q 696 892 526 892 q 844 881 767 892 l 843 860 q 726 869 789 869 q 485 817 594 869 q 310 658 376 764 q 243 403 244 553 l 247 403 q 421 557 306 507 q 669 607 536 607 q 860 574 771 607 q 1003 476 949 540 q 1057 325 1057 413 q 996 147 1057 226 q 824 22 935 67 q 569 -24 714 -24 m 568 -1 q 719 37 653 -1 q 824 142 786 75 q 861 292 861 208 q 820 435 861 375 q 712 526 779 496 q 568 557 644 557 q 427 528 494 557 q 313 441 360 499 q 253 300 265 383 q 296 147 254 215 q 409 38 338 78 q 568 -1 481 -1 z "},"7":{"ha":938,"x_min":56,"x_max":882,"o":"m 211 0 q 260 215 211 124 q 378 367 308 307 q 563 506 449 428 q 715 617 658 569 q 807 724 772 665 l 74 707 l 56 875 l 874 875 l 882 863 q 795 683 850 761 q 646 496 740 604 q 517 340 565 406 q 438 190 469 275 q 406 0 406 106 l 211 0 z "},"8":{"ha":1111,"x_min":56,"x_max":1056,"o":"m 556 -14 q 306 18 419 -14 q 124 114 192 50 q 56 268 56 178 q 114 394 56 342 q 258 474 172 446 q 428 508 343 501 l 428 514 q 224 574 311 525 q 138 704 138 624 q 258 847 138 797 q 557 896 378 896 q 857 847 739 896 q 975 704 975 799 q 887 573 975 622 q 683 514 799 524 l 683 508 q 855 474 769 501 q 998 394 940 446 q 1056 268 1056 342 q 987 114 1056 178 q 804 18 918 50 q 556 -14 690 -14 m 557 521 q 716 568 658 521 q 774 704 774 615 q 742 797 774 758 q 661 855 711 835 q 557 875 611 875 q 453 855 503 875 q 371 797 403 835 q 339 704 339 758 q 397 568 339 615 q 557 521 456 521 m 556 8 q 767 75 686 8 q 847 268 847 142 q 775 439 847 379 q 557 499 703 499 q 340 438 414 499 q 265 268 265 378 q 345 75 265 142 q 556 8 425 8 z "},"9":{"ha":1113,"x_min":56,"x_max":1057,"o":"m 543 890 q 811 833 694 890 q 992 678 928 776 q 1057 460 1057 581 q 967 192 1057 301 q 731 28 878 82 q 415 -25 585 -25 q 268 -14 346 -25 l 269 7 q 386 -3 324 -3 q 627 50 518 -3 q 802 208 736 103 q 869 464 868 314 l 865 464 q 691 310 806 360 q 443 260 576 260 q 251 293 340 260 q 109 390 163 326 q 56 542 56 454 q 117 720 56 640 q 288 845 178 800 q 543 890 399 890 m 544 868 q 393 830 460 868 q 288 725 326 792 q 250 575 250 658 q 292 431 250 492 q 401 340 333 371 q 544 310 468 310 q 685 339 618 310 q 800 426 753 368 q 860 567 847 483 q 817 720 858 651 q 703 828 775 789 q 544 868 632 868 z "}," ":{"ha":346,"x_min":0,"x_max":0,"o":""},"A":{"ha":1103,"x_min":14,"x_max":1081,"o":"m 963 -25 q 885 -8 924 -25 q 817 31 847 10 q 724 101 788 51 q 595 196 647 164 q 489 228 543 228 q 358 174 421 228 q 235 0 296 121 l 14 0 l 496 875 l 639 875 l 1031 263 q 1081 115 1081 186 q 1045 14 1081 53 q 963 -25 1010 -25 m 910 147 q 969 171 946 147 q 992 235 992 194 q 954 342 992 285 l 665 792 l 338 182 l 343 182 q 525 264 418 264 q 623 248 575 264 q 743 200 671 232 q 838 160 799 174 q 910 147 876 147 z "},"Á":{"ha":1103,"x_min":14,"x_max":1081,"o":"m 963 -25 q 885 -8 924 -25 q 817 31 847 10 q 724 101 788 51 q 595 196 647 164 q 489 228 543 228 q 358 174 421 228 q 235 0 296 121 l 14 0 l 496 875 l 639 875 l 1031 263 q 1081 115 1081 186 q 1045 14 1081 53 q 963 -25 1010 -25 m 910 147 q 969 171 946 147 q 992 235 992 194 q 954 342 992 285 l 665 792 l 338 182 l 343 182 q 525 264 418 264 q 623 248 575 264 q 743 200 671 232 q 838 160 799 174 q 910 147 876 147 m 319 954 q 465 990 389 957 q 607 1078 542 1024 q 710 1194 672 1132 l 818 1094 q 603 987 732 1029 q 319 943 474 944 l 319 954 z "},"Ă":{"ha":1103,"x_min":14,"x_max":1081,"o":"m 963 -25 q 885 -8 924 -25 q 817 31 847 10 q 724 101 788 51 q 595 196 647 164 q 489 228 543 228 q 358 174 421 228 q 235 0 296 121 l 14 0 l 496 875 l 639 875 l 1031 263 q 1081 115 1081 186 q 1045 14 1081 53 q 963 -25 1010 -25 m 910 147 q 969 171 946 147 q 992 235 992 194 q 954 342 992 285 l 665 792 l 338 182 l 343 182 q 525 264 418 264 q 623 248 575 264 q 743 200 671 232 q 838 160 799 174 q 910 147 876 147 m 567 947 q 411 991 474 947 q 349 1115 349 1035 q 353 1154 349 1133 l 364 1154 q 425 1076 364 1103 q 574 1050 486 1050 q 719 1076 660 1050 q 778 1154 778 1103 l 789 1154 q 790 1125 790 1144 q 726 993 790 1039 q 567 947 661 947 z "},"Â":{"ha":1103,"x_min":14,"x_max":1081,"o":"m 963 -25 q 885 -8 924 -25 q 817 31 847 10 q 724 101 788 51 q 595 196 647 164 q 489 228 543 228 q 358 174 421 228 q 235 0 296 121 l 14 0 l 496 875 l 639 875 l 1031 263 q 1081 115 1081 186 q 1045 14 1081 53 q 963 -25 1010 -25 m 910 147 q 969 171 946 147 q 992 235 992 194 q 954 342 992 285 l 665 792 l 338 182 l 343 182 q 525 264 418 264 q 623 248 575 264 q 743 200 671 232 q 838 160 799 174 q 910 147 876 147 m 569 1115 l 361 968 l 274 1028 l 569 1133 l 868 1028 l 775 968 l 569 1115 z "},"Ä":{"ha":1103,"x_min":14,"x_max":1081,"o":"m 963 -25 q 885 -8 924 -25 q 817 31 847 10 q 724 101 788 51 q 595 196 647 164 q 489 228 543 228 q 358 174 421 228 q 235 0 296 121 l 14 0 l 496 875 l 639 875 l 1031 263 q 1081 115 1081 186 q 1045 14 1081 53 q 963 -25 1010 -25 m 910 147 q 969 171 946 147 q 992 235 992 194 q 954 342 992 285 l 665 792 l 338 182 l 343 182 q 525 264 418 264 q 623 248 575 264 q 743 200 671 232 q 838 160 799 174 q 910 147 876 147 m 461 974 q 401 994 426 974 q 375 1044 375 1015 q 401 1095 375 1074 q 461 1117 428 1117 q 525 1096 499 1117 q 551 1044 551 1075 q 526 994 551 1014 q 461 974 500 974 m 683 974 q 619 994 646 974 q 592 1044 592 1014 q 619 1096 592 1075 q 683 1117 646 1117 q 743 1095 717 1117 q 769 1044 769 1074 q 744 994 769 1015 q 683 974 718 974 z "},"À":{"ha":1103,"x_min":14,"x_max":1081,"o":"m 963 -25 q 885 -8 924 -25 q 817 31 847 10 q 724 101 788 51 q 595 196 647 164 q 489 228 543 228 q 358 174 421 228 q 235 0 296 121 l 14 0 l 496 875 l 639 875 l 1031 263 q 1081 115 1081 186 q 1045 14 1081 53 q 963 -25 1010 -25 m 910 147 q 969 171 946 147 q 992 235 992 194 q 954 342 992 285 l 665 792 l 338 182 l 343 182 q 525 264 418 264 q 623 248 575 264 q 743 200 671 232 q 838 160 799 174 q 910 147 876 147 m 818 943 q 535 987 664 944 q 321 1094 407 1029 l 428 1194 q 531 1078 465 1132 q 672 990 596 1024 q 818 954 749 957 l 818 943 z "},"Ā":{"ha":1103,"x_min":14,"x_max":1081,"o":"m 963 -25 q 885 -8 924 -25 q 817 31 847 10 q 724 101 788 51 q 595 196 647 164 q 489 228 543 228 q 358 174 421 228 q 235 0 296 121 l 14 0 l 496 875 l 639 875 l 1031 263 q 1081 115 1081 186 q 1045 14 1081 53 q 963 -25 1010 -25 m 910 147 q 969 171 946 147 q 992 235 992 194 q 954 342 992 285 l 665 792 l 338 182 l 343 182 q 525 264 418 264 q 623 248 575 264 q 743 200 671 232 q 838 160 799 174 q 910 147 876 147 m 796 1029 l 344 1029 l 344 1051 l 796 1051 l 796 1029 z "},"Ą":{"ha":1103,"x_min":14,"x_max":1081,"o":"m 960 -25 q 832 -37 885 -25 q 753 -71 779 -50 q 728 -114 728 -92 q 772 -169 728 -146 q 885 -193 817 -193 q 972 -179 932 -193 q 1029 -137 1011 -165 l 1039 -137 q 937 -244 1017 -206 q 767 -282 857 -282 q 638 -254 686 -282 q 590 -178 590 -226 q 628 -108 590 -143 q 733 -48 665 -74 q 890 -10 801 -22 q 821 28 854 6 q 724 101 788 51 q 595 196 647 164 q 489 228 543 228 q 358 174 421 228 q 235 0 296 121 l 14 0 l 496 875 l 639 875 l 1031 263 q 1081 115 1081 186 q 1045 14 1081 53 q 963 -25 1010 -25 l 960 -25 m 525 264 q 623 248 575 264 q 743 200 671 232 q 838 160 799 174 q 910 147 876 147 q 969 171 946 147 q 992 235 992 194 q 954 342 992 285 l 665 792 l 338 182 l 343 182 q 525 264 418 264 z "},"Å":{"ha":1103,"x_min":14,"x_max":1081,"o":"m 963 -25 q 885 -8 924 -25 q 817 31 847 10 q 724 101 788 51 q 595 196 647 164 q 489 228 543 228 q 358 174 421 228 q 235 0 296 121 l 14 0 l 496 875 l 639 875 l 1031 263 q 1081 115 1081 186 q 1045 14 1081 53 q 963 -25 1010 -25 m 910 147 q 969 171 946 147 q 992 235 992 194 q 954 342 992 285 l 665 792 l 338 182 l 343 182 q 525 264 418 264 q 623 248 575 264 q 743 200 671 232 q 838 160 799 174 q 910 147 876 147 m 568 933 q 415 960 479 933 q 350 1036 350 988 q 415 1112 350 1085 q 569 1139 481 1139 q 724 1112 658 1139 q 789 1036 789 1085 q 724 960 789 988 q 568 933 658 933 m 569 944 q 639 969 610 944 q 668 1036 668 993 q 639 1103 668 1079 q 569 1126 610 1126 q 499 1102 529 1126 q 469 1035 469 1078 q 499 969 469 993 q 569 944 529 944 z "},"Ã":{"ha":1103,"x_min":14,"x_max":1081,"o":"m 963 -25 q 885 -8 924 -25 q 817 31 847 10 q 724 101 788 51 q 595 196 647 164 q 489 228 543 228 q 358 174 421 228 q 235 0 296 121 l 14 0 l 496 875 l 639 875 l 1031 263 q 1081 115 1081 186 q 1045 14 1081 53 q 963 -25 1010 -25 m 910 147 q 969 171 946 147 q 992 235 992 194 q 954 342 992 285 l 665 792 l 338 182 l 343 182 q 525 264 418 264 q 623 248 575 264 q 743 200 671 232 q 838 160 799 174 q 910 147 876 147 m 747 963 q 635 976 694 963 q 479 1015 575 989 q 392 1039 433 1029 q 329 1049 350 1049 q 281 1036 300 1049 q 263 982 263 1024 l 246 982 q 294 1094 246 1053 q 418 1136 342 1136 q 503 1125 453 1136 q 626 1094 554 1114 q 804 1057 760 1057 q 876 1136 876 1057 l 892 1136 q 852 1015 892 1068 q 747 963 813 963 z "},"Æ":{"ha":1793,"x_min":14,"x_max":1779,"o":"m 1414 85 q 1626 106 1546 94 q 1779 143 1706 118 l 1779 0 q 1549 35 1660 22 q 1313 49 1438 49 q 893 0 1076 49 l 864 0 l 864 483 l 414 483 l 208 0 l 14 0 l 386 875 l 1738 875 l 1757 729 q 1612 817 1706 781 q 1375 853 1518 853 l 1058 853 l 1058 464 l 1618 464 l 1618 439 l 1058 439 l 1058 64 q 1414 85 1293 74 m 572 854 l 425 508 l 864 508 l 864 854 l 572 854 z "},"B":{"ha":1032,"x_min":56,"x_max":1004,"o":"m 471 -22 q 56 22 278 -22 l 56 875 l 660 875 q 878 828 808 875 q 949 703 949 781 q 919 607 949 651 q 835 536 889 563 q 714 511 782 510 l 714 507 q 864 476 797 506 q 967 396 931 447 q 1004 281 1004 344 q 859 53 1004 128 q 471 -22 714 -22 m 540 518 q 703 565 651 518 q 754 694 754 613 q 696 810 754 767 q 513 853 638 853 l 250 853 l 250 518 l 540 518 m 464 -1 q 722 73 635 -1 q 810 269 810 147 q 738 437 810 378 q 519 496 665 496 l 250 496 l 250 25 q 464 -1 365 -1 z "},"C":{"ha":1047,"x_min":28,"x_max":1019,"o":"m 656 -25 q 199 94 369 -25 q 28 453 28 214 q 196 790 28 683 q 664 896 364 896 q 969 875 807 896 l 944 733 q 567 872 725 872 q 326 763 411 872 q 240 463 240 654 q 284 216 240 319 q 409 58 328 113 q 601 3 490 3 q 994 160 778 3 l 1019 17 q 656 -25 828 -25 z "},"Ć":{"ha":1047,"x_min":28,"x_max":1019,"o":"m 656 -25 q 199 94 369 -25 q 28 453 28 214 q 196 790 28 683 q 664 896 364 896 q 969 875 807 896 l 944 733 q 567 872 725 872 q 326 763 411 872 q 240 463 240 654 q 284 216 240 319 q 409 58 328 113 q 601 3 490 3 q 994 160 778 3 l 1019 17 q 656 -25 828 -25 m 318 951 q 464 988 388 954 q 606 1075 540 1021 q 708 1192 671 1129 l 817 1092 q 601 984 731 1026 q 318 940 472 942 l 318 951 z "},"Č":{"ha":1047,"x_min":28,"x_max":1019,"o":"m 656 -25 q 199 94 369 -25 q 28 453 28 214 q 196 790 28 683 q 664 896 364 896 q 969 875 807 896 l 944 733 q 567 872 725 872 q 326 763 411 872 q 240 463 240 654 q 284 216 240 319 q 409 58 328 113 q 601 3 490 3 q 994 160 778 3 l 1019 17 q 656 -25 828 -25 z "},"Ç":{"ha":1047,"x_min":28,"x_max":1019,"o":"m 592 -71 q 631 -69 606 -69 q 790 -104 731 -69 q 850 -192 850 -139 q 819 -271 850 -233 q 733 -331 789 -308 q 601 -353 676 -353 q 440 -329 515 -353 l 440 -310 q 546 -324 496 -324 q 665 -292 622 -324 q 708 -215 708 -260 q 676 -151 708 -175 q 589 -128 643 -128 q 538 -133 561 -128 l 538 -104 l 586 -24 q 178 110 329 -10 q 28 453 28 229 q 196 790 28 683 q 664 896 364 896 q 969 875 807 896 l 944 733 q 567 872 725 872 q 326 763 411 872 q 240 463 240 654 q 284 216 240 319 q 409 58 328 113 q 601 3 490 3 q 994 160 778 3 l 1019 17 q 656 -25 828 -25 q 610 -24 625 -25 l 592 -71 z "},"Ċ":{"ha":1047,"x_min":28,"x_max":1019,"o":"m 656 -25 q 199 94 369 -25 q 28 453 28 214 q 196 790 28 683 q 664 896 364 896 q 969 875 807 896 l 944 733 q 567 872 725 872 q 326 763 411 872 q 240 463 240 654 q 284 216 240 319 q 409 58 328 113 q 601 3 490 3 q 994 160 778 3 l 1019 17 q 656 -25 828 -25 m 567 976 q 478 1004 514 976 q 443 1072 443 1032 q 478 1140 443 1113 q 567 1167 514 1167 q 655 1140 619 1167 q 690 1072 690 1113 q 655 1004 690 1032 q 567 976 619 976 z "},"D":{"ha":1097,"x_min":56,"x_max":1069,"o":"m 421 -10 q 56 22 258 -10 l 56 869 q 435 894 281 894 q 907 794 744 894 q 1069 467 1069 694 q 901 108 1069 226 q 421 -10 733 -10 m 390 19 q 666 83 557 19 q 825 247 775 146 q 875 467 875 349 q 765 758 875 644 q 413 871 656 871 q 250 856 342 871 l 250 32 q 390 19 325 19 z "},"Ð":{"ha":1138,"x_min":28,"x_max":1110,"o":"m 475 894 q 947 794 785 894 q 1110 467 1110 694 q 942 108 1110 226 q 461 -10 774 -10 q 96 22 299 -10 l 96 426 l 28 426 l 28 449 l 96 449 l 96 869 q 475 894 321 894 m 431 19 q 706 83 597 19 q 865 247 815 146 q 915 467 915 349 q 805 758 915 644 q 451 871 694 871 q 290 856 382 871 l 290 449 l 414 449 l 414 426 l 290 426 l 290 32 q 431 19 365 19 z "},"Ď":{"ha":1097,"x_min":56,"x_max":1069,"o":"m 421 -10 q 56 22 258 -10 l 56 869 q 435 894 281 894 q 907 794 744 894 q 1069 467 1069 694 q 901 108 1069 226 q 421 -10 733 -10 m 390 19 q 666 83 557 19 q 825 247 775 146 q 875 467 875 349 q 765 758 875 644 q 413 871 656 871 q 250 856 342 871 l 250 32 q 390 19 325 19 z "},"Đ":{"ha":1138,"x_min":28,"x_max":1110,"o":"m 475 894 q 947 794 785 894 q 1110 467 1110 694 q 942 108 1110 226 q 461 -10 774 -10 q 96 22 299 -10 l 96 426 l 28 426 l 28 449 l 96 449 l 96 869 q 475 894 321 894 m 431 19 q 706 83 597 19 q 865 247 815 146 q 915 467 915 349 q 805 758 915 644 q 451 871 694 871 q 290 856 382 871 l 290 449 l 414 449 l 414 426 l 290 426 l 290 32 q 431 19 365 19 z "},"E":{"ha":985,"x_min":56,"x_max":971,"o":"m 56 0 l 56 875 l 929 875 l 949 729 q 803 817 897 781 q 567 853 710 853 l 250 853 l 250 464 l 810 464 l 810 439 l 250 439 l 250 64 q 606 85 485 74 q 817 106 738 94 q 971 143 897 118 l 971 0 q 740 35 851 22 q 504 49 629 49 q 85 0 268 49 l 56 0 z "},"É":{"ha":985,"x_min":56,"x_max":971,"o":"m 56 0 l 56 875 l 929 875 l 949 729 q 803 817 897 781 q 567 853 710 853 l 250 853 l 250 464 l 810 464 l 810 439 l 250 439 l 250 64 q 606 85 485 74 q 817 106 738 94 q 971 143 897 118 l 971 0 q 740 35 851 22 q 504 49 629 49 q 85 0 268 49 l 56 0 m 250 954 q 396 990 319 957 q 538 1078 472 1024 q 640 1194 603 1132 l 749 1094 q 533 987 663 1029 q 250 943 404 944 l 250 954 z "},"Ě":{"ha":985,"x_min":56,"x_max":971,"o":"m 56 0 l 56 875 l 929 875 l 949 729 q 803 817 897 781 q 567 853 710 853 l 250 853 l 250 464 l 810 464 l 810 439 l 250 439 l 250 64 q 606 85 485 74 q 817 106 738 94 q 971 143 897 118 l 971 0 q 740 35 851 22 q 504 49 629 49 q 85 0 268 49 l 56 0 z "},"Ê":{"ha":985,"x_min":56,"x_max":971,"o":"m 56 0 l 56 875 l 929 875 l 949 729 q 803 817 897 781 q 567 853 710 853 l 250 853 l 250 464 l 810 464 l 810 439 l 250 439 l 250 64 q 606 85 485 74 q 817 106 738 94 q 971 143 897 118 l 971 0 q 740 35 851 22 q 504 49 629 49 q 85 0 268 49 l 56 0 m 499 1115 l 290 968 l 203 1028 l 499 1133 l 797 1028 l 704 968 l 499 1115 z "},"Ë":{"ha":985,"x_min":56,"x_max":971,"o":"m 56 0 l 56 875 l 929 875 l 949 729 q 803 817 897 781 q 567 853 710 853 l 250 853 l 250 464 l 810 464 l 810 439 l 250 439 l 250 64 q 606 85 485 74 q 817 106 738 94 q 971 143 897 118 l 971 0 q 740 35 851 22 q 504 49 629 49 q 85 0 268 49 l 56 0 m 390 974 q 330 994 356 974 q 304 1044 304 1015 q 331 1095 304 1074 q 390 1117 357 1117 q 454 1096 428 1117 q 481 1044 481 1075 q 455 994 481 1014 q 390 974 429 974 m 613 974 q 548 994 575 974 q 521 1044 521 1014 q 548 1096 521 1075 q 613 1117 575 1117 q 672 1095 646 1117 q 699 1044 699 1074 q 673 994 699 1015 q 613 974 647 974 z "},"Ė":{"ha":985,"x_min":56,"x_max":971,"o":"m 56 0 l 56 875 l 929 875 l 949 729 q 803 817 897 781 q 567 853 710 853 l 250 853 l 250 464 l 810 464 l 810 439 l 250 439 l 250 64 q 606 85 485 74 q 817 106 738 94 q 971 143 897 118 l 971 0 q 740 35 851 22 q 504 49 629 49 q 85 0 268 49 l 56 0 m 499 979 q 410 1007 446 979 q 375 1075 375 1035 q 410 1142 375 1115 q 499 1169 446 1169 q 587 1142 551 1169 q 622 1075 622 1115 q 587 1007 622 1035 q 499 979 551 979 z "},"È":{"ha":985,"x_min":56,"x_max":971,"o":"m 56 0 l 56 875 l 929 875 l 949 729 q 803 817 897 781 q 567 853 710 853 l 250 853 l 250 464 l 810 464 l 810 439 l 250 439 l 250 64 q 606 85 485 74 q 817 106 738 94 q 971 143 897 118 l 971 0 q 740 35 851 22 q 504 49 629 49 q 85 0 268 49 l 56 0 m 749 943 q 466 987 594 944 q 251 1094 338 1029 l 358 1194 q 461 1078 396 1132 q 603 990 526 1024 q 749 954 679 957 l 749 943 z "},"Ē":{"ha":985,"x_min":56,"x_max":971,"o":"m 56 0 l 56 875 l 929 875 l 949 729 q 803 817 897 781 q 567 853 710 853 l 250 853 l 250 464 l 810 464 l 810 439 l 250 439 l 250 64 q 606 85 485 74 q 817 106 738 94 q 971 143 897 118 l 971 0 q 740 35 851 22 q 504 49 629 49 q 85 0 268 49 l 56 0 m 725 1029 l 274 1029 l 274 1051 l 725 1051 l 725 1029 z "},"Ę":{"ha":985,"x_min":56,"x_max":999,"o":"m 999 -103 q 897 -209 976 -171 q 726 -247 817 -247 q 598 -219 646 -247 q 550 -143 550 -192 q 628 -43 550 -90 q 835 24 707 4 q 504 49 663 49 q 85 0 268 49 l 56 0 l 56 875 l 929 875 l 949 729 q 803 817 897 781 q 567 853 710 853 l 250 853 l 250 464 l 810 464 l 810 439 l 250 439 l 250 64 q 606 85 485 74 q 817 106 738 94 q 971 143 897 118 l 971 0 l 917 10 q 747 -17 807 10 q 688 -79 688 -43 q 732 -135 688 -111 q 844 -158 776 -158 q 931 -144 892 -158 q 989 -103 971 -131 l 999 -103 z "},"F":{"ha":940,"x_min":56,"x_max":926,"o":"m 250 853 l 250 496 l 861 496 l 861 472 l 250 472 l 250 0 l 56 0 l 56 875 l 901 875 l 926 731 q 758 824 850 796 q 514 853 665 853 l 250 853 z "},"G":{"ha":1115,"x_min":28,"x_max":1060,"o":"m 629 -21 q 316 31 451 -21 q 104 187 181 83 q 28 442 28 290 q 221 790 28 679 q 721 900 414 900 q 1013 872 871 900 l 1036 722 q 811 835 922 797 q 600 872 700 872 q 406 829 490 872 q 272 703 321 786 q 224 500 224 619 q 282 256 224 367 q 452 81 340 146 q 718 15 564 15 q 865 33 799 15 l 865 583 l 1060 583 l 1060 47 q 629 -21 835 -21 z "},"Ğ":{"ha":1115,"x_min":28,"x_max":1060,"o":"m 629 -21 q 316 31 451 -21 q 104 187 181 83 q 28 442 28 290 q 221 790 28 679 q 721 900 414 900 q 1013 872 871 900 l 1036 722 q 811 835 922 797 q 600 872 700 872 q 406 829 490 872 q 272 703 321 786 q 224 500 224 619 q 282 256 224 367 q 452 81 340 146 q 718 15 564 15 q 865 33 799 15 l 865 583 l 1060 583 l 1060 47 q 629 -21 835 -21 m 581 951 q 425 995 488 951 q 363 1119 363 1039 q 367 1158 363 1138 l 378 1158 q 439 1081 378 1107 q 588 1054 500 1054 q 733 1081 674 1054 q 792 1158 792 1107 l 803 1158 q 804 1129 804 1149 q 740 997 804 1043 q 581 951 675 951 z "},"Ģ":{"ha":1115,"x_min":28,"x_max":1060,"o":"m 629 -21 q 316 31 451 -21 q 104 187 181 83 q 28 442 28 290 q 221 790 28 679 q 721 900 414 900 q 1013 872 871 900 l 1036 722 q 811 835 922 797 q 600 872 700 872 q 406 829 490 872 q 272 703 321 786 q 224 500 224 619 q 282 256 224 367 q 452 81 340 146 q 718 15 564 15 q 865 33 799 15 l 865 583 l 1060 583 l 1060 47 q 629 -21 835 -21 z "},"Ġ":{"ha":1115,"x_min":28,"x_max":1060,"o":"m 629 -21 q 316 31 451 -21 q 104 187 181 83 q 28 442 28 290 q 221 790 28 679 q 721 900 414 900 q 1013 872 871 900 l 1036 722 q 811 835 922 797 q 600 872 700 872 q 406 829 490 872 q 272 703 321 786 q 224 500 224 619 q 282 256 224 367 q 452 81 340 146 q 718 15 564 15 q 865 33 799 15 l 865 583 l 1060 583 l 1060 47 q 629 -21 835 -21 m 583 983 q 495 1011 531 983 q 460 1079 460 1039 q 495 1147 460 1119 q 583 1174 531 1174 q 672 1147 636 1174 q 707 1079 707 1119 q 672 1011 707 1039 q 583 983 636 983 z "},"H":{"ha":1086,"x_min":56,"x_max":1031,"o":"m 250 0 l 56 0 l 56 875 l 250 875 l 250 463 l 836 463 l 836 875 l 1031 875 l 1031 0 l 836 0 l 836 439 l 250 439 l 250 0 z "},"Ħ":{"ha":1086,"x_min":33,"x_max":1054,"o":"m 1031 699 l 1054 699 l 1054 676 l 1031 676 l 1031 0 l 836 0 l 836 439 l 250 439 l 250 0 l 56 0 l 56 676 l 33 676 l 33 699 l 56 699 l 56 875 l 250 875 l 250 699 l 836 699 l 836 875 l 1031 875 l 1031 699 m 250 463 l 836 463 l 836 676 l 250 676 l 250 463 z "},"I":{"ha":306,"x_min":56,"x_max":250,"o":"m 250 0 l 56 0 l 56 875 l 250 875 l 250 0 z "},"Í":{"ha":426,"x_min":-36,"x_max":463,"o":"m 311 0 l 117 0 l 117 875 l 311 875 l 311 0 m -36 954 q 110 990 33 957 q 251 1078 186 1024 q 354 1194 317 1132 l 463 1094 q 247 987 376 1029 q -36 943 118 944 l -36 954 z "},"Î":{"ha":306,"x_min":-143,"x_max":451,"o":"m 250 0 l 56 0 l 56 875 l 250 875 l 250 0 m 153 1115 l -56 968 l -143 1028 l 153 1133 l 451 1028 l 358 968 l 153 1115 z "},"Ï":{"ha":306,"x_min":-42,"x_max":353,"o":"m 250 0 l 56 0 l 56 875 l 250 875 l 250 0 m 44 974 q -16 994 10 974 q -42 1044 -42 1015 q -15 1095 -42 1074 q 44 1117 11 1117 q 108 1096 82 1117 q 135 1044 135 1075 q 109 994 135 1014 q 44 974 83 974 m 267 974 q 202 994 229 974 q 175 1044 175 1014 q 202 1096 175 1075 q 267 1117 229 1117 q 326 1095 300 1117 q 353 1044 353 1074 q 327 994 353 1015 q 267 974 301 974 z "},"İ":{"ha":306,"x_min":29,"x_max":276,"o":"m 250 0 l 56 0 l 56 875 l 250 875 l 250 0 m 153 979 q 65 1007 100 979 q 29 1075 29 1035 q 65 1142 29 1115 q 153 1169 100 1169 q 241 1142 206 1169 q 276 1075 276 1115 q 241 1007 276 1035 q 153 979 206 979 z "},"Ì":{"ha":306,"x_min":-96,"x_max":401,"o":"m 250 0 l 56 0 l 56 875 l 250 875 l 250 0 m 401 943 q 119 987 247 944 q -96 1094 -10 1029 l 11 1194 q 114 1078 49 1132 q 256 990 179 1024 q 401 954 332 957 l 401 943 z "},"Ī":{"ha":306,"x_min":-72,"x_max":379,"o":"m 250 0 l 56 0 l 56 875 l 250 875 l 250 0 m 379 1029 l -72 1029 l -72 1051 l 379 1051 l 379 1029 z "},"Į":{"ha":306,"x_min":-122,"x_max":326,"o":"m 326 -112 q 224 -219 304 -181 q 54 -257 144 -257 q -74 -229 -26 -257 q -122 -153 -122 -201 q -63 -65 -122 -107 q 94 0 -4 -24 l 56 0 l 56 875 l 250 875 l 250 0 l 236 0 q 73 -28 131 -1 q 15 -89 15 -54 q 60 -144 15 -121 q 172 -168 104 -168 q 259 -154 219 -168 q 317 -112 299 -140 l 326 -112 z "},"J":{"ha":954,"x_min":46,"x_max":899,"o":"m 435 -24 q 46 15 275 -24 l 68 164 q 299 36 217 74 q 454 -1 382 -1 q 640 79 575 -1 q 704 313 704 160 l 704 875 l 899 875 l 899 310 q 435 -24 899 -24 z "},"K":{"ha":1060,"x_min":56,"x_max":1046,"o":"m 56 0 l 56 875 l 250 875 l 250 554 q 508 709 403 649 q 713 811 614 769 q 872 867 801 849 q 1004 886 943 886 l 1022 733 q 885 760 957 760 q 769 746 839 760 q 300 560 571 725 l 301 557 q 514 582 424 582 q 746 515 654 582 q 894 344 838 447 q 1024 57 950 242 l 1046 0 l 817 0 q 712 297 761 185 q 588 474 663 408 q 403 540 514 540 q 250 514 333 540 l 250 0 l 56 0 z "},"Ķ":{"ha":1060,"x_min":56,"x_max":1046,"o":"m 56 0 l 56 875 l 250 875 l 250 554 q 508 709 403 649 q 713 811 614 769 q 872 867 801 849 q 1004 886 943 886 l 1022 733 q 885 760 957 760 q 769 746 839 760 q 300 560 571 725 l 301 557 q 514 582 424 582 q 746 515 654 582 q 894 344 838 447 q 1024 57 950 242 l 1046 0 l 817 0 q 712 297 761 185 q 588 474 663 408 q 403 540 514 540 q 250 514 333 540 l 250 0 l 56 0 z "},"L":{"ha":999,"x_min":56,"x_max":971,"o":"m 56 0 l 56 875 l 250 875 l 250 56 q 364 75 294 68 q 571 90 433 82 q 827 110 733 100 q 971 143 921 121 l 971 0 q 865 6 935 0 q 771 14 796 13 q 543 33 638 26 q 358 39 449 39 q 71 0 161 39 l 56 0 z "},"Ĺ":{"ha":999,"x_min":31,"x_max":971,"o":"m 56 0 l 56 875 l 250 875 l 250 56 q 364 75 294 68 q 571 90 433 82 q 827 110 733 100 q 971 143 921 121 l 971 0 q 865 6 935 0 q 771 14 796 13 q 543 33 638 26 q 358 39 449 39 q 71 0 161 39 l 56 0 m 31 954 q 176 990 100 957 q 318 1078 253 1024 q 421 1194 383 1132 l 529 1094 q 314 987 443 1029 q 31 943 185 944 l 31 954 z "},"Ľ":{"ha":1019,"x_min":56,"x_max":992,"o":"m 56 0 l 56 875 l 250 875 l 250 56 q 364 75 294 68 q 571 90 433 82 q 827 110 733 100 q 971 143 921 121 l 971 0 q 865 6 935 0 q 771 14 796 13 q 543 33 638 26 q 358 39 449 39 q 71 0 161 39 l 56 0 m 896 607 l 850 607 l 850 875 l 992 875 l 896 607 z "},"Ļ":{"ha":999,"x_min":56,"x_max":971,"o":"m 56 0 l 56 875 l 250 875 l 250 56 q 364 75 294 68 q 571 90 433 82 q 827 110 733 100 q 971 143 921 121 l 971 0 q 865 6 935 0 q 771 14 796 13 q 543 33 638 26 q 358 39 449 39 q 71 0 161 39 l 56 0 z "},"Ł":{"ha":1046,"x_min":32,"x_max":1018,"o":"m 297 56 q 411 75 342 68 q 618 90 481 82 q 874 110 781 100 q 1018 143 968 121 l 1018 0 q 913 6 982 0 q 818 14 843 13 q 590 33 685 26 q 406 39 496 39 q 118 0 208 39 l 103 0 l 103 383 l 32 356 l 32 378 l 103 407 l 103 875 l 297 875 l 297 485 l 375 517 l 375 493 l 297 463 l 297 56 z "},"M":{"ha":1231,"x_min":56,"x_max":1175,"o":"m 56 0 l 56 875 l 250 875 q 371 757 318 835 q 459 592 424 679 q 540 374 494 506 q 568 295 547 356 q 608 190 589 235 l 611 190 q 653 330 618 261 q 749 476 689 399 q 850 608 781 522 q 965 760 928 701 q 1001 875 1001 819 l 1175 875 l 1175 0 l 981 0 l 981 739 l 976 739 q 915 650 953 699 q 839 556 876 601 q 732 419 772 475 q 664 303 692 364 q 636 182 636 242 q 696 0 636 85 l 501 0 q 448 106 474 39 q 382 290 422 172 q 292 538 332 438 q 198 725 253 639 q 78 847 143 811 l 78 0 l 56 0 z "},"N":{"ha":1064,"x_min":56,"x_max":1008,"o":"m 56 0 l 56 875 l 285 875 q 335 751 289 815 q 447 627 382 686 q 621 479 513 568 q 803 326 733 389 q 923 192 872 263 q 982 54 974 122 l 985 54 l 986 875 l 1008 875 l 1008 0 l 779 0 q 733 111 776 53 q 629 224 690 169 q 461 368 568 279 q 272 531 343 465 q 146 670 200 596 q 82 815 92 744 l 78 815 l 78 0 l 56 0 z "},"Ń":{"ha":1064,"x_min":56,"x_max":1008,"o":"m 56 0 l 56 875 l 285 875 q 335 751 289 815 q 447 627 382 686 q 621 479 513 568 q 803 326 733 389 q 923 192 872 263 q 982 54 974 122 l 985 54 l 986 875 l 1008 875 l 1008 0 l 779 0 q 733 111 776 53 q 629 224 690 169 q 461 368 568 279 q 272 531 343 465 q 146 670 200 596 q 82 815 92 744 l 78 815 l 78 0 l 56 0 m 282 954 q 428 990 351 957 q 569 1078 504 1024 q 672 1194 635 1132 l 781 1094 q 565 987 694 1029 q 282 943 436 944 l 282 954 z "},"Ň":{"ha":1064,"x_min":56,"x_max":1008,"o":"m 56 0 l 56 875 l 285 875 q 335 751 289 815 q 447 627 382 686 q 621 479 513 568 q 803 326 733 389 q 923 192 872 263 q 982 54 974 122 l 985 54 l 986 875 l 1008 875 l 1008 0 l 779 0 q 733 111 776 53 q 629 224 690 169 q 461 368 568 279 q 272 531 343 465 q 146 670 200 596 q 82 815 92 744 l 78 815 l 78 0 l 56 0 z "},"Ņ":{"ha":1064,"x_min":56,"x_max":1008,"o":"m 56 0 l 56 875 l 285 875 q 335 751 289 815 q 447 627 382 686 q 621 479 513 568 q 803 326 733 389 q 923 192 872 263 q 982 54 974 122 l 985 54 l 986 875 l 1008 875 l 1008 0 l 779 0 q 733 111 776 53 q 629 224 690 169 q 461 368 568 279 q 272 531 343 465 q 146 670 200 596 q 82 815 92 744 l 78 815 l 78 0 l 56 0 z "},"Ŋ":{"ha":1064,"x_min":56,"x_max":1008,"o":"m 986 875 l 1008 875 l 1008 0 q 984 -132 1008 -65 q 896 -246 960 -199 q 722 -289 832 -293 l 722 -144 q 761 -146 736 -146 q 928 -106 871 -146 q 986 0 986 -67 l 779 0 q 733 111 776 53 q 629 224 690 169 q 461 368 568 279 q 272 531 343 465 q 146 670 200 596 q 82 815 92 744 l 78 815 l 78 0 l 56 0 l 56 875 l 285 875 q 335 751 289 815 q 447 627 382 686 q 621 479 513 568 q 803 326 733 389 q 923 192 872 263 q 982 54 974 122 l 985 54 l 986 875 z "},"Ñ":{"ha":1064,"x_min":56,"x_max":1008,"o":"m 56 0 l 56 875 l 285 875 q 335 751 289 815 q 447 627 382 686 q 621 479 513 568 q 803 326 733 389 q 923 192 872 263 q 982 54 974 122 l 985 54 l 986 875 l 1008 875 l 1008 0 l 779 0 q 733 111 776 53 q 629 224 690 169 q 461 368 568 279 q 272 531 343 465 q 146 670 200 596 q 82 815 92 744 l 78 815 l 78 0 l 56 0 m 710 963 q 597 976 657 963 q 442 1015 538 989 q 354 1039 396 1029 q 292 1049 313 1049 q 244 1036 263 1049 q 225 982 225 1024 l 208 982 q 256 1094 208 1053 q 381 1136 304 1136 q 466 1125 415 1136 q 589 1094 517 1114 q 767 1057 722 1057 q 839 1136 839 1057 l 854 1136 q 815 1015 854 1068 q 710 963 775 963 z "},"O":{"ha":1194,"x_min":28,"x_max":1167,"o":"m 600 -32 q 322 22 453 -32 q 109 181 190 75 q 28 436 28 288 q 108 688 28 583 q 320 844 189 792 q 599 897 451 897 q 876 844 746 897 q 1086 688 1006 792 q 1167 436 1167 583 q 1087 181 1167 288 q 877 22 1007 75 q 600 -32 747 -32 m 642 -6 q 803 38 731 -6 q 920 168 876 81 q 964 382 964 256 q 903 647 964 535 q 747 817 843 758 q 546 875 650 875 q 386 834 458 875 q 271 710 314 793 q 228 506 228 626 q 288 231 228 347 q 442 54 347 114 q 642 -6 538 -6 z "},"Ó":{"ha":1194,"x_min":28,"x_max":1167,"o":"m 600 -32 q 322 22 453 -32 q 109 181 190 75 q 28 436 28 288 q 108 688 28 583 q 320 844 189 792 q 599 897 451 897 q 876 844 746 897 q 1086 688 1006 792 q 1167 436 1167 583 q 1087 181 1167 288 q 877 22 1007 75 q 600 -32 747 -32 m 642 -6 q 803 38 731 -6 q 920 168 876 81 q 964 382 964 256 q 903 647 964 535 q 747 817 843 758 q 546 875 650 875 q 386 834 458 875 q 271 710 314 793 q 228 506 228 626 q 288 231 228 347 q 442 54 347 114 q 642 -6 538 -6 m 349 954 q 494 990 418 957 q 636 1078 571 1024 q 739 1194 701 1132 l 847 1094 q 632 987 761 1029 q 349 943 503 944 l 349 954 z "},"Ô":{"ha":1194,"x_min":28,"x_max":1167,"o":"m 600 -32 q 322 22 453 -32 q 109 181 190 75 q 28 436 28 288 q 108 688 28 583 q 320 844 189 792 q 599 897 451 897 q 876 844 746 897 q 1086 688 1006 792 q 1167 436 1167 583 q 1087 181 1167 288 q 877 22 1007 75 q 600 -32 747 -32 m 642 -6 q 803 38 731 -6 q 920 168 876 81 q 964 382 964 256 q 903 647 964 535 q 747 817 843 758 q 546 875 650 875 q 386 834 458 875 q 271 710 314 793 q 228 506 228 626 q 288 231 228 347 q 442 54 347 114 q 642 -6 538 -6 m 597 1115 l 389 968 l 301 1028 l 597 1133 l 896 1028 l 803 968 l 597 1115 z "},"Ö":{"ha":1194,"x_min":28,"x_max":1167,"o":"m 600 -32 q 322 22 453 -32 q 109 181 190 75 q 28 436 28 288 q 108 688 28 583 q 320 844 189 792 q 599 897 451 897 q 876 844 746 897 q 1086 688 1006 792 q 1167 436 1167 583 q 1087 181 1167 288 q 877 22 1007 75 q 600 -32 747 -32 m 642 -6 q 803 38 731 -6 q 920 168 876 81 q 964 382 964 256 q 903 647 964 535 q 747 817 843 758 q 546 875 650 875 q 386 834 458 875 q 271 710 314 793 q 228 506 228 626 q 288 231 228 347 q 442 54 347 114 q 642 -6 538 -6 m 489 974 q 428 994 454 974 q 403 1044 403 1015 q 429 1095 403 1074 q 489 1117 456 1117 q 553 1096 526 1117 q 579 1044 579 1075 q 553 994 579 1014 q 489 974 528 974 m 711 974 q 647 994 674 974 q 619 1044 619 1014 q 647 1096 619 1075 q 711 1117 674 1117 q 771 1095 744 1117 q 797 1044 797 1074 q 772 994 797 1015 q 711 974 746 974 z "},"Ò":{"ha":1194,"x_min":28,"x_max":1167,"o":"m 600 -32 q 322 22 453 -32 q 109 181 190 75 q 28 436 28 288 q 108 688 28 583 q 320 844 189 792 q 599 897 451 897 q 876 844 746 897 q 1086 688 1006 792 q 1167 436 1167 583 q 1087 181 1167 288 q 877 22 1007 75 q 600 -32 747 -32 m 642 -6 q 803 38 731 -6 q 920 168 876 81 q 964 382 964 256 q 903 647 964 535 q 747 817 843 758 q 546 875 650 875 q 386 834 458 875 q 271 710 314 793 q 228 506 228 626 q 288 231 228 347 q 442 54 347 114 q 642 -6 538 -6 m 847 943 q 565 987 693 944 q 350 1094 436 1029 l 457 1194 q 560 1078 494 1132 q 701 990 625 1024 q 847 954 778 957 l 847 943 z "},"Ő":{"ha":1194,"x_min":28,"x_max":1167,"o":"m 600 -32 q 322 22 453 -32 q 109 181 190 75 q 28 436 28 288 q 108 688 28 583 q 320 844 189 792 q 599 897 451 897 q 876 844 746 897 q 1086 688 1006 792 q 1167 436 1167 583 q 1087 181 1167 288 q 877 22 1007 75 q 600 -32 747 -32 m 642 -6 q 803 38 731 -6 q 920 168 876 81 q 964 382 964 256 q 903 647 964 535 q 747 817 843 758 q 546 875 650 875 q 386 834 458 875 q 271 710 314 793 q 228 506 228 626 q 288 231 228 347 q 442 54 347 114 q 642 -6 538 -6 m 464 939 l 389 939 l 478 1113 l 626 1113 l 464 939 m 640 939 l 565 939 l 660 1113 l 807 1113 l 640 939 z "},"Ō":{"ha":1194,"x_min":28,"x_max":1167,"o":"m 600 -32 q 322 22 453 -32 q 109 181 190 75 q 28 436 28 288 q 108 688 28 583 q 320 844 189 792 q 599 897 451 897 q 876 844 746 897 q 1086 688 1006 792 q 1167 436 1167 583 q 1087 181 1167 288 q 877 22 1007 75 q 600 -32 747 -32 m 642 -6 q 803 38 731 -6 q 920 168 876 81 q 964 382 964 256 q 903 647 964 535 q 747 817 843 758 q 546 875 650 875 q 386 834 458 875 q 271 710 314 793 q 228 506 228 626 q 288 231 228 347 q 442 54 347 114 q 642 -6 538 -6 m 824 1029 l 372 1029 l 372 1051 l 824 1051 l 824 1029 z "},"Ø":{"ha":1194,"x_min":28,"x_max":1167,"o":"m 938 815 q 1106 660 1044 756 q 1167 436 1167 564 q 1087 181 1167 288 q 877 22 1007 75 q 600 -32 747 -32 q 271 46 418 -32 l 219 -12 l 196 -12 l 254 56 q 88 212 149 115 q 28 436 28 308 q 108 688 28 583 q 320 844 189 792 q 599 897 451 897 q 767 878 685 897 q 921 824 850 860 l 976 888 l 1000 888 l 938 815 m 228 506 q 338 151 228 290 l 843 735 q 706 839 783 803 q 546 875 628 875 q 386 834 458 875 q 271 710 314 793 q 228 506 228 626 m 642 -6 q 803 38 731 -6 q 920 168 876 81 q 964 382 964 256 q 856 721 964 582 l 349 136 q 484 31 407 68 q 642 -6 561 -6 z "},"Õ":{"ha":1194,"x_min":28,"x_max":1167,"o":"m 600 -32 q 322 22 453 -32 q 109 181 190 75 q 28 436 28 288 q 108 688 28 583 q 320 844 189 792 q 599 897 451 897 q 876 844 746 897 q 1086 688 1006 792 q 1167 436 1167 583 q 1087 181 1167 288 q 877 22 1007 75 q 600 -32 747 -32 m 642 -6 q 803 38 731 -6 q 920 168 876 81 q 964 382 964 256 q 903 647 964 535 q 747 817 843 758 q 546 875 650 875 q 386 834 458 875 q 271 710 314 793 q 228 506 228 626 q 288 231 228 347 q 442 54 347 114 q 642 -6 538 -6 m 775 963 q 663 976 722 963 q 507 1015 603 989 q 419 1039 461 1029 q 357 1049 378 1049 q 309 1036 328 1049 q 290 982 290 1024 l 274 982 q 322 1094 274 1053 q 446 1136 369 1136 q 531 1125 481 1136 q 654 1094 582 1114 q 832 1057 788 1057 q 904 1136 904 1057 l 919 1136 q 880 1015 919 1068 q 775 963 840 963 z "},"Œ":{"ha":1908,"x_min":28,"x_max":1894,"o":"m 1529 85 q 1741 106 1661 94 q 1894 143 1821 118 l 1894 0 q 1664 35 1775 22 q 1428 49 1553 49 q 1008 0 1192 49 l 979 0 l 979 78 q 803 -4 901 24 q 600 -32 706 -32 q 322 22 453 -32 q 109 181 190 75 q 28 436 28 288 q 108 688 28 583 q 320 844 189 792 q 599 897 451 897 q 803 869 704 897 q 979 789 901 842 l 979 875 l 1851 875 l 1871 729 q 1727 817 1821 781 q 1489 853 1633 853 l 1174 853 l 1174 464 l 1733 464 l 1733 439 l 1174 439 l 1174 64 q 1529 85 1410 74 m 642 -6 q 803 38 731 -6 q 920 168 876 81 q 964 382 964 256 q 903 647 964 535 q 747 817 843 758 q 546 875 650 875 q 386 834 458 875 q 271 710 314 793 q 228 506 228 626 q 288 231 228 347 q 442 54 347 114 q 642 -6 538 -6 z "},"P":{"ha":1076,"x_min":56,"x_max":1063,"o":"m 56 0 l 56 875 l 715 875 q 964 817 865 875 q 1063 593 1063 760 q 999 399 1063 479 q 831 280 935 319 q 606 240 726 240 q 410 274 504 240 q 253 369 317 307 l 250 369 l 250 0 l 56 0 m 558 264 q 715 301 644 264 q 826 411 785 338 q 868 590 868 485 q 796 792 868 731 q 592 853 724 853 l 250 853 l 250 438 q 374 311 286 358 q 558 264 461 264 z "},"Þ":{"ha":1107,"x_min":56,"x_max":1079,"o":"m 632 832 q 850 790 747 832 q 1016 662 953 747 q 1079 454 1079 576 q 1016 242 1079 329 q 851 113 953 156 q 635 69 750 69 q 399 124 504 69 q 250 281 293 179 l 250 0 l 56 0 l 56 875 l 250 875 l 250 626 q 397 778 293 725 q 632 832 501 832 m 567 110 q 724 147 651 110 q 840 261 796 183 q 885 454 885 339 q 840 637 885 563 q 724 747 796 711 q 569 782 653 782 q 422 752 492 782 q 307 665 353 722 q 250 532 261 608 l 250 365 q 306 232 260 290 q 422 142 353 174 q 567 110 490 110 z "},"Q":{"ha":1194,"x_min":28,"x_max":1167,"o":"m 603 -25 q 316 29 447 -25 q 106 188 185 83 q 28 436 28 293 q 108 688 28 583 q 320 844 189 792 q 599 897 451 897 q 876 844 746 897 q 1086 688 1006 792 q 1167 436 1167 583 q 1059 157 1167 267 q 782 4 951 47 l 782 -1 q 1078 68 901 10 l 1132 85 l 1146 0 q 1063 7 1101 7 q 856 -8 996 7 q 603 -25 686 -25 m 635 3 q 801 46 726 3 q 919 174 875 89 q 964 382 964 260 q 903 647 964 535 q 747 817 843 758 q 546 875 650 875 q 386 834 458 875 q 271 710 314 793 q 228 506 228 626 q 287 233 228 347 q 440 61 346 119 q 635 3 533 3 z "},"R":{"ha":1025,"x_min":56,"x_max":988,"o":"m 56 0 l 56 875 l 701 875 q 853 849 789 875 q 950 778 917 824 q 983 676 983 733 q 909 540 983 589 q 724 490 835 490 q 565 519 646 490 q 417 606 485 549 l 415 603 q 505 515 449 560 q 674 386 561 469 q 904 183 821 275 q 988 0 988 92 l 783 0 q 726 182 765 101 q 629 335 686 263 q 467 497 569 406 q 332 630 381 574 q 254 763 283 686 l 251 763 l 250 0 l 56 0 m 638 550 q 747 590 703 550 q 792 688 792 629 q 735 808 792 763 q 579 853 679 853 l 250 853 q 316 705 254 775 q 467 592 378 635 q 638 550 557 550 z "},"Ŕ":{"ha":1025,"x_min":56,"x_max":988,"o":"m 56 0 l 56 875 l 701 875 q 853 849 789 875 q 950 778 917 824 q 983 676 983 733 q 909 540 983 589 q 724 490 835 490 q 565 519 646 490 q 417 606 485 549 l 415 603 q 505 515 449 560 q 674 386 561 469 q 904 183 821 275 q 988 0 988 92 l 783 0 q 726 182 765 101 q 629 335 686 263 q 467 497 569 406 q 332 630 381 574 q 254 763 283 686 l 251 763 l 250 0 l 56 0 m 638 550 q 747 590 703 550 q 792 688 792 629 q 735 808 792 763 q 579 853 679 853 l 250 853 q 316 705 254 775 q 467 592 378 635 q 638 550 557 550 m 264 954 q 410 990 333 957 q 551 1078 486 1024 q 654 1194 617 1132 l 763 1094 q 547 987 676 1029 q 264 943 418 944 l 264 954 z "},"Ř":{"ha":1025,"x_min":56,"x_max":988,"o":"m 56 0 l 56 875 l 701 875 q 853 849 789 875 q 950 778 917 824 q 983 676 983 733 q 909 540 983 589 q 724 490 835 490 q 565 519 646 490 q 417 606 485 549 l 415 603 q 505 515 449 560 q 674 386 561 469 q 904 183 821 275 q 988 0 988 92 l 783 0 q 726 182 765 101 q 629 335 686 263 q 467 497 569 406 q 332 630 381 574 q 254 763 283 686 l 251 763 l 250 0 l 56 0 m 638 550 q 747 590 703 550 q 792 688 792 629 q 735 808 792 763 q 579 853 679 853 l 250 853 q 316 705 254 775 q 467 592 378 635 q 638 550 557 550 z "},"Ŗ":{"ha":1025,"x_min":56,"x_max":988,"o":"m 56 0 l 56 875 l 701 875 q 853 849 789 875 q 950 778 917 824 q 983 676 983 733 q 909 540 983 589 q 724 490 835 490 q 565 519 646 490 q 417 606 485 549 l 415 603 q 505 515 449 560 q 674 386 561 469 q 904 183 821 275 q 988 0 988 92 l 783 0 q 726 182 765 101 q 629 335 686 263 q 467 497 569 406 q 332 630 381 574 q 254 763 283 686 l 251 763 l 250 0 l 56 0 m 638 550 q 747 590 703 550 q 792 688 792 629 q 735 808 792 763 q 579 853 679 853 l 250 853 q 316 705 254 775 q 467 592 378 635 q 638 550 557 550 z "},"S":{"ha":990,"x_min":38,"x_max":963,"o":"m 403 -25 q 40 13 249 -25 l 53 154 q 315 67 160 103 q 594 32 471 32 q 767 59 701 32 q 833 147 833 86 q 740 273 833 214 q 478 399 646 332 l 442 413 q 225 503 304 467 q 92 588 146 540 q 38 692 38 635 q 191 849 38 801 q 583 896 344 896 q 938 872 769 896 l 926 729 q 792 793 882 761 q 603 844 703 825 q 431 864 504 864 q 273 842 338 864 q 208 772 208 821 q 248 699 208 732 q 356 637 288 665 q 544 565 424 608 q 761 481 676 519 q 904 386 846 442 q 963 257 963 331 q 806 47 963 118 q 403 -25 650 -25 z "},"Ś":{"ha":990,"x_min":38,"x_max":963,"o":"m 403 -25 q 40 13 249 -25 l 53 154 q 315 67 160 103 q 594 32 471 32 q 767 59 701 32 q 833 147 833 86 q 740 273 833 214 q 478 399 646 332 l 442 413 q 225 503 304 467 q 92 588 146 540 q 38 692 38 635 q 191 849 38 801 q 583 896 344 896 q 938 872 769 896 l 926 729 q 792 793 882 761 q 603 844 703 825 q 431 864 504 864 q 273 842 338 864 q 208 772 208 821 q 248 699 208 732 q 356 637 288 665 q 544 565 424 608 q 761 481 676 519 q 904 386 846 442 q 963 257 963 331 q 806 47 963 118 q 403 -25 650 -25 m 246 954 q 392 990 315 957 q 533 1078 468 1024 q 636 1194 599 1132 l 744 1094 q 529 987 658 1029 q 246 943 400 944 l 246 954 z "},"Š":{"ha":990,"x_min":38,"x_max":963,"o":"m 403 -25 q 40 13 249 -25 l 53 154 q 315 67 160 103 q 594 32 471 32 q 767 59 701 32 q 833 147 833 86 q 740 273 833 214 q 478 399 646 332 l 442 413 q 225 503 304 467 q 92 588 146 540 q 38 692 38 635 q 191 849 38 801 q 583 896 344 896 q 938 872 769 896 l 926 729 q 792 793 882 761 q 603 844 703 825 q 431 864 504 864 q 273 842 338 864 q 208 772 208 821 q 248 699 208 732 q 356 637 288 665 q 544 565 424 608 q 761 481 676 519 q 904 386 846 442 q 963 257 963 331 q 806 47 963 118 q 403 -25 650 -25 z "},"Ş":{"ha":990,"x_min":38,"x_max":963,"o":"m 963 257 q 833 60 963 131 q 489 -22 703 -10 l 476 -54 q 515 -53 490 -53 q 675 -87 615 -53 q 735 -175 735 -122 q 704 -254 735 -217 q 617 -314 674 -292 q 486 -336 561 -336 q 325 -312 400 -336 l 325 -293 q 431 -307 381 -307 q 550 -275 507 -307 q 593 -199 593 -243 q 560 -135 593 -158 q 474 -111 528 -111 q 422 -117 446 -111 l 422 -87 l 461 -24 q 403 -25 442 -25 q 40 13 249 -25 l 53 154 q 315 67 160 103 q 594 32 471 32 q 767 59 701 32 q 833 147 833 86 q 740 273 833 214 q 478 399 646 332 l 442 413 q 225 503 304 467 q 92 588 146 540 q 38 692 38 635 q 191 849 38 801 q 583 896 344 896 q 938 872 769 896 l 926 729 q 792 793 882 761 q 603 844 703 825 q 431 864 504 864 q 273 842 338 864 q 208 772 208 821 q 248 699 208 732 q 356 637 288 665 q 544 565 424 608 q 761 481 676 519 q 904 386 846 442 q 963 257 963 331 z "},"Ș":{"ha":990,"x_min":38,"x_max":963,"o":"m 403 -25 q 40 13 249 -25 l 53 154 q 315 67 160 103 q 594 32 471 32 q 767 59 701 32 q 833 147 833 86 q 740 273 833 214 q 478 399 646 332 l 442 413 q 225 503 304 467 q 92 588 146 540 q 38 692 38 635 q 191 849 38 801 q 583 896 344 896 q 938 872 769 896 l 926 729 q 792 793 882 761 q 603 844 703 825 q 431 864 504 864 q 273 842 338 864 q 208 772 208 821 q 248 699 208 732 q 356 637 288 665 q 544 565 424 608 q 761 481 676 519 q 904 386 846 442 q 963 257 963 331 q 806 47 963 118 q 403 -25 650 -25 z "},"ẞ":{"ha":1156,"x_min":56,"x_max":1100,"o":"m 708 -26 q 455 46 563 -26 q 324 251 347 118 l 346 251 q 444 84 369 140 q 621 28 519 28 q 760 57 694 28 q 865 141 825 86 q 906 269 906 196 q 806 455 906 389 q 496 521 706 521 q 396 517 450 521 l 396 538 q 649 600 551 546 q 790 727 747 654 q 833 869 833 800 q 713 878 772 878 q 380 782 510 878 q 250 433 250 686 l 250 0 l 56 0 l 56 382 q 244 774 56 650 q 735 897 432 897 q 1004 875 860 897 q 960 740 1004 806 q 817 621 917 674 q 561 546 718 568 l 563 538 q 674 543 614 543 q 992 477 883 543 q 1100 290 1100 411 q 1045 117 1100 189 q 901 10 990 46 q 708 -26 811 -26 z "},"T":{"ha":1157,"x_min":22,"x_max":1133,"o":"m 482 0 l 482 853 l 365 853 q 192 819 285 853 q 22 731 99 786 l 47 875 l 1110 875 l 1133 731 q 963 817 1068 782 q 792 853 857 853 l 676 853 l 676 0 l 482 0 z "},"Ŧ":{"ha":1157,"x_min":22,"x_max":1133,"o":"m 676 853 l 676 449 l 889 449 l 889 426 l 676 426 l 676 0 l 482 0 l 482 426 l 265 426 l 265 449 l 482 449 l 482 853 l 365 853 q 192 819 285 853 q 22 731 99 786 l 47 875 l 1110 875 l 1133 731 q 963 817 1068 782 q 792 853 857 853 l 676 853 z "},"Ť":{"ha":1157,"x_min":22,"x_max":1133,"o":"m 482 0 l 482 853 l 365 853 q 192 819 285 853 q 22 731 99 786 l 47 875 l 1110 875 l 1133 731 q 963 817 1068 782 q 792 853 857 853 l 676 853 l 676 0 l 482 0 z "},"Ţ":{"ha":1157,"x_min":22,"x_max":1133,"o":"m 482 0 l 482 853 l 365 853 q 192 819 285 853 q 22 731 99 786 l 47 875 l 1110 875 l 1133 731 q 963 817 1068 782 q 792 853 857 853 l 676 853 l 676 0 l 482 0 m 571 -336 q 410 -312 485 -336 l 410 -293 q 515 -307 465 -307 q 635 -275 592 -307 q 678 -199 678 -243 q 645 -135 678 -158 q 558 -111 613 -111 q 507 -117 531 -111 l 507 -87 l 560 0 l 582 0 l 561 -54 q 600 -53 575 -53 q 760 -87 700 -53 q 819 -175 819 -122 q 789 -254 819 -217 q 702 -314 758 -292 q 571 -336 646 -336 z "},"Ț":{"ha":1157,"x_min":22,"x_max":1133,"o":"m 482 0 l 482 853 l 365 853 q 192 819 285 853 q 22 731 99 786 l 47 875 l 1110 875 l 1133 731 q 963 817 1068 782 q 792 853 857 853 l 676 853 l 676 0 l 482 0 z "},"U":{"ha":1114,"x_min":56,"x_max":1058,"o":"m 557 -25 q 313 26 428 -25 q 126 176 197 76 q 56 415 56 276 l 56 875 l 250 875 l 250 415 q 305 200 250 289 q 449 66 360 111 q 639 21 538 21 q 831 67 740 21 q 978 202 922 113 q 1035 415 1035 292 l 1035 875 l 1058 875 l 1058 415 q 988 176 1058 275 q 802 26 917 76 q 557 -25 688 -25 z "},"Ú":{"ha":1114,"x_min":56,"x_max":1058,"o":"m 557 -25 q 313 26 428 -25 q 126 176 197 76 q 56 415 56 276 l 56 875 l 250 875 l 250 415 q 305 200 250 289 q 449 66 360 111 q 639 21 538 21 q 831 67 740 21 q 978 202 922 113 q 1035 415 1035 292 l 1035 875 l 1058 875 l 1058 415 q 988 176 1058 275 q 802 26 917 76 q 557 -25 688 -25 m 381 954 q 526 990 450 957 q 668 1078 603 1024 q 771 1194 733 1132 l 879 1094 q 664 987 793 1029 q 381 943 535 944 l 381 954 z "},"Û":{"ha":1114,"x_min":56,"x_max":1058,"o":"m 557 -25 q 313 26 428 -25 q 126 176 197 76 q 56 415 56 276 l 56 875 l 250 875 l 250 415 q 305 200 250 289 q 449 66 360 111 q 639 21 538 21 q 831 67 740 21 q 978 202 922 113 q 1035 415 1035 292 l 1035 875 l 1058 875 l 1058 415 q 988 176 1058 275 q 802 26 917 76 q 557 -25 688 -25 m 631 1115 l 422 968 l 335 1028 l 631 1133 l 929 1028 l 836 968 l 631 1115 z "},"Ü":{"ha":1114,"x_min":56,"x_max":1058,"o":"m 557 -25 q 313 26 428 -25 q 126 176 197 76 q 56 415 56 276 l 56 875 l 250 875 l 250 415 q 305 200 250 289 q 449 66 360 111 q 639 21 538 21 q 831 67 740 21 q 978 202 922 113 q 1035 415 1035 292 l 1035 875 l 1058 875 l 1058 415 q 988 176 1058 275 q 802 26 917 76 q 557 -25 688 -25 m 522 974 q 462 994 488 974 q 436 1044 436 1015 q 463 1095 436 1074 q 522 1117 489 1117 q 586 1096 560 1117 q 613 1044 613 1075 q 587 994 613 1014 q 522 974 561 974 m 744 974 q 680 994 707 974 q 653 1044 653 1014 q 680 1096 653 1075 q 744 1117 707 1117 q 804 1095 778 1117 q 831 1044 831 1074 q 805 994 831 1015 q 744 974 779 974 z "},"Ù":{"ha":1114,"x_min":56,"x_max":1058,"o":"m 557 -25 q 313 26 428 -25 q 126 176 197 76 q 56 415 56 276 l 56 875 l 250 875 l 250 415 q 305 200 250 289 q 449 66 360 111 q 639 21 538 21 q 831 67 740 21 q 978 202 922 113 q 1035 415 1035 292 l 1035 875 l 1058 875 l 1058 415 q 988 176 1058 275 q 802 26 917 76 q 557 -25 688 -25 m 879 943 q 597 987 725 944 q 382 1094 468 1029 l 489 1194 q 592 1078 526 1132 q 733 990 657 1024 q 879 954 810 957 l 879 943 z "},"Ű":{"ha":1114,"x_min":56,"x_max":1058,"o":"m 557 -25 q 313 26 428 -25 q 126 176 197 76 q 56 415 56 276 l 56 875 l 250 875 l 250 415 q 305 200 250 289 q 449 66 360 111 q 639 21 538 21 q 831 67 740 21 q 978 202 922 113 q 1035 415 1035 292 l 1035 875 l 1058 875 l 1058 415 q 988 176 1058 275 q 802 26 917 76 q 557 -25 688 -25 m 496 939 l 421 939 l 510 1113 l 658 1113 l 496 939 m 672 939 l 597 939 l 692 1113 l 839 1113 l 672 939 z "},"Ū":{"ha":1114,"x_min":56,"x_max":1058,"o":"m 557 -25 q 313 26 428 -25 q 126 176 197 76 q 56 415 56 276 l 56 875 l 250 875 l 250 415 q 305 200 250 289 q 449 66 360 111 q 639 21 538 21 q 831 67 740 21 q 978 202 922 113 q 1035 415 1035 292 l 1035 875 l 1058 875 l 1058 415 q 988 176 1058 275 q 802 26 917 76 q 557 -25 688 -25 m 857 1029 l 406 1029 l 406 1051 l 857 1051 l 857 1029 z "},"Ų":{"ha":1114,"x_min":56,"x_max":1058,"o":"m 1035 875 l 1058 875 l 1058 415 q 988 176 1058 275 q 802 26 917 76 q 557 -25 688 -25 l 551 -25 q 382 -51 442 -25 q 322 -114 322 -78 q 367 -169 322 -146 q 479 -193 411 -193 q 566 -179 526 -193 q 624 -137 606 -165 l 633 -137 q 531 -244 611 -206 q 361 -282 451 -282 q 233 -254 281 -282 q 185 -178 185 -226 q 257 -83 185 -128 q 449 -15 329 -37 q 251 58 340 3 q 108 205 161 114 q 56 415 56 296 l 56 875 l 250 875 l 250 415 q 305 200 250 289 q 449 66 360 111 q 639 21 538 21 q 831 67 740 21 q 978 202 922 113 q 1035 415 1035 292 l 1035 875 z "},"Ů":{"ha":1114,"x_min":56,"x_max":1058,"o":"m 557 -25 q 313 26 428 -25 q 126 176 197 76 q 56 415 56 276 l 56 875 l 250 875 l 250 415 q 305 200 250 289 q 449 66 360 111 q 639 21 538 21 q 831 67 740 21 q 978 202 922 113 q 1035 415 1035 292 l 1035 875 l 1058 875 l 1058 415 q 988 176 1058 275 q 802 26 917 76 q 557 -25 688 -25 m 629 933 q 476 960 540 933 q 411 1036 411 988 q 476 1112 411 1085 q 631 1139 542 1139 q 785 1112 719 1139 q 850 1036 850 1085 q 785 960 850 988 q 629 933 719 933 m 631 944 q 700 969 671 944 q 729 1036 729 993 q 700 1103 729 1079 q 631 1126 671 1126 q 560 1102 590 1126 q 531 1035 531 1078 q 560 969 531 993 q 631 944 590 944 z "},"V":{"ha":1300,"x_min":14,"x_max":1278,"o":"m 592 0 l 14 875 l 217 875 l 583 324 l 589 324 q 576 444 576 386 q 632 674 576 571 q 786 837 688 778 q 1008 896 885 896 q 1206 838 1135 896 q 1278 683 1278 779 q 1242 543 1278 618 q 1133 390 1206 468 l 767 0 l 592 0 m 1029 306 q 1125 453 1093 375 q 1157 607 1157 531 q 1131 735 1157 678 q 1055 827 1104 793 q 942 861 1006 861 q 765 802 846 861 q 638 647 685 743 q 592 443 592 550 q 661 207 592 313 l 774 36 l 1029 306 z "},"W":{"ha":1615,"x_min":14,"x_max":1592,"o":"m 453 0 l 14 875 l 217 875 l 628 40 l 850 388 l 606 875 l 808 875 l 1042 419 l 1044 421 q 1042 482 1042 442 q 1085 692 1042 597 q 1204 840 1129 786 q 1367 894 1279 894 q 1533 838 1474 894 q 1592 689 1592 782 q 1514 460 1592 579 l 1219 0 l 1046 0 l 861 365 l 628 0 l 453 0 m 1421 361 q 1501 593 1501 488 q 1446 732 1501 681 q 1308 783 1390 783 q 1180 746 1238 783 q 1089 642 1122 708 q 1056 493 1056 575 q 1114 275 1056 386 l 1228 58 l 1421 361 z "},"Ẃ":{"ha":1615,"x_min":14,"x_max":1592,"o":"m 453 0 l 14 875 l 217 875 l 628 40 l 850 388 l 606 875 l 808 875 l 1042 419 l 1044 421 q 1042 482 1042 442 q 1085 692 1042 597 q 1204 840 1129 786 q 1367 894 1279 894 q 1533 838 1474 894 q 1592 689 1592 782 q 1514 460 1592 579 l 1219 0 l 1046 0 l 861 365 l 628 0 l 453 0 m 1421 361 q 1501 593 1501 488 q 1446 732 1501 681 q 1308 783 1390 783 q 1180 746 1238 783 q 1089 642 1122 708 q 1056 493 1056 575 q 1114 275 1056 386 l 1228 58 l 1421 361 m 554 954 q 700 990 624 957 q 842 1078 776 1024 q 944 1194 907 1132 l 1053 1094 q 838 987 967 1029 q 554 943 708 944 l 554 954 z "},"Ŵ":{"ha":1615,"x_min":14,"x_max":1592,"o":"m 453 0 l 14 875 l 217 875 l 628 40 l 850 388 l 606 875 l 808 875 l 1042 419 l 1044 421 q 1042 482 1042 442 q 1085 692 1042 597 q 1204 840 1129 786 q 1367 894 1279 894 q 1533 838 1474 894 q 1592 689 1592 782 q 1514 460 1592 579 l 1219 0 l 1046 0 l 861 365 l 628 0 l 453 0 m 1421 361 q 1501 593 1501 488 q 1446 732 1501 681 q 1308 783 1390 783 q 1180 746 1238 783 q 1089 642 1122 708 q 1056 493 1056 575 q 1114 275 1056 386 l 1228 58 l 1421 361 m 803 1115 l 594 968 l 507 1028 l 803 1133 l 1101 1028 l 1008 968 l 803 1115 z "},"Ẅ":{"ha":1615,"x_min":14,"x_max":1592,"o":"m 453 0 l 14 875 l 217 875 l 628 40 l 850 388 l 606 875 l 808 875 l 1042 419 l 1044 421 q 1042 482 1042 442 q 1085 692 1042 597 q 1204 840 1129 786 q 1367 894 1279 894 q 1533 838 1474 894 q 1592 689 1592 782 q 1514 460 1592 579 l 1219 0 l 1046 0 l 861 365 l 628 0 l 453 0 m 1421 361 q 1501 593 1501 488 q 1446 732 1501 681 q 1308 783 1390 783 q 1180 746 1238 783 q 1089 642 1122 708 q 1056 493 1056 575 q 1114 275 1056 386 l 1228 58 l 1421 361 m 694 974 q 634 994 660 974 q 608 1044 608 1015 q 635 1095 608 1074 q 694 1117 661 1117 q 758 1096 732 1117 q 785 1044 785 1075 q 759 994 785 1014 q 694 974 733 974 m 917 974 q 852 994 879 974 q 825 1044 825 1014 q 852 1096 825 1075 q 917 1117 879 1117 q 976 1095 950 1117 q 1003 1044 1003 1074 q 977 994 1003 1015 q 917 974 951 974 z "},"Ẁ":{"ha":1615,"x_min":14,"x_max":1592,"o":"m 453 0 l 14 875 l 217 875 l 628 40 l 850 388 l 606 875 l 808 875 l 1042 419 l 1044 421 q 1042 482 1042 442 q 1085 692 1042 597 q 1204 840 1129 786 q 1367 894 1279 894 q 1533 838 1474 894 q 1592 689 1592 782 q 1514 460 1592 579 l 1219 0 l 1046 0 l 861 365 l 628 0 l 453 0 m 1421 361 q 1501 593 1501 488 q 1446 732 1501 681 q 1308 783 1390 783 q 1180 746 1238 783 q 1089 642 1122 708 q 1056 493 1056 575 q 1114 275 1056 386 l 1228 58 l 1421 361 m 1053 943 q 770 987 899 944 q 556 1094 642 1029 l 663 1194 q 765 1078 700 1132 q 907 990 831 1024 q 1053 954 983 957 l 1053 943 z "},"X":{"ha":1058,"x_min":14,"x_max":1079,"o":"m 24 0 l 482 401 l 14 867 l 208 867 l 590 489 q 917 875 804 683 l 1038 875 l 604 474 l 1079 0 l 885 0 l 497 383 l 468 356 q 263 154 336 232 q 146 0 190 76 l 24 0 z "},"Y":{"ha":963,"x_min":14,"x_max":949,"o":"m 413 324 q 384 431 413 381 q 314 524 356 482 q 204 625 272 565 q 66 760 111 707 q 14 875 21 813 l 208 875 q 263 759 215 815 q 400 621 310 703 q 501 524 465 561 q 561 446 536 488 q 586 363 586 404 l 590 363 q 635 481 592 421 q 764 629 679 542 q 886 770 846 715 q 926 875 926 825 l 949 875 q 908 760 949 817 q 788 621 868 704 q 692 517 728 560 q 632 425 657 475 q 607 324 607 375 l 607 -4 l 413 -4 l 413 324 z "},"Ý":{"ha":963,"x_min":14,"x_max":949,"o":"m 413 324 q 384 431 413 381 q 314 524 356 482 q 204 625 272 565 q 66 760 111 707 q 14 875 21 813 l 208 875 q 263 759 215 815 q 400 621 310 703 q 501 524 465 561 q 561 446 536 488 q 586 363 586 404 l 590 363 q 635 481 592 421 q 764 629 679 542 q 886 770 846 715 q 926 875 926 825 l 949 875 q 908 760 949 817 q 788 621 868 704 q 692 517 728 560 q 632 425 657 475 q 607 324 607 375 l 607 -4 l 413 -4 l 413 324 m 278 954 q 424 990 347 957 q 565 1078 500 1024 q 668 1194 631 1132 l 776 1094 q 561 987 690 1029 q 278 943 432 944 l 278 954 z "},"Ŷ":{"ha":963,"x_min":14,"x_max":949,"o":"m 413 324 q 384 431 413 381 q 314 524 356 482 q 204 625 272 565 q 66 760 111 707 q 14 875 21 813 l 208 875 q 263 759 215 815 q 400 621 310 703 q 501 524 465 561 q 561 446 536 488 q 586 363 586 404 l 590 363 q 635 481 592 421 q 764 629 679 542 q 886 770 846 715 q 926 875 926 825 l 949 875 q 908 760 949 817 q 788 621 868 704 q 692 517 728 560 q 632 425 657 475 q 607 324 607 375 l 607 -4 l 413 -4 l 413 324 m 526 1115 l 318 968 l 231 1028 l 526 1133 l 825 1028 l 732 968 l 526 1115 z "},"Ÿ":{"ha":963,"x_min":14,"x_max":949,"o":"m 413 324 q 384 431 413 381 q 314 524 356 482 q 204 625 272 565 q 66 760 111 707 q 14 875 21 813 l 208 875 q 263 759 215 815 q 400 621 310 703 q 501 524 465 561 q 561 446 536 488 q 586 363 586 404 l 590 363 q 635 481 592 421 q 764 629 679 542 q 886 770 846 715 q 926 875 926 825 l 949 875 q 908 760 949 817 q 788 621 868 704 q 692 517 728 560 q 632 425 657 475 q 607 324 607 375 l 607 -4 l 413 -4 l 413 324 m 418 974 q 358 994 383 974 q 332 1044 332 1015 q 358 1095 332 1074 q 418 1117 385 1117 q 482 1096 456 1117 q 508 1044 508 1075 q 483 994 508 1014 q 418 974 457 974 m 640 974 q 576 994 603 974 q 549 1044 549 1014 q 576 1096 549 1075 q 640 1117 603 1117 q 700 1095 674 1117 q 726 1044 726 1074 q 701 994 726 1015 q 640 974 675 974 z "},"Ỳ":{"ha":963,"x_min":14,"x_max":949,"o":"m 413 324 q 384 431 413 381 q 314 524 356 482 q 204 625 272 565 q 66 760 111 707 q 14 875 21 813 l 208 875 q 263 759 215 815 q 400 621 310 703 q 501 524 465 561 q 561 446 536 488 q 586 363 586 404 l 590 363 q 635 481 592 421 q 764 629 679 542 q 886 770 846 715 q 926 875 926 825 l 949 875 q 908 760 949 817 q 788 621 868 704 q 692 517 728 560 q 632 425 657 475 q 607 324 607 375 l 607 -4 l 413 -4 l 413 324 m 776 943 q 494 987 622 944 q 279 1094 365 1029 l 386 1194 q 489 1078 424 1132 q 631 990 554 1024 q 776 954 707 957 l 776 943 z "},"Z":{"ha":1039,"x_min":29,"x_max":1004,"o":"m 29 1 l 775 846 l 582 847 q 256 816 390 847 q 46 733 122 785 l 46 875 l 1004 875 l 249 29 l 501 29 q 793 65 664 29 q 1000 143 922 100 l 1000 1 l 29 1 z "},"Ź":{"ha":1039,"x_min":29,"x_max":1004,"o":"m 29 1 l 775 846 l 582 847 q 256 816 390 847 q 46 733 122 785 l 46 875 l 1004 875 l 249 29 l 501 29 q 793 65 664 29 q 1000 143 922 100 l 1000 1 l 29 1 m 257 954 q 403 990 326 957 q 544 1078 479 1024 q 647 1194 610 1132 l 756 1094 q 540 987 669 1029 q 257 943 411 944 l 257 954 z "},"Ž":{"ha":1039,"x_min":29,"x_max":1004,"o":"m 29 1 l 775 846 l 582 847 q 256 816 390 847 q 46 733 122 785 l 46 875 l 1004 875 l 249 29 l 501 29 q 793 65 664 29 q 1000 143 922 100 l 1000 1 l 29 1 z "},"Ż":{"ha":1039,"x_min":29,"x_max":1004,"o":"m 29 1 l 775 846 l 582 847 q 256 816 390 847 q 46 733 122 785 l 46 875 l 1004 875 l 249 29 l 501 29 q 793 65 664 29 q 1000 143 922 100 l 1000 1 l 29 1 m 507 979 q 419 1007 454 979 q 383 1075 383 1035 q 419 1142 383 1115 q 507 1169 454 1169 q 595 1142 560 1169 q 631 1075 631 1115 q 595 1007 631 1035 q 507 979 560 979 z "},"a":{"ha":961,"x_min":28,"x_max":933,"o":"m 360 -26 q 200 0 276 -26 q 76 78 124 26 q 28 201 28 129 q 101 340 28 292 q 274 389 175 389 q 386 369 335 389 l 388 371 q 302 429 331 397 q 274 496 274 461 q 332 576 274 546 q 482 607 390 607 q 691 569 586 607 q 865 456 796 532 q 933 268 933 379 l 933 1 l 739 1 l 739 268 q 689 435 739 368 q 565 532 639 501 q 418 563 492 563 q 331 544 363 563 q 299 496 299 526 q 340 416 299 451 q 464 333 381 381 q 590 253 544 296 q 636 144 636 210 q 555 19 636 65 q 360 -26 474 -26 m 457 17 q 572 51 525 17 q 618 146 618 85 q 581 244 618 200 q 490 315 543 289 q 392 346 436 342 q 353 349 364 349 q 256 317 292 349 q 221 226 221 286 q 256 115 221 163 q 345 42 290 68 q 457 17 400 17 z "},"á":{"ha":961,"x_min":28,"x_max":933,"o":"m 360 -26 q 200 0 276 -26 q 76 78 124 26 q 28 201 28 129 q 101 340 28 292 q 274 389 175 389 q 386 369 335 389 l 388 371 q 302 429 331 397 q 274 496 274 461 q 332 576 274 546 q 482 607 390 607 q 691 569 586 607 q 865 456 796 532 q 933 268 933 379 l 933 1 l 739 1 l 739 268 q 689 435 739 368 q 565 532 639 501 q 418 563 492 563 q 331 544 363 563 q 299 496 299 526 q 340 416 299 451 q 464 333 381 381 q 590 253 544 296 q 636 144 636 210 q 555 19 636 65 q 360 -26 474 -26 m 457 17 q 572 51 525 17 q 618 146 618 85 q 581 244 618 200 q 490 315 543 289 q 392 346 436 342 q 353 349 364 349 q 256 317 292 349 q 221 226 221 286 q 256 115 221 163 q 345 42 290 68 q 457 17 400 17 m 283 663 q 429 699 353 665 q 571 786 506 732 q 674 903 636 840 l 782 803 q 567 695 696 738 q 283 651 438 653 l 283 663 z "},"ă":{"ha":961,"x_min":28,"x_max":933,"o":"m 360 -26 q 200 0 276 -26 q 76 78 124 26 q 28 201 28 129 q 101 340 28 292 q 274 389 175 389 q 386 369 335 389 l 388 371 q 302 429 331 397 q 274 496 274 461 q 332 576 274 546 q 482 607 390 607 q 691 569 586 607 q 865 456 796 532 q 933 268 933 379 l 933 1 l 739 1 l 739 268 q 689 435 739 368 q 565 532 639 501 q 418 563 492 563 q 331 544 363 563 q 299 496 299 526 q 340 416 299 451 q 464 333 381 381 q 590 253 544 296 q 636 144 636 210 q 555 19 636 65 q 360 -26 474 -26 m 457 17 q 572 51 525 17 q 618 146 618 85 q 581 244 618 200 q 490 315 543 289 q 392 346 436 342 q 353 349 364 349 q 256 317 292 349 q 221 226 221 286 q 256 115 221 163 q 345 42 290 68 q 457 17 400 17 m 529 656 q 374 699 436 656 q 311 824 311 743 q 315 863 311 842 l 326 863 q 388 785 326 811 q 536 758 449 758 q 681 785 622 758 q 740 863 740 811 l 751 863 q 753 833 753 853 q 688 701 753 747 q 529 656 624 656 z "},"â":{"ha":961,"x_min":28,"x_max":933,"o":"m 360 -26 q 200 0 276 -26 q 76 78 124 26 q 28 201 28 129 q 101 340 28 292 q 274 389 175 389 q 386 369 335 389 l 388 371 q 302 429 331 397 q 274 496 274 461 q 332 576 274 546 q 482 607 390 607 q 691 569 586 607 q 865 456 796 532 q 933 268 933 379 l 933 1 l 739 1 l 739 268 q 689 435 739 368 q 565 532 639 501 q 418 563 492 563 q 331 544 363 563 q 299 496 299 526 q 340 416 299 451 q 464 333 381 381 q 590 253 544 296 q 636 144 636 210 q 555 19 636 65 q 360 -26 474 -26 m 457 17 q 572 51 525 17 q 618 146 618 85 q 581 244 618 200 q 490 315 543 289 q 392 346 436 342 q 353 349 364 349 q 256 317 292 349 q 221 226 221 286 q 256 115 221 163 q 345 42 290 68 q 457 17 400 17 m 532 824 l 324 676 l 236 736 l 532 842 l 831 736 l 738 676 l 532 824 z "},"ä":{"ha":961,"x_min":28,"x_max":933,"o":"m 360 -26 q 200 0 276 -26 q 76 78 124 26 q 28 201 28 129 q 101 340 28 292 q 274 389 175 389 q 386 369 335 389 l 388 371 q 302 429 331 397 q 274 496 274 461 q 332 576 274 546 q 482 607 390 607 q 691 569 586 607 q 865 456 796 532 q 933 268 933 379 l 933 1 l 739 1 l 739 268 q 689 435 739 368 q 565 532 639 501 q 418 563 492 563 q 331 544 363 563 q 299 496 299 526 q 340 416 299 451 q 464 333 381 381 q 590 253 544 296 q 636 144 636 210 q 555 19 636 65 q 360 -26 474 -26 m 457 17 q 572 51 525 17 q 618 146 618 85 q 581 244 618 200 q 490 315 543 289 q 392 346 436 342 q 353 349 364 349 q 256 317 292 349 q 221 226 221 286 q 256 115 221 163 q 345 42 290 68 q 457 17 400 17 m 424 682 q 363 703 389 682 q 338 753 338 724 q 364 803 338 782 q 424 825 390 825 q 488 804 461 825 q 514 753 514 783 q 488 702 514 722 q 424 682 463 682 m 646 682 q 581 702 608 682 q 554 753 554 722 q 581 804 554 783 q 646 825 608 825 q 706 803 679 825 q 732 753 732 782 q 706 703 732 724 q 646 682 681 682 z "},"à":{"ha":961,"x_min":28,"x_max":933,"o":"m 360 -26 q 200 0 276 -26 q 76 78 124 26 q 28 201 28 129 q 101 340 28 292 q 274 389 175 389 q 386 369 335 389 l 388 371 q 302 429 331 397 q 274 496 274 461 q 332 576 274 546 q 482 607 390 607 q 691 569 586 607 q 865 456 796 532 q 933 268 933 379 l 933 1 l 739 1 l 739 268 q 689 435 739 368 q 565 532 639 501 q 418 563 492 563 q 331 544 363 563 q 299 496 299 526 q 340 416 299 451 q 464 333 381 381 q 590 253 544 296 q 636 144 636 210 q 555 19 636 65 q 360 -26 474 -26 m 457 17 q 572 51 525 17 q 618 146 618 85 q 581 244 618 200 q 490 315 543 289 q 392 346 436 342 q 353 349 364 349 q 256 317 292 349 q 221 226 221 286 q 256 115 221 163 q 345 42 290 68 q 457 17 400 17 m 782 651 q 499 695 628 653 q 285 803 371 738 l 392 903 q 494 786 429 840 q 636 699 560 732 q 782 663 713 665 l 782 651 z "},"ā":{"ha":961,"x_min":28,"x_max":933,"o":"m 360 -26 q 200 0 276 -26 q 76 78 124 26 q 28 201 28 129 q 101 340 28 292 q 274 389 175 389 q 386 369 335 389 l 388 371 q 302 429 331 397 q 274 496 274 461 q 332 576 274 546 q 482 607 390 607 q 691 569 586 607 q 865 456 796 532 q 933 268 933 379 l 933 1 l 739 1 l 739 268 q 689 435 739 368 q 565 532 639 501 q 418 563 492 563 q 331 544 363 563 q 299 496 299 526 q 340 416 299 451 q 464 333 381 381 q 590 253 544 296 q 636 144 636 210 q 555 19 636 65 q 360 -26 474 -26 m 457 17 q 572 51 525 17 q 618 146 618 85 q 581 244 618 200 q 490 315 543 289 q 392 346 436 342 q 353 349 364 349 q 256 317 292 349 q 221 226 221 286 q 256 115 221 163 q 345 42 290 68 q 457 17 400 17 m 758 738 l 307 738 l 307 760 l 758 760 l 758 738 z "},"ą":{"ha":961,"x_min":28,"x_max":1010,"o":"m 1010 -111 q 908 -217 988 -179 q 738 -256 828 -256 q 609 -228 657 -256 q 561 -151 561 -200 q 620 -64 561 -106 q 778 1 679 -22 l 739 1 l 739 268 q 689 435 739 368 q 565 532 639 501 q 418 563 492 563 q 331 544 363 563 q 299 496 299 526 q 340 416 299 451 q 464 333 381 381 q 590 253 544 296 q 636 144 636 210 q 555 19 636 65 q 360 -26 474 -26 q 200 0 276 -26 q 76 78 124 26 q 28 201 28 129 q 101 340 28 292 q 274 389 175 389 q 386 369 335 389 l 388 371 q 302 429 331 397 q 274 496 274 461 q 332 576 274 546 q 482 607 390 607 q 691 569 586 607 q 865 456 796 532 q 933 268 933 379 l 933 1 l 919 1 q 756 -26 814 0 q 699 -87 699 -53 q 743 -143 699 -119 q 856 -167 788 -167 q 942 -153 903 -167 q 1000 -111 982 -139 l 1010 -111 m 618 146 q 581 244 618 200 q 490 315 543 289 q 392 346 436 342 q 353 349 364 349 q 256 317 292 349 q 221 226 221 286 q 256 115 221 163 q 345 42 290 68 q 457 17 400 17 q 572 51 525 17 q 618 146 618 85 z "},"å":{"ha":961,"x_min":28,"x_max":933,"o":"m 360 -26 q 200 0 276 -26 q 76 78 124 26 q 28 201 28 129 q 101 340 28 292 q 274 389 175 389 q 386 369 335 389 l 388 371 q 302 429 331 397 q 274 496 274 461 q 332 576 274 546 q 482 607 390 607 q 691 569 586 607 q 865 456 796 532 q 933 268 933 379 l 933 1 l 739 1 l 739 268 q 689 435 739 368 q 565 532 639 501 q 418 563 492 563 q 331 544 363 563 q 299 496 299 526 q 340 416 299 451 q 464 333 381 381 q 590 253 544 296 q 636 144 636 210 q 555 19 636 65 q 360 -26 474 -26 m 457 17 q 572 51 525 17 q 618 146 618 85 q 581 244 618 200 q 490 315 543 289 q 392 346 436 342 q 353 349 364 349 q 256 317 292 349 q 221 226 221 286 q 256 115 221 163 q 345 42 290 68 q 457 17 400 17 m 532 642 q 378 669 443 642 q 314 744 314 696 q 379 820 314 793 q 533 847 444 847 q 688 820 622 847 q 753 744 753 793 q 688 669 753 696 q 532 642 622 642 m 533 653 q 603 677 574 653 q 632 744 632 701 q 603 811 632 788 q 533 835 574 835 q 463 810 493 835 q 433 743 433 786 q 463 677 433 701 q 533 653 493 653 z "},"ã":{"ha":961,"x_min":28,"x_max":933,"o":"m 360 -26 q 200 0 276 -26 q 76 78 124 26 q 28 201 28 129 q 101 340 28 292 q 274 389 175 389 q 386 369 335 389 l 388 371 q 302 429 331 397 q 274 496 274 461 q 332 576 274 546 q 482 607 390 607 q 691 569 586 607 q 865 456 796 532 q 933 268 933 379 l 933 1 l 739 1 l 739 268 q 689 435 739 368 q 565 532 639 501 q 418 563 492 563 q 331 544 363 563 q 299 496 299 526 q 340 416 299 451 q 464 333 381 381 q 590 253 544 296 q 636 144 636 210 q 555 19 636 65 q 360 -26 474 -26 m 457 17 q 572 51 525 17 q 618 146 618 85 q 581 244 618 200 q 490 315 543 289 q 392 346 436 342 q 353 349 364 349 q 256 317 292 349 q 221 226 221 286 q 256 115 221 163 q 345 42 290 68 q 457 17 400 17 m 710 671 q 597 684 657 671 q 442 724 538 697 q 354 747 396 738 q 292 757 313 757 q 244 744 263 757 q 225 690 225 732 l 208 690 q 256 803 208 761 q 381 844 304 844 q 466 833 415 844 q 589 803 517 822 q 767 765 722 765 q 839 844 839 765 l 854 844 q 815 724 854 776 q 710 671 775 671 z "},"æ":{"ha":1636,"x_min":28,"x_max":1606,"o":"m 360 -26 q 200 0 276 -26 q 76 78 124 26 q 28 201 28 129 q 101 340 28 292 q 274 389 175 389 q 386 369 335 389 l 388 371 q 301 426 328 397 q 274 488 274 454 q 331 575 274 543 q 482 607 389 607 q 670 577 578 607 q 822 486 763 547 q 980 575 879 543 q 1221 607 1081 607 q 1506 563 1406 607 q 1606 447 1606 519 q 1567 367 1606 401 q 1465 316 1529 333 q 1325 301 1400 299 l 1325 299 q 1515 244 1438 281 q 1592 144 1592 207 q 1539 56 1592 94 q 1399 -3 1486 18 q 1214 -25 1313 -25 q 902 55 1028 -25 q 749 296 776 135 q 682 440 735 379 q 558 532 629 501 q 421 563 488 563 q 331 542 364 563 q 299 486 299 522 q 340 414 299 449 q 464 333 381 379 q 590 253 544 296 q 636 144 636 210 q 555 19 636 65 q 360 -26 474 -26 m 1157 318 q 1340 355 1269 318 q 1411 468 1411 392 q 1356 554 1411 519 q 1210 589 1301 589 q 1076 561 1139 589 q 974 474 1014 533 q 932 329 933 415 l 1006 325 q 1157 318 1126 318 m 457 17 q 572 51 525 17 q 618 146 618 85 q 581 244 618 200 q 490 315 543 289 q 392 346 436 342 q 353 349 364 349 q 256 317 292 349 q 221 226 221 286 q 256 115 221 163 q 345 42 290 68 q 457 17 400 17 m 1317 22 q 1497 56 1422 22 q 1572 143 1572 89 q 932 307 1572 303 q 988 149 932 214 q 1133 53 1044 85 q 1317 22 1221 22 z "},"b":{"ha":982,"x_min":56,"x_max":954,"o":"m 399 -15 q 56 15 243 -15 l 56 875 l 250 875 l 250 554 q 550 608 408 608 q 757 575 665 608 q 901 478 849 542 q 954 326 954 415 q 803 67 954 150 q 399 -15 653 -15 m 392 4 q 599 49 517 4 q 721 164 682 93 q 760 315 760 235 q 682 508 760 438 q 476 579 604 579 q 250 528 369 579 l 250 18 q 392 4 321 4 z "},"c":{"ha":942,"x_min":28,"x_max":928,"o":"m 553 -24 q 176 57 325 -24 q 28 301 28 138 q 108 475 28 406 q 318 578 188 544 q 604 611 449 611 q 875 583 725 611 l 893 468 q 719 556 811 526 q 542 586 628 586 q 310 515 400 586 q 221 306 221 443 q 267 136 221 206 q 390 33 314 67 q 557 -1 467 -1 q 731 31 644 -1 q 881 126 817 64 l 928 29 q 553 -24 749 -24 z "},"ć":{"ha":942,"x_min":28,"x_max":928,"o":"m 553 -24 q 176 57 325 -24 q 28 301 28 138 q 108 475 28 406 q 318 578 188 544 q 604 611 449 611 q 875 583 725 611 l 893 468 q 719 556 811 526 q 542 586 628 586 q 310 515 400 586 q 221 306 221 443 q 267 136 221 206 q 390 33 314 67 q 557 -1 467 -1 q 731 31 644 -1 q 881 126 817 64 l 928 29 q 553 -24 749 -24 m 256 665 q 401 701 325 668 q 543 789 478 735 q 646 906 608 843 l 754 806 q 539 698 668 740 q 256 654 410 656 l 256 665 z "},"č":{"ha":942,"x_min":28,"x_max":928,"o":"m 553 -24 q 176 57 325 -24 q 28 301 28 138 q 108 475 28 406 q 318 578 188 544 q 604 611 449 611 q 875 583 725 611 l 893 468 q 719 556 811 526 q 542 586 628 586 q 310 515 400 586 q 221 306 221 443 q 267 136 221 206 q 390 33 314 67 q 557 -1 467 -1 q 731 31 644 -1 q 881 126 817 64 l 928 29 q 553 -24 749 -24 z "},"ç":{"ha":942,"x_min":28,"x_max":928,"o":"m 553 -24 q 176 57 325 -24 q 28 301 28 138 q 108 475 28 406 q 318 578 188 544 q 604 611 449 611 q 875 583 725 611 l 893 468 q 719 556 811 526 q 542 586 628 586 q 310 515 400 586 q 221 306 221 443 q 267 136 221 206 q 390 33 314 67 q 557 -1 467 -1 q 731 31 644 -1 q 881 126 817 64 l 928 29 q 553 -24 749 -24 m 543 -360 q 382 -336 457 -360 l 382 -317 q 488 -331 438 -331 q 607 -299 564 -331 q 650 -222 650 -267 q 617 -158 650 -182 q 531 -135 585 -135 q 479 -140 503 -135 l 479 -111 l 532 -24 l 554 -24 l 533 -78 q 572 -76 547 -76 q 732 -111 672 -76 q 792 -199 792 -146 q 761 -278 792 -240 q 674 -337 731 -315 q 543 -360 618 -360 z "},"ċ":{"ha":942,"x_min":28,"x_max":928,"o":"m 553 -24 q 176 57 325 -24 q 28 301 28 138 q 108 475 28 406 q 318 578 188 544 q 604 611 449 611 q 875 583 725 611 l 893 468 q 719 556 811 526 q 542 586 628 586 q 310 515 400 586 q 221 306 221 443 q 267 136 221 206 q 390 33 314 67 q 557 -1 467 -1 q 731 31 644 -1 q 881 126 817 64 l 928 29 q 553 -24 749 -24 m 506 690 q 417 718 453 690 q 382 786 382 746 q 417 853 382 826 q 506 881 453 881 q 594 853 558 881 q 629 786 629 826 q 594 718 629 746 q 506 690 558 690 z "},"d":{"ha":983,"x_min":28,"x_max":928,"o":"m 522 -24 q 273 12 385 -24 q 94 120 161 47 q 28 300 28 193 q 140 527 28 450 q 439 604 251 604 q 733 561 574 604 l 733 875 l 928 875 l 928 39 q 522 -24 729 -24 m 567 -3 q 733 22 649 -3 l 733 536 q 522 574 624 574 q 302 502 381 574 q 224 317 224 431 q 263 160 224 233 q 379 42 301 88 q 567 -3 457 -3 z "},"ð":{"ha":899,"x_min":28,"x_max":871,"o":"m 400 -26 q 215 8 300 -26 q 79 112 131 43 q 28 278 28 181 q 83 457 28 383 q 224 568 138 531 q 407 606 311 606 q 572 571 499 606 q 679 472 646 536 l 682 472 q 629 642 672 568 q 517 764 586 715 l 440 704 l 422 721 l 496 778 q 208 849 376 849 l 208 875 q 546 815 388 882 l 639 888 l 656 871 l 571 804 q 789 631 707 740 q 871 383 871 521 q 802 160 871 253 q 626 21 733 68 q 400 -26 518 -26 m 421 -7 q 544 33 485 -7 q 641 152 603 74 q 682 338 679 231 q 655 459 683 408 q 578 535 626 510 q 475 561 531 561 q 353 526 411 561 q 259 420 296 490 q 222 250 222 350 q 249 109 222 167 q 322 22 276 51 q 421 -7 367 -7 z "},"ď":{"ha":1256,"x_min":56,"x_max":1200,"o":"m 550 -24 q 301 12 413 -24 q 122 120 189 47 q 56 300 56 193 q 167 527 56 450 q 467 604 279 604 q 761 561 601 604 l 761 875 l 956 875 l 956 39 q 550 -24 757 -24 m 1104 607 l 1058 607 l 1058 875 l 1200 875 l 1104 607 m 594 -3 q 761 22 676 -3 l 761 536 q 550 574 651 574 q 330 502 408 574 q 251 317 251 431 q 290 160 251 233 q 407 42 329 88 q 594 -3 485 -3 z "},"đ":{"ha":983,"x_min":28,"x_max":982,"o":"m 982 717 l 982 694 l 928 694 l 928 39 q 522 -24 729 -24 q 273 12 385 -24 q 94 120 161 47 q 28 300 28 193 q 140 527 28 450 q 439 604 251 604 q 733 561 574 604 l 733 694 l 596 694 l 596 717 l 733 717 l 733 875 l 928 875 l 928 717 l 982 717 m 733 536 q 522 574 624 574 q 302 502 381 574 q 224 317 224 431 q 263 160 224 233 q 379 42 301 88 q 567 -3 457 -3 q 733 22 649 -3 l 733 536 z "},"e":{"ha":926,"x_min":28,"x_max":896,"o":"m 504 -25 q 279 10 388 -25 q 99 122 171 44 q 28 319 28 200 q 84 471 28 406 q 249 572 140 536 q 511 607 357 607 q 796 563 696 607 q 896 447 896 519 q 858 367 896 401 q 755 316 819 333 q 615 301 690 299 l 615 299 q 805 244 728 281 q 882 144 882 207 q 829 56 882 94 q 690 -3 776 18 q 504 -25 603 -25 m 447 318 q 631 355 560 318 q 701 468 701 392 q 647 554 701 519 q 500 589 592 589 q 367 561 429 589 q 264 474 304 533 q 222 329 224 415 l 296 325 q 447 318 418 318 m 607 22 q 788 56 713 22 q 863 143 863 89 q 222 307 863 303 q 278 149 222 213 q 423 53 335 85 q 607 22 511 22 z "},"é":{"ha":926,"x_min":28,"x_max":896,"o":"m 504 -25 q 279 10 388 -25 q 99 122 171 44 q 28 319 28 200 q 84 471 28 406 q 249 572 140 536 q 511 607 357 607 q 796 563 696 607 q 896 447 896 519 q 858 367 896 401 q 755 316 819 333 q 615 301 690 299 l 615 299 q 805 244 728 281 q 882 144 882 207 q 829 56 882 94 q 690 -3 776 18 q 504 -25 603 -25 m 447 318 q 631 355 560 318 q 701 468 701 392 q 647 554 701 519 q 500 589 592 589 q 367 561 429 589 q 264 474 304 533 q 222 329 224 415 l 296 325 q 447 318 418 318 m 607 22 q 788 56 713 22 q 863 143 863 89 q 222 307 863 303 q 278 149 222 213 q 423 53 335 85 q 607 22 511 22 m 214 663 q 360 699 283 665 q 501 786 436 732 q 604 903 567 840 l 713 803 q 497 695 626 738 q 214 651 368 653 l 214 663 z "},"ě":{"ha":926,"x_min":28,"x_max":896,"o":"m 504 -25 q 279 10 388 -25 q 99 122 171 44 q 28 319 28 200 q 84 471 28 406 q 249 572 140 536 q 511 607 357 607 q 796 563 696 607 q 896 447 896 519 q 858 367 896 401 q 755 316 819 333 q 615 301 690 299 l 615 299 q 805 244 728 281 q 882 144 882 207 q 829 56 882 94 q 690 -3 776 18 q 504 -25 603 -25 m 447 318 q 631 355 560 318 q 701 468 701 392 q 647 554 701 519 q 500 589 592 589 q 367 561 429 589 q 264 474 304 533 q 222 329 224 415 l 296 325 q 447 318 418 318 m 607 22 q 788 56 713 22 q 863 143 863 89 q 222 307 863 303 q 278 149 222 213 q 423 53 335 85 q 607 22 511 22 z "},"ê":{"ha":926,"x_min":28,"x_max":896,"o":"m 504 -25 q 279 10 388 -25 q 99 122 171 44 q 28 319 28 200 q 84 471 28 406 q 249 572 140 536 q 511 607 357 607 q 796 563 696 607 q 896 447 896 519 q 858 367 896 401 q 755 316 819 333 q 615 301 690 299 l 615 299 q 805 244 728 281 q 882 144 882 207 q 829 56 882 94 q 690 -3 776 18 q 504 -25 603 -25 m 447 318 q 631 355 560 318 q 701 468 701 392 q 647 554 701 519 q 500 589 592 589 q 367 561 429 589 q 264 474 304 533 q 222 329 224 415 l 296 325 q 447 318 418 318 m 607 22 q 788 56 713 22 q 863 143 863 89 q 222 307 863 303 q 278 149 222 213 q 423 53 335 85 q 607 22 511 22 m 463 824 l 254 676 l 167 736 l 463 842 l 761 736 l 668 676 l 463 824 z "},"ë":{"ha":926,"x_min":28,"x_max":896,"o":"m 504 -25 q 279 10 388 -25 q 99 122 171 44 q 28 319 28 200 q 84 471 28 406 q 249 572 140 536 q 511 607 357 607 q 796 563 696 607 q 896 447 896 519 q 858 367 896 401 q 755 316 819 333 q 615 301 690 299 l 615 299 q 805 244 728 281 q 882 144 882 207 q 829 56 882 94 q 690 -3 776 18 q 504 -25 603 -25 m 447 318 q 631 355 560 318 q 701 468 701 392 q 647 554 701 519 q 500 589 592 589 q 367 561 429 589 q 264 474 304 533 q 222 329 224 415 l 296 325 q 447 318 418 318 m 607 22 q 788 56 713 22 q 863 143 863 89 q 222 307 863 303 q 278 149 222 213 q 423 53 335 85 q 607 22 511 22 m 354 682 q 294 703 319 682 q 268 753 268 724 q 294 803 268 782 q 354 825 321 825 q 418 804 392 825 q 444 753 444 783 q 419 702 444 722 q 354 682 393 682 m 576 682 q 512 702 539 682 q 485 753 485 722 q 512 804 485 783 q 576 825 539 825 q 636 803 610 825 q 663 753 663 782 q 637 703 663 724 q 576 682 611 682 z "},"ė":{"ha":926,"x_min":28,"x_max":896,"o":"m 504 -25 q 279 10 388 -25 q 99 122 171 44 q 28 319 28 200 q 84 471 28 406 q 249 572 140 536 q 511 607 357 607 q 796 563 696 607 q 896 447 896 519 q 858 367 896 401 q 755 316 819 333 q 615 301 690 299 l 615 299 q 805 244 728 281 q 882 144 882 207 q 829 56 882 94 q 690 -3 776 18 q 504 -25 603 -25 m 447 318 q 631 355 560 318 q 701 468 701 392 q 647 554 701 519 q 500 589 592 589 q 367 561 429 589 q 264 474 304 533 q 222 329 224 415 l 296 325 q 447 318 418 318 m 607 22 q 788 56 713 22 q 863 143 863 89 q 222 307 863 303 q 278 149 222 213 q 423 53 335 85 q 607 22 511 22 m 463 688 q 374 715 410 688 q 339 783 339 743 q 374 851 339 824 q 463 878 410 878 q 551 851 515 878 q 586 783 586 824 q 551 715 586 743 q 463 688 515 688 z "},"è":{"ha":926,"x_min":28,"x_max":896,"o":"m 504 -25 q 279 10 388 -25 q 99 122 171 44 q 28 319 28 200 q 84 471 28 406 q 249 572 140 536 q 511 607 357 607 q 796 563 696 607 q 896 447 896 519 q 858 367 896 401 q 755 316 819 333 q 615 301 690 299 l 615 299 q 805 244 728 281 q 882 144 882 207 q 829 56 882 94 q 690 -3 776 18 q 504 -25 603 -25 m 447 318 q 631 355 560 318 q 701 468 701 392 q 647 554 701 519 q 500 589 592 589 q 367 561 429 589 q 264 474 304 533 q 222 329 224 415 l 296 325 q 447 318 418 318 m 607 22 q 788 56 713 22 q 863 143 863 89 q 222 307 863 303 q 278 149 222 213 q 423 53 335 85 q 607 22 511 22 m 713 651 q 430 695 558 653 q 215 803 301 738 l 322 903 q 425 786 360 840 q 567 699 490 732 q 713 663 643 665 l 713 651 z "},"ē":{"ha":926,"x_min":28,"x_max":896,"o":"m 504 -25 q 279 10 388 -25 q 99 122 171 44 q 28 319 28 200 q 84 471 28 406 q 249 572 140 536 q 511 607 357 607 q 796 563 696 607 q 896 447 896 519 q 858 367 896 401 q 755 316 819 333 q 615 301 690 299 l 615 299 q 805 244 728 281 q 882 144 882 207 q 829 56 882 94 q 690 -3 776 18 q 504 -25 603 -25 m 447 318 q 631 355 560 318 q 701 468 701 392 q 647 554 701 519 q 500 589 592 589 q 367 561 429 589 q 264 474 304 533 q 222 329 224 415 l 296 325 q 447 318 418 318 m 607 22 q 788 56 713 22 q 863 143 863 89 q 222 307 863 303 q 278 149 222 213 q 423 53 335 85 q 607 22 511 22 m 689 738 l 238 738 l 238 760 l 689 760 l 689 738 z "},"ę":{"ha":926,"x_min":28,"x_max":896,"o":"m 615 299 q 805 244 728 281 q 882 144 882 207 q 829 56 882 94 q 690 -3 776 18 q 504 -25 603 -25 l 497 -25 q 328 -51 388 -25 q 269 -114 269 -78 q 314 -169 269 -146 q 426 -193 358 -193 q 513 -179 474 -193 q 571 -137 553 -165 l 581 -137 q 478 -244 558 -206 q 308 -282 399 -282 q 180 -254 228 -282 q 132 -178 132 -226 q 203 -83 132 -128 q 390 -17 274 -39 q 132 90 236 7 q 28 319 28 172 q 84 471 28 406 q 249 572 140 536 q 511 607 357 607 q 796 563 696 607 q 896 447 896 519 q 858 367 896 401 q 755 316 819 333 q 615 301 690 299 l 615 299 m 500 589 q 367 561 429 589 q 264 474 304 533 q 222 329 224 415 l 296 325 q 447 318 418 318 q 631 355 560 318 q 701 468 701 392 q 647 554 701 519 q 500 589 592 589 m 607 22 q 788 56 713 22 q 863 143 863 89 q 222 307 863 303 q 278 149 222 213 q 423 53 335 85 q 607 22 511 22 z "},"f":{"ha":569,"x_min":-118,"x_max":733,"o":"m -118 -187 q 103 -68 29 -175 q 178 196 178 39 l 178 561 l 32 561 l 32 583 l 178 583 q 372 831 179 760 q 733 875 499 875 l 733 733 q 485 824 574 824 q 340 708 340 824 q 372 583 340 660 l 571 583 l 571 561 l 372 561 l 372 196 q 289 -24 372 63 q 95 -152 206 -110 q -118 -210 -15 -194 l -118 -187 z "},"g":{"ha":953,"x_min":28,"x_max":925,"o":"m 326 -267 q 67 -237 189 -267 l 67 -74 q 287 -181 168 -140 q 504 -222 406 -222 q 669 -177 608 -222 q 731 -39 731 -132 l 731 42 q 583 -2 661 14 q 429 -18 504 -18 q 217 22 308 -18 q 77 131 126 61 q 28 292 28 201 q 172 533 28 458 q 551 607 315 607 q 925 572 719 607 l 925 88 q 847 -108 925 -28 q 633 -227 768 -187 q 326 -267 497 -267 m 535 25 q 638 38 586 25 q 731 72 689 50 l 731 560 q 578 579 653 579 q 400 547 481 579 q 271 451 319 515 q 222 296 222 386 q 261 155 222 217 q 371 59 300 93 q 535 25 442 25 z "},"ğ":{"ha":953,"x_min":28,"x_max":925,"o":"m 326 -267 q 67 -237 189 -267 l 67 -74 q 287 -181 168 -140 q 504 -222 406 -222 q 669 -177 608 -222 q 731 -39 731 -132 l 731 42 q 583 -2 661 14 q 429 -18 504 -18 q 217 22 308 -18 q 77 131 126 61 q 28 292 28 201 q 172 533 28 458 q 551 607 315 607 q 925 572 719 607 l 925 88 q 847 -108 925 -28 q 633 -227 768 -187 q 326 -267 497 -267 m 535 25 q 638 38 586 25 q 731 72 689 50 l 731 560 q 578 579 653 579 q 400 547 481 579 q 271 451 319 515 q 222 296 222 386 q 261 155 222 217 q 371 59 300 93 q 535 25 442 25 m 521 656 q 365 699 428 656 q 303 824 303 743 q 307 863 303 842 l 318 863 q 379 785 318 811 q 528 758 440 758 q 673 785 614 758 q 732 863 732 811 l 743 863 q 744 833 744 853 q 680 701 744 747 q 521 656 615 656 z "},"ģ":{"ha":953,"x_min":28,"x_max":925,"o":"m 326 -267 q 67 -237 189 -267 l 67 -74 q 287 -181 168 -140 q 504 -222 406 -222 q 669 -177 608 -222 q 731 -39 731 -132 l 731 42 q 583 -2 661 14 q 429 -18 504 -18 q 217 22 308 -18 q 77 131 126 61 q 28 292 28 201 q 172 533 28 458 q 551 607 315 607 q 925 572 719 607 l 925 88 q 847 -108 925 -28 q 633 -227 768 -187 q 326 -267 497 -267 m 535 25 q 638 38 586 25 q 731 72 689 50 l 731 560 q 578 579 653 579 q 400 547 481 579 q 271 451 319 515 q 222 296 222 386 q 261 155 222 217 q 371 59 300 93 q 535 25 442 25 m 393 647 q 458 776 401 725 q 584 851 514 828 q 701 871 654 874 l 701 849 q 613 793 647 842 q 579 647 579 744 l 393 647 z "},"ġ":{"ha":953,"x_min":28,"x_max":925,"o":"m 326 -267 q 67 -237 189 -267 l 67 -74 q 287 -181 168 -140 q 504 -222 406 -222 q 669 -177 608 -222 q 731 -39 731 -132 l 731 42 q 583 -2 661 14 q 429 -18 504 -18 q 217 22 308 -18 q 77 131 126 61 q 28 292 28 201 q 172 533 28 458 q 551 607 315 607 q 925 572 719 607 l 925 88 q 847 -108 925 -28 q 633 -227 768 -187 q 326 -267 497 -267 m 535 25 q 638 38 586 25 q 731 72 689 50 l 731 560 q 578 579 653 579 q 400 547 481 579 q 271 451 319 515 q 222 296 222 386 q 261 155 222 217 q 371 59 300 93 q 535 25 442 25 m 524 688 q 435 715 471 688 q 400 783 400 743 q 435 851 400 824 q 524 878 471 878 q 612 851 576 878 q 647 783 647 824 q 612 715 647 743 q 524 688 576 688 z "},"h":{"ha":994,"x_min":56,"x_max":939,"o":"m 56 -4 l 56 875 l 250 875 l 250 467 l 253 467 q 427 569 325 533 q 632 606 529 606 q 852 549 765 606 q 939 382 939 492 l 939 0 l 744 0 l 744 403 q 686 527 744 483 q 539 571 628 571 q 367 526 450 571 q 250 404 285 482 l 250 -4 l 56 -4 z "},"ħ":{"ha":994,"x_min":-14,"x_max":939,"o":"m 632 606 q 852 549 765 606 q 939 382 939 492 l 939 0 l 744 0 l 744 403 q 686 527 744 483 q 539 571 628 571 q 367 526 450 571 q 250 404 285 482 l 250 -4 l 56 -4 l 56 739 l -14 739 l -14 761 l 56 761 l 56 875 l 250 875 l 250 761 l 342 761 l 342 739 l 250 739 l 250 467 l 253 467 q 427 569 325 533 q 632 606 529 606 z "},"i":{"ha":326,"x_min":56,"x_max":271,"o":"m 165 644 q 88 674 119 644 q 56 746 56 704 q 88 817 56 788 q 165 847 119 847 q 240 817 208 847 q 271 746 271 788 q 240 674 271 704 q 165 644 208 644 m 260 -6 l 65 -6 l 65 583 l 260 583 l 260 -6 z "},"ı":{"ha":306,"x_min":56,"x_max":250,"o":"m 250 -6 l 56 -6 l 56 583 l 250 583 l 250 -6 z "},"í":{"ha":306,"x_min":-97,"x_max":401,"o":"m 250 -6 l 56 -6 l 56 583 l 250 583 l 250 -6 m -97 663 q 49 699 -28 665 q 190 786 125 732 q 293 903 256 840 l 401 803 q 186 695 315 738 q -97 651 57 653 l -97 663 z "},"î":{"ha":306,"x_min":-143,"x_max":451,"o":"m 250 -6 l 56 -6 l 56 583 l 250 583 l 250 -6 m 153 824 l -56 676 l -143 736 l 153 842 l 451 736 l 358 676 l 153 824 z "},"ï":{"ha":306,"x_min":-42,"x_max":353,"o":"m 250 -6 l 56 -6 l 56 583 l 250 583 l 250 -6 m 44 682 q -16 703 10 682 q -42 753 -42 724 q -15 803 -42 782 q 44 825 11 825 q 108 804 82 825 q 135 753 135 783 q 109 702 135 722 q 44 682 83 682 m 267 682 q 202 702 229 682 q 175 753 175 722 q 202 804 175 783 q 267 825 229 825 q 326 803 300 825 q 353 753 353 782 q 327 703 353 724 q 267 682 301 682 z "},"ì":{"ha":306,"x_min":-96,"x_max":401,"o":"m 250 -6 l 56 -6 l 56 583 l 250 583 l 250 -6 m 401 651 q 119 695 247 653 q -96 803 -10 738 l 11 903 q 114 786 49 840 q 256 699 179 732 q 401 663 332 665 l 401 651 z "},"ī":{"ha":306,"x_min":-72,"x_max":379,"o":"m 250 -6 l 56 -6 l 56 583 l 250 583 l 250 -6 m 379 738 l -72 738 l -72 760 l 379 760 l 379 738 z "},"į":{"ha":306,"x_min":-122,"x_max":326,"o":"m 153 688 q 65 715 100 688 q 29 783 29 743 q 65 851 29 824 q 153 878 100 878 q 241 851 206 878 q 276 783 276 824 q 241 715 276 743 q 153 688 206 688 m 326 -118 q 224 -224 304 -186 q 54 -262 144 -262 q -74 -235 -26 -262 q -122 -158 -122 -207 q -63 -71 -122 -112 q 94 -6 -4 -29 l 56 -6 l 56 583 l 250 583 l 250 -6 l 236 -6 q 73 -33 131 -7 q 15 -94 15 -60 q 60 -150 15 -126 q 172 -174 104 -174 q 259 -160 219 -174 q 317 -118 299 -146 l 326 -118 z "},"j":{"ha":436,"x_min":-314,"x_max":381,"o":"m 275 644 q 197 674 229 644 q 165 746 165 704 q 197 817 165 788 q 275 847 229 847 q 349 817 318 847 q 381 746 381 788 q 349 674 381 704 q 275 644 318 644 m -314 -150 q -31 -217 -136 -217 q 124 -156 75 -217 q 172 26 172 -94 l 172 583 l 367 583 l 367 129 q 226 -165 367 -64 q -217 -267 86 -267 q -297 -265 -269 -267 l -314 -150 z "},"k":{"ha":944,"x_min":56,"x_max":935,"o":"m 56 0 l 56 875 l 250 875 l 250 329 l 253 329 q 831 610 567 610 q 886 607 868 610 l 886 481 q 694 526 796 526 q 394 426 540 526 l 396 424 q 543 458 474 458 q 663 422 613 458 q 749 330 714 385 q 838 174 785 275 q 935 0 894 64 l 740 0 q 653 171 700 67 q 589 299 615 254 q 526 374 563 344 q 436 404 489 404 q 348 379 390 404 q 250 303 306 354 l 250 0 l 56 0 z "},"ķ":{"ha":944,"x_min":56,"x_max":935,"o":"m 56 0 l 56 875 l 250 875 l 250 329 l 253 329 q 831 610 567 610 q 886 607 868 610 l 886 481 q 694 526 796 526 q 394 426 540 526 l 396 424 q 543 458 474 458 q 663 422 613 458 q 749 330 714 385 q 838 174 785 275 q 935 0 894 64 l 740 0 q 653 171 700 67 q 589 299 615 254 q 526 374 563 344 q 436 404 489 404 q 348 379 390 404 q 250 303 306 354 l 250 0 l 56 0 z "},"l":{"ha":306,"x_min":56,"x_max":250,"o":"m 250 0 l 56 0 l 56 875 l 250 875 l 250 0 z "},"ĺ":{"ha":306,"x_min":-97,"x_max":401,"o":"m 250 0 l 56 0 l 56 875 l 250 875 l 250 0 m -97 954 q 49 990 -28 957 q 190 1078 125 1024 q 293 1194 256 1132 l 401 1094 q 186 987 315 1029 q -97 943 57 944 l -97 954 z "},"ľ":{"ha":538,"x_min":56,"x_max":482,"o":"m 250 0 l 56 0 l 56 875 l 250 875 l 250 0 m 386 607 l 339 607 l 339 875 l 482 875 l 386 607 z "},"ļ":{"ha":306,"x_min":32,"x_max":276,"o":"m 250 0 l 56 0 l 56 875 l 250 875 l 250 0 z "},"ł":{"ha":393,"x_min":24,"x_max":367,"o":"m 297 464 l 367 492 l 367 468 l 297 440 l 297 0 l 103 0 l 103 363 l 24 331 l 24 353 l 103 385 l 103 875 l 297 875 l 297 464 z "},"m":{"ha":1447,"x_min":56,"x_max":1392,"o":"m 56 -6 l 56 583 l 250 583 l 250 492 l 253 492 q 381 578 300 547 q 549 608 461 608 q 723 568 650 608 q 811 451 796 528 l 814 451 q 939 567 856 526 q 1117 607 1022 607 q 1313 552 1233 607 q 1392 400 1392 497 l 1392 0 l 1197 0 l 1197 417 q 1156 528 1197 492 q 1042 564 1114 564 q 935 538 988 564 q 849 465 882 513 q 815 357 815 418 l 815 0 l 621 0 l 621 417 q 575 533 621 494 q 457 571 529 571 q 358 549 406 571 q 280 488 310 528 q 250 396 250 449 l 250 -6 l 56 -6 z "},"n":{"ha":994,"x_min":56,"x_max":939,"o":"m 56 -6 l 56 583 l 250 583 l 250 476 l 253 476 q 424 572 325 539 q 624 606 524 606 q 849 545 760 606 q 939 369 939 485 l 939 0 l 744 0 l 744 400 q 690 524 744 482 q 549 567 635 567 q 371 525 457 567 q 250 417 285 483 l 250 -6 l 56 -6 z "},"ń":{"ha":994,"x_min":56,"x_max":939,"o":"m 56 -6 l 56 583 l 250 583 l 250 476 l 253 476 q 424 572 325 539 q 624 606 524 606 q 849 545 760 606 q 939 369 939 485 l 939 0 l 744 0 l 744 400 q 690 524 744 482 q 549 567 635 567 q 371 525 457 567 q 250 417 285 483 l 250 -6 l 56 -6 m 247 663 q 393 699 317 665 q 535 786 469 732 q 638 903 600 840 l 746 803 q 531 695 660 738 q 247 651 401 653 l 247 663 z "},"ň":{"ha":994,"x_min":56,"x_max":939,"o":"m 56 -6 l 56 583 l 250 583 l 250 476 l 253 476 q 424 572 325 539 q 624 606 524 606 q 849 545 760 606 q 939 369 939 485 l 939 0 l 744 0 l 744 400 q 690 524 744 482 q 549 567 635 567 q 371 525 457 567 q 250 417 285 483 l 250 -6 l 56 -6 z "},"ņ":{"ha":994,"x_min":56,"x_max":939,"o":"m 56 -6 l 56 583 l 250 583 l 250 476 l 253 476 q 424 572 325 539 q 624 606 524 606 q 849 545 760 606 q 939 369 939 485 l 939 0 l 744 0 l 744 400 q 690 524 744 482 q 549 567 635 567 q 371 525 457 567 q 250 417 285 483 l 250 -6 l 56 -6 z "},"ŋ":{"ha":994,"x_min":56,"x_max":939,"o":"m 624 606 q 849 545 760 606 q 939 369 939 485 l 939 0 q 892 -141 939 -83 q 767 -226 844 -199 q 600 -246 689 -253 l 600 -224 q 709 -158 674 -218 q 744 0 744 -97 l 744 400 q 690 524 744 482 q 549 567 635 567 q 371 525 457 567 q 250 417 285 483 l 250 -6 l 56 -6 l 56 583 l 250 583 l 250 476 l 253 476 q 424 572 325 539 q 624 606 524 606 z "},"ñ":{"ha":994,"x_min":56,"x_max":939,"o":"m 56 -6 l 56 583 l 250 583 l 250 476 l 253 476 q 424 572 325 539 q 624 606 524 606 q 849 545 760 606 q 939 369 939 485 l 939 0 l 744 0 l 744 400 q 690 524 744 482 q 549 567 635 567 q 371 525 457 567 q 250 417 285 483 l 250 -6 l 56 -6 m 675 671 q 563 684 622 671 q 407 724 503 697 q 319 747 361 738 q 257 757 278 757 q 209 744 228 757 q 190 690 190 732 l 174 690 q 222 803 174 761 q 346 844 269 844 q 431 833 381 844 q 554 803 482 822 q 732 765 688 765 q 804 844 804 765 l 819 844 q 780 724 819 776 q 675 671 740 671 z "},"o":{"ha":1006,"x_min":28,"x_max":978,"o":"m 508 -24 q 274 14 385 -24 q 96 126 164 51 q 28 304 28 200 q 94 470 28 401 q 267 574 160 539 q 496 608 374 608 q 730 573 619 608 q 909 467 840 538 q 978 297 978 396 q 912 122 978 194 q 738 13 846 49 q 508 -24 631 -24 m 546 -3 q 667 24 611 -3 q 758 105 724 51 q 792 233 792 158 q 745 410 792 329 q 622 537 699 490 q 456 583 544 583 q 335 556 390 583 q 247 476 281 529 q 214 346 214 422 q 260 169 214 250 q 382 43 306 89 q 546 -3 458 -3 z "},"ó":{"ha":1006,"x_min":28,"x_max":978,"o":"m 508 -24 q 274 14 385 -24 q 96 126 164 51 q 28 304 28 200 q 94 470 28 401 q 267 574 160 539 q 496 608 374 608 q 730 573 619 608 q 909 467 840 538 q 978 297 978 396 q 912 122 978 194 q 738 13 846 49 q 508 -24 631 -24 m 546 -3 q 667 24 611 -3 q 758 105 724 51 q 792 233 792 158 q 745 410 792 329 q 622 537 699 490 q 456 583 544 583 q 335 556 390 583 q 247 476 281 529 q 214 346 214 422 q 260 169 214 250 q 382 43 306 89 q 546 -3 458 -3 m 253 663 q 399 699 322 665 q 540 786 475 732 q 643 903 606 840 l 751 803 q 536 695 665 738 q 253 651 407 653 l 253 663 z "},"ô":{"ha":1006,"x_min":28,"x_max":978,"o":"m 508 -24 q 274 14 385 -24 q 96 126 164 51 q 28 304 28 200 q 94 470 28 401 q 267 574 160 539 q 496 608 374 608 q 730 573 619 608 q 909 467 840 538 q 978 297 978 396 q 912 122 978 194 q 738 13 846 49 q 508 -24 631 -24 m 546 -3 q 667 24 611 -3 q 758 105 724 51 q 792 233 792 158 q 745 410 792 329 q 622 537 699 490 q 456 583 544 583 q 335 556 390 583 q 247 476 281 529 q 214 346 214 422 q 260 169 214 250 q 382 43 306 89 q 546 -3 458 -3 m 503 824 l 294 676 l 207 736 l 503 842 l 801 736 l 708 676 l 503 824 z "},"ö":{"ha":1006,"x_min":28,"x_max":978,"o":"m 508 -24 q 274 14 385 -24 q 96 126 164 51 q 28 304 28 200 q 94 470 28 401 q 267 574 160 539 q 496 608 374 608 q 730 573 619 608 q 909 467 840 538 q 978 297 978 396 q 912 122 978 194 q 738 13 846 49 q 508 -24 631 -24 m 546 -3 q 667 24 611 -3 q 758 105 724 51 q 792 233 792 158 q 745 410 792 329 q 622 537 699 490 q 456 583 544 583 q 335 556 390 583 q 247 476 281 529 q 214 346 214 422 q 260 169 214 250 q 382 43 306 89 q 546 -3 458 -3 m 394 682 q 334 703 360 682 q 308 753 308 724 q 335 803 308 782 q 394 825 361 825 q 458 804 432 825 q 485 753 485 783 q 459 702 485 722 q 394 682 433 682 m 617 682 q 552 702 579 682 q 525 753 525 722 q 552 804 525 783 q 617 825 579 825 q 676 803 650 825 q 703 753 703 782 q 677 703 703 724 q 617 682 651 682 z "},"ò":{"ha":1006,"x_min":28,"x_max":978,"o":"m 508 -24 q 274 14 385 -24 q 96 126 164 51 q 28 304 28 200 q 94 470 28 401 q 267 574 160 539 q 496 608 374 608 q 730 573 619 608 q 909 467 840 538 q 978 297 978 396 q 912 122 978 194 q 738 13 846 49 q 508 -24 631 -24 m 546 -3 q 667 24 611 -3 q 758 105 724 51 q 792 233 792 158 q 745 410 792 329 q 622 537 699 490 q 456 583 544 583 q 335 556 390 583 q 247 476 281 529 q 214 346 214 422 q 260 169 214 250 q 382 43 306 89 q 546 -3 458 -3 m 751 651 q 469 695 597 653 q 254 803 340 738 l 361 903 q 464 786 399 840 q 606 699 529 732 q 751 663 682 665 l 751 651 z "},"ő":{"ha":1006,"x_min":28,"x_max":978,"o":"m 508 -24 q 274 14 385 -24 q 96 126 164 51 q 28 304 28 200 q 94 470 28 401 q 267 574 160 539 q 496 608 374 608 q 730 573 619 608 q 909 467 840 538 q 978 297 978 396 q 912 122 978 194 q 738 13 846 49 q 508 -24 631 -24 m 546 -3 q 667 24 611 -3 q 758 105 724 51 q 792 233 792 158 q 745 410 792 329 q 622 537 699 490 q 456 583 544 583 q 335 556 390 583 q 247 476 281 529 q 214 346 214 422 q 260 169 214 250 q 382 43 306 89 q 546 -3 458 -3 m 369 647 l 294 647 l 383 821 l 532 821 l 369 647 m 546 647 l 471 647 l 565 821 l 713 821 l 546 647 z "},"ō":{"ha":1006,"x_min":28,"x_max":978,"o":"m 508 -24 q 274 14 385 -24 q 96 126 164 51 q 28 304 28 200 q 94 470 28 401 q 267 574 160 539 q 496 608 374 608 q 730 573 619 608 q 909 467 840 538 q 978 297 978 396 q 912 122 978 194 q 738 13 846 49 q 508 -24 631 -24 m 546 -3 q 667 24 611 -3 q 758 105 724 51 q 792 233 792 158 q 745 410 792 329 q 622 537 699 490 q 456 583 544 583 q 335 556 390 583 q 247 476 281 529 q 214 346 214 422 q 260 169 214 250 q 382 43 306 89 q 546 -3 458 -3 m 729 738 l 278 738 l 278 760 l 729 760 l 729 738 z "},"ø":{"ha":1006,"x_min":28,"x_max":978,"o":"m 751 565 q 917 458 856 526 q 978 297 978 390 q 912 122 978 194 q 738 13 846 49 q 508 -24 631 -24 q 274 14 382 -24 l 124 -158 l 100 -158 l 256 21 q 90 133 151 61 q 28 304 28 206 q 94 470 28 401 q 267 574 160 539 q 496 608 374 608 q 733 572 621 608 l 881 742 l 904 742 l 751 565 m 214 346 q 242 206 214 271 q 318 93 269 142 l 671 500 q 571 562 626 540 q 456 583 515 583 q 335 556 390 583 q 247 476 281 529 q 214 346 214 422 m 546 -3 q 667 24 611 -3 q 758 105 724 51 q 792 233 792 158 q 763 374 792 308 q 685 489 735 440 l 331 81 q 431 19 375 40 q 546 -3 486 -3 z "},"õ":{"ha":1006,"x_min":28,"x_max":978,"o":"m 508 -24 q 274 14 385 -24 q 96 126 164 51 q 28 304 28 200 q 94 470 28 401 q 267 574 160 539 q 496 608 374 608 q 730 573 619 608 q 909 467 840 538 q 978 297 978 396 q 912 122 978 194 q 738 13 846 49 q 508 -24 631 -24 m 546 -3 q 667 24 611 -3 q 758 105 724 51 q 792 233 792 158 q 745 410 792 329 q 622 537 699 490 q 456 583 544 583 q 335 556 390 583 q 247 476 281 529 q 214 346 214 422 q 260 169 214 250 q 382 43 306 89 q 546 -3 458 -3 m 681 671 q 568 684 628 671 q 413 724 508 697 q 325 747 367 738 q 263 757 283 757 q 215 744 233 757 q 196 690 196 732 l 179 690 q 227 803 179 761 q 351 844 275 844 q 437 833 386 844 q 560 803 488 822 q 738 765 693 765 q 810 844 810 765 l 825 844 q 785 724 825 776 q 681 671 746 671 z "},"œ":{"ha":1689,"x_min":28,"x_max":1658,"o":"m 1378 299 q 1567 244 1490 281 q 1644 144 1644 207 q 1592 56 1644 94 q 1452 -3 1539 18 q 1267 -25 1365 -25 q 1058 5 1160 -25 q 886 97 956 35 q 721 8 821 39 q 508 -24 621 -24 q 274 14 385 -24 q 96 126 164 51 q 28 304 28 200 q 94 470 28 401 q 267 574 160 539 q 496 608 374 608 q 706 581 606 608 q 874 499 806 553 q 1036 579 935 551 q 1274 607 1138 607 q 1558 563 1458 607 q 1658 447 1658 519 q 1620 367 1658 401 q 1517 316 1582 333 q 1378 301 1453 299 l 1378 299 m 1263 589 q 1129 561 1192 589 q 1026 474 1067 533 q 985 329 986 415 l 1058 325 q 1210 318 1181 318 q 1393 355 1322 318 q 1464 468 1464 392 q 1409 554 1464 519 q 1263 589 1354 589 m 546 -3 q 667 24 611 -3 q 758 105 724 51 q 792 233 792 158 q 745 410 792 329 q 622 537 699 490 q 456 583 544 583 q 335 556 390 583 q 247 476 281 529 q 214 346 214 422 q 260 169 214 250 q 382 43 306 89 q 546 -3 458 -3 m 1369 22 q 1550 56 1475 22 q 1625 143 1625 89 q 985 307 1625 303 q 1041 149 985 213 q 1185 53 1097 85 q 1369 22 1274 22 z "},"p":{"ha":975,"x_min":56,"x_max":947,"o":"m 56 -290 l 56 585 l 250 585 l 250 539 l 253 539 q 416 584 343 568 q 569 600 489 600 q 844 523 742 600 q 947 311 947 446 q 894 135 947 210 q 745 19 840 60 q 529 -21 650 -21 q 250 29 390 -21 l 250 -290 l 56 -290 m 468 10 q 622 50 557 10 q 719 158 686 90 q 753 311 753 226 q 716 445 753 386 q 615 537 679 504 q 474 569 551 569 q 347 545 418 569 q 250 493 276 521 l 250 53 q 468 10 368 10 z "},"þ":{"ha":706,"x_min":56,"x_max":678,"o":"m 56 -290 l 56 875 l 250 875 l 250 526 l 253 526 q 338 585 289 565 q 438 606 386 606 q 558 575 503 606 q 645 480 613 544 q 678 319 678 415 q 646 135 678 213 q 557 15 614 57 q 426 -26 500 -26 q 250 29 344 -26 l 250 -290 l 56 -290 m 332 25 q 444 103 407 25 q 481 315 481 182 q 442 504 481 449 q 347 560 404 560 q 284 536 313 560 q 250 475 256 513 l 250 53 q 332 25 293 25 z "},"q":{"ha":975,"x_min":28,"x_max":919,"o":"m 919 -290 l 725 -290 l 725 29 q 446 -21 585 -21 q 230 19 325 -21 q 81 135 135 60 q 28 311 28 210 q 131 523 28 446 q 406 600 233 600 q 559 584 486 600 q 722 539 632 568 l 725 539 l 725 585 l 919 585 l 919 -290 m 507 10 q 725 53 607 10 l 725 493 q 628 545 699 521 q 503 569 557 569 q 360 537 424 569 q 259 445 296 504 q 222 311 222 386 q 256 158 222 226 q 353 50 289 90 q 507 10 418 10 z "},"r":{"ha":739,"x_min":56,"x_max":719,"o":"m 56 0 l 56 583 l 250 583 l 250 333 l 253 333 q 463 527 339 464 q 701 599 586 590 l 719 457 q 596 469 656 469 q 420 439 499 469 q 297 360 342 408 q 250 258 253 311 l 250 0 l 56 0 z "},"ŕ":{"ha":739,"x_min":56,"x_max":719,"o":"m 56 0 l 56 583 l 250 583 l 250 333 l 253 333 q 463 527 339 464 q 701 599 586 590 l 719 457 q 596 469 656 469 q 420 439 499 469 q 297 360 342 408 q 250 258 253 311 l 250 0 l 56 0 m 121 663 q 267 699 190 665 q 408 786 343 732 q 511 903 474 840 l 619 803 q 404 695 533 738 q 121 651 275 653 l 121 663 z "},"ř":{"ha":739,"x_min":56,"x_max":719,"o":"m 56 0 l 56 583 l 250 583 l 250 333 l 253 333 q 463 527 339 464 q 701 599 586 590 l 719 457 q 596 469 656 469 q 420 439 499 469 q 297 360 342 408 q 250 258 253 311 l 250 0 l 56 0 z "},"ŗ":{"ha":739,"x_min":56,"x_max":719,"o":"m 56 0 l 56 583 l 250 583 l 250 333 l 253 333 q 463 527 339 464 q 701 599 586 590 l 719 457 q 596 469 656 469 q 420 439 499 469 q 297 360 342 408 q 250 258 253 311 l 250 0 l 56 0 z "},"s":{"ha":829,"x_min":36,"x_max":807,"o":"m 333 -24 q 36 6 169 -24 l 75 133 q 269 53 136 90 q 501 17 401 17 q 619 35 575 17 q 664 92 664 53 q 593 167 664 132 q 389 247 522 203 q 199 315 265 289 q 85 374 133 340 q 36 446 36 408 q 161 569 36 529 q 464 608 286 608 q 774 582 632 608 l 738 456 q 544 541 669 504 q 326 578 419 578 q 222 566 263 578 q 181 532 181 554 q 238 476 181 503 q 421 408 294 450 q 456 397 436 404 q 637 333 565 361 q 758 265 708 304 q 807 179 807 226 q 672 27 807 78 q 333 -24 536 -24 z "},"ś":{"ha":829,"x_min":36,"x_max":807,"o":"m 333 -24 q 36 6 169 -24 l 75 133 q 269 53 136 90 q 501 17 401 17 q 619 35 575 17 q 664 92 664 53 q 593 167 664 132 q 389 247 522 203 q 199 315 265 289 q 85 374 133 340 q 36 446 36 408 q 161 569 36 529 q 464 608 286 608 q 774 582 632 608 l 738 456 q 544 541 669 504 q 326 578 419 578 q 222 566 263 578 q 181 532 181 554 q 238 476 181 503 q 421 408 294 450 q 456 397 436 404 q 637 333 565 361 q 758 265 708 304 q 807 179 807 226 q 672 27 807 78 q 333 -24 536 -24 m 165 663 q 311 699 235 665 q 453 786 388 732 q 556 903 518 840 l 664 803 q 449 695 578 738 q 165 651 319 653 l 165 663 z "},"š":{"ha":829,"x_min":36,"x_max":807,"o":"m 333 -24 q 36 6 169 -24 l 75 133 q 269 53 136 90 q 501 17 401 17 q 619 35 575 17 q 664 92 664 53 q 593 167 664 132 q 389 247 522 203 q 199 315 265 289 q 85 374 133 340 q 36 446 36 408 q 161 569 36 529 q 464 608 286 608 q 774 582 632 608 l 738 456 q 544 541 669 504 q 326 578 419 578 q 222 566 263 578 q 181 532 181 554 q 238 476 181 503 q 421 408 294 450 q 456 397 436 404 q 637 333 565 361 q 758 265 708 304 q 807 179 807 226 q 672 27 807 78 q 333 -24 536 -24 z "},"ş":{"ha":829,"x_min":36,"x_max":807,"o":"m 807 179 q 696 37 807 88 q 410 -22 585 -14 l 397 -54 q 436 -53 411 -53 q 596 -87 536 -53 q 656 -175 656 -122 q 625 -254 656 -217 q 538 -314 594 -292 q 407 -336 482 -336 q 246 -312 321 -336 l 246 -293 q 351 -307 301 -307 q 471 -275 428 -307 q 514 -199 514 -243 q 481 -135 514 -158 q 394 -111 449 -111 q 343 -117 367 -111 l 343 -87 l 382 -22 q 333 -24 365 -24 q 36 6 169 -24 l 75 133 q 269 53 136 90 q 501 17 401 17 q 619 35 575 17 q 664 92 664 53 q 593 167 664 132 q 389 247 522 203 q 199 315 265 289 q 85 374 133 340 q 36 446 36 408 q 161 569 36 529 q 464 608 286 608 q 774 582 632 608 l 738 456 q 544 541 669 504 q 326 578 419 578 q 222 566 263 578 q 181 532 181 554 q 238 476 181 503 q 421 408 294 450 q 456 397 436 404 q 637 333 565 361 q 758 265 708 304 q 807 179 807 226 z "},"ș":{"ha":829,"x_min":36,"x_max":807,"o":"m 333 -24 q 36 6 169 -24 l 75 133 q 269 53 136 90 q 501 17 401 17 q 619 35 575 17 q 664 92 664 53 q 593 167 664 132 q 389 247 522 203 q 199 315 265 289 q 85 374 133 340 q 36 446 36 408 q 161 569 36 529 q 464 608 286 608 q 774 582 632 608 l 738 456 q 544 541 669 504 q 326 578 419 578 q 222 566 263 578 q 181 532 181 554 q 238 476 181 503 q 421 408 294 450 q 456 397 436 404 q 637 333 565 361 q 758 265 708 304 q 807 179 807 226 q 672 27 807 78 q 333 -24 536 -24 z "},"ß":{"ha":1174,"x_min":56,"x_max":1118,"o":"m 678 -17 q 427 53 526 -17 q 328 251 328 122 l 351 251 q 388 139 351 186 q 485 67 425 92 q 614 43 544 43 q 763 74 692 43 q 879 165 835 104 q 924 311 924 225 q 798 501 924 439 q 388 563 672 564 l 388 583 q 756 648 651 588 q 860 793 860 708 q 819 856 860 833 q 713 878 778 878 q 508 829 617 878 q 325 688 400 781 q 250 469 250 596 l 250 0 l 56 0 l 56 422 q 154 688 56 579 q 401 851 253 797 q 701 904 550 904 q 926 862 836 904 q 1015 746 1015 819 q 969 665 1015 701 q 835 606 924 628 q 625 581 747 583 l 625 576 q 870 545 757 578 q 1051 452 983 513 q 1118 311 1118 392 q 1055 133 1118 207 q 891 21 992 58 q 678 -17 790 -17 z "},"t":{"ha":853,"x_min":19,"x_max":833,"o":"m 561 -24 q 215 51 344 -24 q 86 283 86 125 l 86 561 l 19 561 l 19 583 l 51 583 q 154 626 107 583 q 230 736 201 668 q 258 875 258 804 l 281 875 l 281 583 l 746 583 l 746 561 l 281 561 l 281 190 q 338 47 281 96 q 490 -1 396 -1 q 653 33 565 -1 q 811 122 742 67 l 833 0 q 561 -24 689 -24 z "},"ŧ":{"ha":853,"x_min":19,"x_max":833,"o":"m 833 0 q 561 -24 689 -24 q 215 51 344 -24 q 86 283 86 125 l 86 379 l 21 379 l 21 401 l 86 401 l 86 561 l 19 561 l 19 583 l 51 583 q 154 626 107 583 q 230 736 201 668 q 258 875 258 804 l 281 875 l 281 583 l 746 583 l 746 561 l 281 561 l 281 401 l 728 401 l 728 379 l 281 379 l 281 190 q 338 47 281 96 q 490 -1 396 -1 q 653 33 565 -1 q 811 122 742 67 l 833 0 z "},"ť":{"ha":853,"x_min":19,"x_max":833,"o":"m 561 -24 q 215 51 344 -24 q 86 283 86 125 l 86 561 l 19 561 l 19 583 l 51 583 q 154 626 107 583 q 230 736 201 668 q 258 875 258 804 l 281 875 l 281 583 l 746 583 l 746 561 l 281 561 l 281 190 q 338 47 281 96 q 490 -1 396 -1 q 653 33 565 -1 q 811 122 742 67 l 833 0 q 561 -24 689 -24 z "},"ţ":{"ha":853,"x_min":19,"x_max":833,"o":"m 411 -64 q 450 -62 425 -62 q 610 -97 550 -62 q 669 -185 669 -132 q 639 -264 669 -226 q 552 -324 608 -301 q 421 -346 496 -346 q 260 -322 335 -346 l 260 -303 q 365 -317 315 -317 q 485 -285 442 -317 q 528 -208 528 -253 q 495 -144 528 -168 q 408 -121 463 -121 q 357 -126 381 -121 l 357 -97 l 408 -12 q 172 83 258 10 q 86 283 86 156 l 86 561 l 19 561 l 19 583 l 51 583 q 154 626 107 583 q 230 736 201 668 q 258 875 258 804 l 281 875 l 281 583 l 746 583 l 746 561 l 281 561 l 281 190 q 338 47 281 96 q 490 -1 396 -1 q 653 33 565 -1 q 811 122 742 67 l 833 0 q 561 -24 689 -24 q 429 -15 492 -24 l 411 -64 z "},"ț":{"ha":853,"x_min":19,"x_max":833,"o":"m 561 -24 q 215 51 344 -24 q 86 283 86 125 l 86 561 l 19 561 l 19 583 l 51 583 q 154 626 107 583 q 230 736 201 668 q 258 875 258 804 l 281 875 l 281 583 l 746 583 l 746 561 l 281 561 l 281 190 q 338 47 281 96 q 490 -1 396 -1 q 653 33 565 -1 q 811 122 742 67 l 833 0 q 561 -24 689 -24 z "},"u":{"ha":1000,"x_min":28,"x_max":944,"o":"m 353 -24 q 121 38 214 -24 q 28 224 28 100 l 28 583 l 222 583 l 222 242 q 284 67 222 119 q 444 15 346 15 q 587 41 515 15 q 704 108 658 67 q 750 196 750 150 l 750 583 l 944 583 l 944 0 l 750 0 l 750 114 l 746 114 q 567 13 671 49 q 353 -24 463 -24 z "},"ú":{"ha":1000,"x_min":28,"x_max":944,"o":"m 353 -24 q 121 38 214 -24 q 28 224 28 100 l 28 583 l 222 583 l 222 242 q 284 67 222 119 q 444 15 346 15 q 587 41 515 15 q 704 108 658 67 q 750 196 750 150 l 750 583 l 944 583 l 944 0 l 750 0 l 750 114 l 746 114 q 567 13 671 49 q 353 -24 463 -24 m 236 663 q 382 699 306 665 q 524 786 458 732 q 626 903 589 840 l 735 803 q 519 695 649 738 q 236 651 390 653 l 236 663 z "},"û":{"ha":1000,"x_min":28,"x_max":944,"o":"m 353 -24 q 121 38 214 -24 q 28 224 28 100 l 28 583 l 222 583 l 222 242 q 284 67 222 119 q 444 15 346 15 q 587 41 515 15 q 704 108 658 67 q 750 196 750 150 l 750 583 l 944 583 l 944 0 l 750 0 l 750 114 l 746 114 q 567 13 671 49 q 353 -24 463 -24 m 486 824 l 278 676 l 190 736 l 486 842 l 785 736 l 692 676 l 486 824 z "},"ü":{"ha":1000,"x_min":28,"x_max":944,"o":"m 353 -24 q 121 38 214 -24 q 28 224 28 100 l 28 583 l 222 583 l 222 242 q 284 67 222 119 q 444 15 346 15 q 587 41 515 15 q 704 108 658 67 q 750 196 750 150 l 750 583 l 944 583 l 944 0 l 750 0 l 750 114 l 746 114 q 567 13 671 49 q 353 -24 463 -24 m 378 682 q 317 703 343 682 q 292 753 292 724 q 318 803 292 782 q 378 825 344 825 q 442 804 415 825 q 468 753 468 783 q 442 702 468 722 q 378 682 417 682 m 600 682 q 535 702 563 682 q 508 753 508 722 q 535 804 508 783 q 600 825 563 825 q 660 803 633 825 q 686 753 686 782 q 660 703 686 724 q 600 682 635 682 z "},"ù":{"ha":1000,"x_min":28,"x_max":944,"o":"m 353 -24 q 121 38 214 -24 q 28 224 28 100 l 28 583 l 222 583 l 222 242 q 284 67 222 119 q 444 15 346 15 q 587 41 515 15 q 704 108 658 67 q 750 196 750 150 l 750 583 l 944 583 l 944 0 l 750 0 l 750 114 l 746 114 q 567 13 671 49 q 353 -24 463 -24 m 735 651 q 452 695 581 653 q 238 803 324 738 l 344 903 q 447 786 382 840 q 589 699 513 732 q 735 663 665 665 l 735 651 z "},"ű":{"ha":1000,"x_min":28,"x_max":944,"o":"m 353 -24 q 121 38 214 -24 q 28 224 28 100 l 28 583 l 222 583 l 222 242 q 284 67 222 119 q 444 15 346 15 q 587 41 515 15 q 704 108 658 67 q 750 196 750 150 l 750 583 l 944 583 l 944 0 l 750 0 l 750 114 l 746 114 q 567 13 671 49 q 353 -24 463 -24 m 351 647 l 276 647 l 365 821 l 514 821 l 351 647 m 528 647 l 453 647 l 547 821 l 694 821 l 528 647 z "},"ū":{"ha":1000,"x_min":28,"x_max":944,"o":"m 353 -24 q 121 38 214 -24 q 28 224 28 100 l 28 583 l 222 583 l 222 242 q 284 67 222 119 q 444 15 346 15 q 587 41 515 15 q 704 108 658 67 q 750 196 750 150 l 750 583 l 944 583 l 944 0 l 750 0 l 750 114 l 746 114 q 567 13 671 49 q 353 -24 463 -24 m 713 738 l 261 738 l 261 760 l 713 760 l 713 738 z "},"ų":{"ha":1000,"x_min":28,"x_max":1021,"o":"m 1021 -112 q 919 -219 999 -181 q 749 -257 839 -257 q 620 -229 668 -257 q 572 -153 572 -201 q 631 -65 572 -107 q 789 0 690 -24 l 750 0 l 750 114 l 746 114 q 567 13 671 49 q 353 -24 463 -24 q 121 38 214 -24 q 28 224 28 100 l 28 583 l 222 583 l 222 242 q 284 67 222 119 q 444 15 346 15 q 587 41 515 15 q 704 108 658 67 q 750 196 750 150 l 750 583 l 944 583 l 944 0 l 931 0 q 767 -28 825 -1 q 710 -89 710 -54 q 754 -144 710 -121 q 867 -168 799 -168 q 953 -154 914 -168 q 1011 -112 993 -140 l 1021 -112 z "},"ů":{"ha":1000,"x_min":28,"x_max":944,"o":"m 353 -24 q 121 38 214 -24 q 28 224 28 100 l 28 583 l 222 583 l 222 242 q 284 67 222 119 q 444 15 346 15 q 587 41 515 15 q 704 108 658 67 q 750 196 750 150 l 750 583 l 944 583 l 944 0 l 750 0 l 750 114 l 746 114 q 567 13 671 49 q 353 -24 463 -24 m 485 642 q 331 669 396 642 q 267 744 267 696 q 332 820 267 793 q 486 847 397 847 q 640 820 575 847 q 706 744 706 793 q 640 669 706 696 q 485 642 575 642 m 486 653 q 556 677 526 653 q 585 744 585 701 q 556 811 585 788 q 486 835 526 835 q 416 810 446 835 q 386 743 386 786 q 416 677 386 701 q 486 653 446 653 z "},"v":{"ha":821,"x_min":14,"x_max":807,"o":"m 379 0 l 14 583 l 210 583 l 403 276 l 406 276 q 399 346 399 315 q 429 478 399 418 q 515 572 460 538 q 640 606 569 606 q 763 565 719 606 q 807 461 807 524 q 747 314 807 386 l 488 0 l 379 0 m 651 225 q 719 386 719 307 q 685 472 719 439 q 588 504 651 504 q 463 451 510 504 q 415 322 415 399 q 442 213 415 265 l 528 76 l 651 225 z "},"w":{"ha":1281,"x_min":14,"x_max":1267,"o":"m 379 0 l 14 583 l 210 583 l 528 76 l 679 257 l 474 583 l 671 583 l 863 276 l 865 276 q 858 347 858 308 q 894 488 858 429 q 985 576 929 546 q 1100 606 1040 606 q 1223 565 1179 606 q 1267 461 1267 524 q 1252 387 1267 425 q 1208 314 1238 349 l 947 0 l 839 0 l 688 240 l 488 0 l 379 0 m 1111 225 q 1182 383 1182 311 q 1144 470 1182 436 q 1047 504 1107 504 q 962 481 1001 504 q 898 417 922 458 q 874 324 874 376 q 901 213 874 268 l 988 76 l 1111 225 z "},"ẃ":{"ha":1281,"x_min":14,"x_max":1267,"o":"m 379 0 l 14 583 l 210 583 l 528 76 l 679 257 l 474 583 l 671 583 l 863 276 l 865 276 q 858 347 858 308 q 894 488 858 429 q 985 576 929 546 q 1100 606 1040 606 q 1223 565 1179 606 q 1267 461 1267 524 q 1252 387 1267 425 q 1208 314 1238 349 l 947 0 l 839 0 l 688 240 l 488 0 l 379 0 m 1111 225 q 1182 383 1182 311 q 1144 470 1182 436 q 1047 504 1107 504 q 962 481 1001 504 q 898 417 922 458 q 874 324 874 376 q 901 213 874 268 l 988 76 l 1111 225 m 389 663 q 535 699 458 665 q 676 786 611 732 q 779 903 742 840 l 888 803 q 672 695 801 738 q 389 651 543 653 l 389 663 z "},"ŵ":{"ha":1281,"x_min":14,"x_max":1267,"o":"m 379 0 l 14 583 l 210 583 l 528 76 l 679 257 l 474 583 l 671 583 l 863 276 l 865 276 q 858 347 858 308 q 894 488 858 429 q 985 576 929 546 q 1100 606 1040 606 q 1223 565 1179 606 q 1267 461 1267 524 q 1252 387 1267 425 q 1208 314 1238 349 l 947 0 l 839 0 l 688 240 l 488 0 l 379 0 m 1111 225 q 1182 383 1182 311 q 1144 470 1182 436 q 1047 504 1107 504 q 962 481 1001 504 q 898 417 922 458 q 874 324 874 376 q 901 213 874 268 l 988 76 l 1111 225 m 638 824 l 429 676 l 342 736 l 638 842 l 936 736 l 843 676 l 638 824 z "},"ẅ":{"ha":1281,"x_min":14,"x_max":1267,"o":"m 379 0 l 14 583 l 210 583 l 528 76 l 679 257 l 474 583 l 671 583 l 863 276 l 865 276 q 858 347 858 308 q 894 488 858 429 q 985 576 929 546 q 1100 606 1040 606 q 1223 565 1179 606 q 1267 461 1267 524 q 1252 387 1267 425 q 1208 314 1238 349 l 947 0 l 839 0 l 688 240 l 488 0 l 379 0 m 1111 225 q 1182 383 1182 311 q 1144 470 1182 436 q 1047 504 1107 504 q 962 481 1001 504 q 898 417 922 458 q 874 324 874 376 q 901 213 874 268 l 988 76 l 1111 225 m 529 682 q 469 703 494 682 q 443 753 443 724 q 469 803 443 782 q 529 825 496 825 q 593 804 567 825 q 619 753 619 783 q 594 702 619 722 q 529 682 568 682 m 751 682 q 687 702 714 682 q 660 753 660 722 q 687 804 660 783 q 751 825 714 825 q 811 803 785 825 q 838 753 838 782 q 812 703 838 724 q 751 682 786 682 z "},"ẁ":{"ha":1281,"x_min":14,"x_max":1267,"o":"m 379 0 l 14 583 l 210 583 l 528 76 l 679 257 l 474 583 l 671 583 l 863 276 l 865 276 q 858 347 858 308 q 894 488 858 429 q 985 576 929 546 q 1100 606 1040 606 q 1223 565 1179 606 q 1267 461 1267 524 q 1252 387 1267 425 q 1208 314 1238 349 l 947 0 l 839 0 l 688 240 l 488 0 l 379 0 m 1111 225 q 1182 383 1182 311 q 1144 470 1182 436 q 1047 504 1107 504 q 962 481 1001 504 q 898 417 922 458 q 874 324 874 376 q 901 213 874 268 l 988 76 l 1111 225 m 888 651 q 605 695 733 653 q 390 803 476 738 l 497 903 q 600 786 535 840 q 742 699 665 732 q 888 663 818 665 l 888 651 z "},"x":{"ha":861,"x_min":28,"x_max":824,"o":"m 28 -1 q 81 111 28 54 q 210 212 133 168 q 354 274 288 256 l 51 583 l 249 583 l 508 319 q 634 419 585 358 q 683 547 683 479 q 679 585 683 567 l 822 585 l 824 571 q 731 423 824 497 q 519 308 638 349 l 821 0 l 624 0 l 365 261 q 273 198 319 240 q 197 103 226 156 q 172 -1 168 50 l 28 -1 z "},"y":{"ha":871,"x_min":14,"x_max":844,"o":"m 242 -279 q 95 -235 144 -279 q 46 -125 46 -190 q 104 2 46 -60 q 243 86 163 64 l 14 583 l 213 583 l 375 229 l 378 229 q 374 297 374 265 q 413 467 374 397 q 517 572 453 538 q 650 607 581 607 q 791 556 738 607 q 844 417 844 504 q 755 130 844 297 q 525 -158 665 -37 q 242 -279 385 -279 m 574 19 q 635 29 603 19 q 686 53 668 39 q 749 176 726 110 q 771 301 771 242 q 720 446 771 393 q 590 499 669 499 q 483 467 529 499 q 413 384 438 436 q 389 271 389 332 q 399 193 389 231 q 466 71 414 122 q 574 19 518 19 m 342 -165 q 511 -117 426 -165 q 668 19 596 -69 l 665 22 q 558 -12 614 0 q 451 -25 501 -25 q 331 -1 383 -25 q 253 68 279 22 q 201 19 219 49 q 183 -37 183 -10 q 226 -126 183 -87 q 342 -165 269 -165 z "},"ý":{"ha":871,"x_min":14,"x_max":844,"o":"m 242 -279 q 95 -235 144 -279 q 46 -125 46 -190 q 104 2 46 -60 q 243 86 163 64 l 14 583 l 213 583 l 375 229 l 378 229 q 374 297 374 265 q 413 467 374 397 q 517 572 453 538 q 650 607 581 607 q 791 556 738 607 q 844 417 844 504 q 755 130 844 297 q 525 -158 665 -37 q 242 -279 385 -279 m 574 19 q 635 29 603 19 q 686 53 668 39 q 749 176 726 110 q 771 301 771 242 q 720 446 771 393 q 590 499 669 499 q 483 467 529 499 q 413 384 438 436 q 389 271 389 332 q 399 193 389 231 q 466 71 414 122 q 574 19 518 19 m 342 -165 q 511 -117 426 -165 q 668 19 596 -69 l 665 22 q 558 -12 614 0 q 451 -25 501 -25 q 331 -1 383 -25 q 253 68 279 22 q 201 19 219 49 q 183 -37 183 -10 q 226 -126 183 -87 q 342 -165 269 -165 m 186 663 q 332 699 256 665 q 474 786 408 732 q 576 903 539 840 l 685 803 q 469 695 599 738 q 186 651 340 653 l 186 663 z "},"ŷ":{"ha":871,"x_min":14,"x_max":844,"o":"m 242 -279 q 95 -235 144 -279 q 46 -125 46 -190 q 104 2 46 -60 q 243 86 163 64 l 14 583 l 213 583 l 375 229 l 378 229 q 374 297 374 265 q 413 467 374 397 q 517 572 453 538 q 650 607 581 607 q 791 556 738 607 q 844 417 844 504 q 755 130 844 297 q 525 -158 665 -37 q 242 -279 385 -279 m 574 19 q 635 29 603 19 q 686 53 668 39 q 749 176 726 110 q 771 301 771 242 q 720 446 771 393 q 590 499 669 499 q 483 467 529 499 q 413 384 438 436 q 389 271 389 332 q 399 193 389 231 q 466 71 414 122 q 574 19 518 19 m 342 -165 q 511 -117 426 -165 q 668 19 596 -69 l 665 22 q 558 -12 614 0 q 451 -25 501 -25 q 331 -1 383 -25 q 253 68 279 22 q 201 19 219 49 q 183 -37 183 -10 q 226 -126 183 -87 q 342 -165 269 -165 m 436 824 l 228 676 l 140 736 l 436 842 l 735 736 l 642 676 l 436 824 z "},"ÿ":{"ha":871,"x_min":14,"x_max":844,"o":"m 242 -279 q 95 -235 144 -279 q 46 -125 46 -190 q 104 2 46 -60 q 243 86 163 64 l 14 583 l 213 583 l 375 229 l 378 229 q 374 297 374 265 q 413 467 374 397 q 517 572 453 538 q 650 607 581 607 q 791 556 738 607 q 844 417 844 504 q 755 130 844 297 q 525 -158 665 -37 q 242 -279 385 -279 m 574 19 q 635 29 603 19 q 686 53 668 39 q 749 176 726 110 q 771 301 771 242 q 720 446 771 393 q 590 499 669 499 q 483 467 529 499 q 413 384 438 436 q 389 271 389 332 q 399 193 389 231 q 466 71 414 122 q 574 19 518 19 m 342 -165 q 511 -117 426 -165 q 668 19 596 -69 l 665 22 q 558 -12 614 0 q 451 -25 501 -25 q 331 -1 383 -25 q 253 68 279 22 q 201 19 219 49 q 183 -37 183 -10 q 226 -126 183 -87 q 342 -165 269 -165 m 328 682 q 267 703 293 682 q 242 753 242 724 q 268 803 242 782 q 328 825 294 825 q 392 804 365 825 q 418 753 418 783 q 392 702 418 722 q 328 682 367 682 m 550 682 q 485 702 513 682 q 458 753 458 722 q 485 804 458 783 q 550 825 513 825 q 610 803 583 825 q 636 753 636 782 q 610 703 636 724 q 550 682 585 682 z "},"ỳ":{"ha":871,"x_min":14,"x_max":844,"o":"m 242 -279 q 95 -235 144 -279 q 46 -125 46 -190 q 104 2 46 -60 q 243 86 163 64 l 14 583 l 213 583 l 375 229 l 378 229 q 374 297 374 265 q 413 467 374 397 q 517 572 453 538 q 650 607 581 607 q 791 556 738 607 q 844 417 844 504 q 755 130 844 297 q 525 -158 665 -37 q 242 -279 385 -279 m 574 19 q 635 29 603 19 q 686 53 668 39 q 749 176 726 110 q 771 301 771 242 q 720 446 771 393 q 590 499 669 499 q 483 467 529 499 q 413 384 438 436 q 389 271 389 332 q 399 193 389 231 q 466 71 414 122 q 574 19 518 19 m 342 -165 q 511 -117 426 -165 q 668 19 596 -69 l 665 22 q 558 -12 614 0 q 451 -25 501 -25 q 331 -1 383 -25 q 253 68 279 22 q 201 19 219 49 q 183 -37 183 -10 q 226 -126 183 -87 q 342 -165 269 -165 m 685 651 q 402 695 531 653 q 188 803 274 738 l 294 903 q 397 786 332 840 q 539 699 463 732 q 685 663 615 665 l 685 651 z "},"z":{"ha":878,"x_min":19,"x_max":858,"o":"m 842 0 l 19 1 l 617 560 l 388 560 q 209 530 289 560 q 36 447 129 500 l 53 583 l 836 583 l 243 24 l 519 24 q 698 58 606 24 q 858 153 790 93 l 842 0 z "},"ź":{"ha":878,"x_min":19,"x_max":858,"o":"m 842 0 l 19 1 l 617 560 l 388 560 q 209 530 289 560 q 36 447 129 500 l 53 583 l 836 583 l 243 24 l 519 24 q 698 58 606 24 q 858 153 790 93 l 842 0 m 190 663 q 336 699 260 665 q 478 786 413 732 q 581 903 543 840 l 689 803 q 474 695 603 738 q 190 651 344 653 l 190 663 z "},"ž":{"ha":878,"x_min":19,"x_max":858,"o":"m 842 0 l 19 1 l 617 560 l 388 560 q 209 530 289 560 q 36 447 129 500 l 53 583 l 836 583 l 243 24 l 519 24 q 698 58 606 24 q 858 153 790 93 l 842 0 z "},"ż":{"ha":878,"x_min":19,"x_max":858,"o":"m 842 0 l 19 1 l 617 560 l 388 560 q 209 530 289 560 q 36 447 129 500 l 53 583 l 836 583 l 243 24 l 519 24 q 698 58 606 24 q 858 153 790 93 l 842 0 m 439 688 q 351 715 386 688 q 315 783 315 743 q 351 851 315 824 q 439 878 386 878 q 527 851 492 878 q 563 783 563 824 q 527 715 563 743 q 439 688 492 688 z "},"ª":{"ha":392,"x_min":11,"x_max":519,"o":"m 197 519 q 67 553 124 519 q 11 646 11 586 q 53 724 11 697 q 153 751 96 751 q 213 740 186 751 l 214 742 q 150 811 150 772 q 183 856 150 839 q 267 874 215 874 q 383 853 325 874 q 481 790 442 832 q 519 685 519 747 l 519 533 l 411 533 l 411 683 q 383 778 411 740 q 313 832 354 815 q 231 849 272 849 q 181 839 199 849 q 164 811 164 829 q 187 766 164 786 q 256 721 210 746 q 326 676 300 700 q 353 614 353 651 q 307 544 353 569 q 197 519 261 519 m 253 543 q 317 562 290 543 q 343 615 343 581 q 300 691 343 660 q 215 728 257 722 q 194 729 208 729 q 140 711 160 729 q 119 660 119 693 q 161 576 119 608 q 253 543 203 543 z "},"º":{"ha":394,"x_min":3,"x_max":539,"o":"m 274 519 q 142 541 204 519 q 41 604 79 563 q 3 706 3 646 q 81 831 3 786 q 267 876 158 876 q 399 856 336 876 q 500 796 461 836 q 539 700 539 756 q 460 567 539 614 q 274 519 382 519 m 296 532 q 394 567 354 532 q 433 665 433 601 q 407 765 433 719 q 338 836 381 810 q 244 863 294 863 q 147 827 186 863 q 108 728 108 792 q 134 628 108 674 q 203 558 160 583 q 296 532 246 532 z "},"¹":{"ha":281,"x_min":56,"x_max":225,"o":"m 225 438 l 117 438 l 117 838 l 56 804 l 56 831 l 138 875 l 225 875 l 225 438 z "},"²":{"ha":590,"x_min":56,"x_max":532,"o":"m 56 458 q 106 539 60 499 q 239 636 151 579 q 379 740 332 697 q 426 826 426 782 q 403 867 426 853 q 340 881 379 881 q 213 849 283 881 q 90 763 142 817 l 64 851 q 174 882 110 871 q 300 893 238 893 q 465 868 399 893 q 532 796 532 843 q 484 726 532 756 q 338 654 436 696 q 213 598 258 621 q 144 546 168 575 l 529 546 l 529 446 l 56 444 l 56 458 z "},"³":{"ha":583,"x_min":56,"x_max":528,"o":"m 201 435 q 64 451 124 435 l 75 547 q 188 483 129 506 q 297 461 247 461 q 385 487 351 461 q 419 557 419 513 q 380 636 419 606 q 285 680 340 667 q 182 693 231 693 q 129 689 157 693 l 129 703 q 258 723 197 706 q 354 767 318 740 q 390 821 390 793 q 365 863 390 847 q 294 878 339 878 q 186 857 246 878 q 69 794 126 836 l 56 871 q 264 896 143 896 q 431 875 364 896 q 497 814 497 854 q 436 744 497 772 q 244 706 375 715 l 244 703 q 458 670 389 703 q 528 585 528 638 q 481 505 528 539 q 358 453 433 471 q 201 435 282 435 z "},"⁄":{"ha":825,"x_min":56,"x_max":769,"o":"m 79 0 l 56 0 l 746 875 l 769 875 l 79 0 z "},"½":{"ha":1040,"x_min":56,"x_max":982,"o":"m 225 438 l 117 438 l 117 838 l 56 804 l 56 831 l 138 875 l 225 875 l 225 438 m 97 0 l 74 0 l 764 875 l 788 875 l 97 0 m 506 13 q 556 93 510 53 q 689 190 601 133 q 829 294 782 251 q 876 381 876 336 q 853 421 876 407 q 790 435 829 435 q 663 403 733 435 q 540 317 592 371 l 514 406 q 624 436 560 425 q 750 447 688 447 q 915 422 849 447 q 982 350 982 397 q 934 280 982 310 q 788 208 886 250 q 663 152 708 175 q 594 100 618 129 l 979 100 l 979 0 l 506 -1 l 506 13 z "},"¼":{"ha":1049,"x_min":56,"x_max":992,"o":"m 225 438 l 117 438 l 117 838 l 56 804 l 56 831 l 138 875 l 225 875 l 225 438 m 97 0 l 74 0 l 764 875 l 788 875 l 97 0 m 665 -31 q 528 -14 588 -31 l 539 82 q 652 18 593 40 q 761 -4 711 -4 q 849 22 815 -4 q 883 92 883 47 q 844 171 883 140 q 749 215 804 201 q 646 228 694 228 q 593 224 621 228 l 593 238 q 722 258 661 240 q 818 301 782 275 q 854 356 854 328 q 828 397 854 382 q 758 413 803 413 q 650 392 710 413 q 533 329 590 371 l 519 406 q 728 431 607 431 q 894 410 828 431 q 961 349 961 389 q 900 278 961 307 q 708 240 839 250 l 708 238 q 922 205 853 238 q 992 119 992 172 q 944 40 992 74 q 822 -12 897 6 q 665 -31 746 -31 z "},"¾":{"ha":1121,"x_min":56,"x_max":1065,"o":"m 201 435 q 64 451 124 435 l 75 547 q 188 483 129 506 q 297 461 247 461 q 385 487 351 461 q 419 557 419 513 q 380 636 419 606 q 285 680 340 667 q 182 693 231 693 q 129 689 157 693 l 129 703 q 258 723 197 706 q 354 767 318 740 q 390 821 390 793 q 365 863 390 847 q 294 878 339 878 q 186 857 246 878 q 69 794 126 836 l 56 871 q 264 896 143 896 q 431 875 364 896 q 497 814 497 854 q 436 744 497 772 q 244 706 375 715 l 244 703 q 458 670 389 703 q 528 585 528 638 q 481 505 528 539 q 358 453 433 471 q 201 435 282 435 m 239 0 l 215 0 l 906 875 l 928 875 l 239 0 m 981 0 l 872 0 l 872 139 l 518 139 l 518 160 l 926 438 l 981 438 l 981 161 l 1065 161 l 1065 139 l 981 139 l 981 0 m 872 379 l 553 161 l 872 161 l 872 379 z "},".":{"ha":310,"x_min":56,"x_max":254,"o":"m 154 -24 q 83 4 111 -24 q 56 75 56 32 q 83 147 56 118 q 154 175 111 175 q 226 147 197 175 q 254 75 254 118 q 226 4 254 32 q 154 -24 197 -24 z "},",":{"ha":356,"x_min":56,"x_max":300,"o":"m 113 -193 l 56 -193 l 140 58 l 300 58 l 113 -193 z "},":":{"ha":310,"x_min":56,"x_max":254,"o":"m 154 -24 q 83 4 111 -24 q 56 75 56 32 q 83 147 56 118 q 154 175 111 175 q 226 147 197 175 q 254 75 254 118 q 226 4 254 32 q 154 -24 197 -24 m 154 399 q 83 426 111 399 q 56 497 56 454 q 83 569 56 540 q 154 597 111 597 q 226 569 197 597 q 254 497 254 540 q 226 426 254 454 q 154 399 197 399 z "},";":{"ha":378,"x_min":56,"x_max":322,"o":"m 222 397 q 152 425 181 397 q 124 496 124 453 q 152 567 124 539 q 222 594 181 594 q 294 567 265 594 q 322 496 322 539 q 294 425 322 453 q 222 397 265 397 m 113 -199 l 56 -199 l 140 53 l 300 53 l 113 -199 z "},"…":{"ha":804,"x_min":56,"x_max":749,"o":"m 399 -25 q 328 3 356 -25 q 300 74 300 31 q 328 145 300 117 q 399 174 356 174 q 470 145 442 174 q 499 74 499 117 q 470 3 499 31 q 399 -25 442 -25 m 154 -24 q 83 4 111 -24 q 56 75 56 32 q 83 147 56 118 q 154 175 111 175 q 226 147 197 175 q 254 75 254 118 q 226 4 254 32 q 154 -24 197 -24 m 649 -24 q 578 4 606 -24 q 550 75 550 32 q 578 147 550 118 q 649 175 606 175 q 720 147 692 175 q 749 75 749 118 q 720 4 749 32 q 649 -24 692 -24 z "},"!":{"ha":313,"x_min":57,"x_max":256,"o":"m 164 247 l 142 247 l 58 875 l 253 875 l 164 247 m 156 -24 q 85 4 114 -24 q 57 75 57 32 q 85 147 57 118 q 156 175 114 175 q 227 147 199 175 q 256 75 256 118 q 227 4 256 32 q 156 -24 199 -24 z "},"¡":{"ha":313,"x_min":57,"x_max":256,"o":"m 156 844 q 227 817 199 844 q 256 746 256 789 q 227 674 256 703 q 156 646 199 646 q 85 674 114 646 q 57 746 57 703 q 85 817 57 789 q 156 844 114 844 m 58 -54 l 142 574 l 164 574 l 253 -54 l 58 -54 z "},"?":{"ha":1049,"x_min":56,"x_max":993,"o":"m 253 401 q 678 554 521 474 q 836 726 836 635 q 778 815 836 779 q 601 850 719 850 q 352 816 493 850 q 61 717 211 782 l 56 875 q 404 894 275 894 q 732 863 600 894 q 928 778 864 831 q 993 663 993 725 q 892 508 993 581 q 627 386 792 436 q 276 317 463 336 l 276 242 l 253 242 l 253 401 m 272 -24 q 201 4 229 -24 q 174 75 174 32 q 201 147 174 118 q 272 175 229 175 q 344 147 315 175 q 372 75 372 118 q 344 4 372 32 q 272 -24 315 -24 z "},"¿":{"ha":1049,"x_min":56,"x_max":993,"o":"m 776 761 q 847 733 819 761 q 875 663 875 706 q 847 592 875 619 q 776 564 819 564 q 706 592 733 564 q 678 663 678 619 q 706 733 678 706 q 776 761 733 761 m 797 338 q 370 183 528 264 q 213 11 213 103 q 272 -76 213 -42 q 447 -111 331 -111 q 698 -77 557 -111 q 988 22 839 -43 l 993 -137 q 646 -156 789 -156 q 317 -124 450 -156 q 120 -39 185 -92 q 56 75 56 14 q 156 229 56 157 q 422 351 257 301 q 772 421 586 401 l 772 496 l 797 496 l 797 338 z "},"·":{"ha":310,"x_min":56,"x_max":254,"o":"m 154 242 q 83 269 111 242 q 56 340 56 297 q 83 412 56 383 q 154 440 111 440 q 226 412 197 440 q 254 340 254 383 q 226 269 254 297 q 154 242 197 242 z "},"•":{"ha":507,"x_min":56,"x_max":451,"o":"m 253 140 q 112 197 168 140 q 56 338 56 253 q 112 480 56 424 q 253 536 168 536 q 395 480 339 536 q 451 338 451 424 q 395 197 451 253 q 253 140 339 140 z "},"*":{"ha":404,"x_min":56,"x_max":349,"o":"m 221 690 l 349 690 l 349 675 l 221 675 l 311 585 l 300 574 l 210 664 l 210 536 l 194 536 l 194 665 l 103 574 l 93 585 l 183 675 l 56 675 l 56 690 l 183 690 l 93 781 l 104 792 l 194 701 l 194 829 l 210 829 l 210 701 l 300 792 l 311 781 l 221 690 z "},"#":{"ha":957,"x_min":56,"x_max":901,"o":"m 901 606 l 901 588 l 672 588 l 529 338 l 822 338 l 822 319 l 518 319 l 376 71 l 358 71 l 500 319 l 310 319 l 168 71 l 150 71 l 292 319 l 56 319 l 56 338 l 303 338 l 446 588 l 163 588 l 163 606 l 456 606 l 583 828 l 601 828 l 474 606 l 664 606 l 792 828 l 810 828 l 682 606 l 901 606 m 321 338 l 511 338 l 654 588 l 464 588 l 321 338 z "},"/":{"ha":621,"x_min":56,"x_max":565,"o":"m 83 -162 l 56 -162 l 539 1046 l 565 1046 l 83 -162 z "},"\\":{"ha":621,"x_min":56,"x_max":565,"o":"m 83 1046 l 565 -162 l 539 -162 l 56 1046 l 83 1046 z "},"(":{"ha":692,"x_min":56,"x_max":636,"o":"m 636 -44 q 313 3 440 -44 q 121 158 186 50 q 56 450 56 267 q 121 738 56 632 q 313 890 186 844 q 636 936 440 936 l 636 915 q 438 876 519 915 q 308 735 356 838 q 260 450 260 633 q 360 81 260 186 q 636 -24 460 -24 l 636 -44 z "},")":{"ha":692,"x_min":56,"x_max":636,"o":"m 56 -24 q 332 81 232 -24 q 432 450 432 186 q 384 735 432 633 q 254 876 336 838 q 56 915 172 915 l 56 936 q 378 890 251 936 q 571 738 506 844 q 636 450 636 632 q 571 158 636 267 q 378 3 506 50 q 56 -44 251 -44 l 56 -24 z "},"{":{"ha":732,"x_min":56,"x_max":676,"o":"m 676 -44 q 496 -65 576 -65 q 234 24 324 -65 q 144 274 144 113 q 56 450 144 413 q 144 643 144 488 q 232 879 144 797 q 500 961 319 961 q 676 944 578 961 l 676 922 q 565 932 618 932 q 399 874 449 932 q 349 694 349 815 q 318 530 349 588 q 250 450 288 472 q 317 374 286 429 q 349 221 349 318 q 401 29 349 93 q 565 -35 453 -35 q 676 -22 614 -35 l 676 -44 z "},"}":{"ha":733,"x_min":56,"x_max":676,"o":"m 56 -22 q 167 -35 118 -35 q 333 29 281 -35 q 385 221 385 93 q 415 374 385 318 q 482 450 446 429 q 415 530 444 472 q 385 694 385 588 q 334 874 385 815 q 167 932 283 932 q 56 922 114 932 l 56 944 q 232 961 154 961 q 500 879 413 961 q 588 643 588 797 q 676 450 588 488 q 588 274 588 413 q 498 24 588 113 q 236 -65 408 -65 q 56 -44 156 -65 l 56 -22 z "},"[":{"ha":571,"x_min":56,"x_max":515,"o":"m 515 -57 l 56 -57 l 56 931 l 515 931 l 515 908 l 250 908 l 250 -35 l 515 -35 l 515 -57 z "},"]":{"ha":571,"x_min":56,"x_max":515,"o":"m 515 931 l 515 -57 l 56 -57 l 56 -35 l 321 -35 l 321 908 l 56 908 l 56 931 l 515 931 z "},"-":{"ha":679,"x_min":56,"x_max":622,"o":"m 622 279 l 56 279 l 56 301 l 622 301 l 622 279 z "},"­":{"ha":656,"x_min":56,"x_max":600,"o":"m 600 279 l 56 279 l 56 301 l 600 301 l 600 279 z "},"–":{"ha":683,"x_min":56,"x_max":628,"o":"m 628 279 l 56 279 l 56 301 l 628 301 l 628 279 z "},"—":{"ha":835,"x_min":56,"x_max":779,"o":"m 779 279 l 56 279 l 56 301 l 779 301 l 779 279 z "},"_":{"ha":714,"x_min":56,"x_max":658,"o":"m 658 -18 l 56 -18 l 56 4 l 658 4 l 658 -18 z "},"‚":{"ha":356,"x_min":56,"x_max":300,"o":"m 113 -193 l 56 -193 l 140 58 l 300 58 l 113 -193 z "},"„":{"ha":594,"x_min":56,"x_max":539,"o":"m 113 -193 l 56 -193 l 140 58 l 300 58 l 113 -193 m 351 -193 l 294 -193 l 379 58 l 539 58 l 351 -193 z "},"“":{"ha":599,"x_min":56,"x_max":543,"o":"m 243 1008 l 300 1008 l 215 758 l 56 758 l 243 1008 m 485 1008 l 543 1008 l 457 758 l 297 758 l 485 1008 z "},"”":{"ha":592,"x_min":56,"x_max":536,"o":"m 243 1010 l 300 1010 l 215 758 l 56 758 l 243 1010 m 479 1010 l 536 1010 l 451 758 l 292 758 l 479 1010 z "},"‘":{"ha":356,"x_min":56,"x_max":300,"o":"m 243 1010 l 300 1010 l 215 758 l 56 758 l 243 1010 z "},"’":{"ha":356,"x_min":56,"x_max":300,"o":"m 113 604 l 56 604 l 140 856 l 300 856 l 113 604 z "},"«":{"ha":846,"x_min":56,"x_max":790,"o":"m 535 42 l 535 18 l 56 292 l 56 297 l 535 565 l 535 542 l 93 294 l 93 293 l 535 42 m 790 42 l 790 18 l 311 292 l 311 297 l 790 565 l 790 542 l 349 294 l 349 293 l 790 42 z "},"»":{"ha":846,"x_min":56,"x_max":790,"o":"m 790 292 l 311 18 l 311 42 l 754 293 l 754 294 l 311 542 l 311 565 l 790 297 l 790 292 m 535 292 l 56 18 l 56 42 l 499 293 l 499 294 l 56 542 l 56 565 l 535 297 l 535 292 z "},"‹":{"ha":590,"x_min":56,"x_max":535,"o":"m 535 42 l 535 18 l 56 292 l 56 297 l 535 565 l 535 542 l 93 294 l 93 293 l 535 42 z "},"›":{"ha":590,"x_min":56,"x_max":535,"o":"m 535 292 l 56 18 l 56 42 l 499 293 l 499 294 l 56 542 l 56 565 l 535 297 l 535 292 z "},"\"":{"ha":593,"x_min":56,"x_max":538,"o":"m 113 604 l 56 604 l 140 856 l 300 856 l 113 604 m 350 604 l 293 604 l 378 856 l 538 856 l 350 604 z "},"'":{"ha":356,"x_min":56,"x_max":300,"o":"m 113 624 l 56 624 l 140 875 l 300 875 l 113 624 z "},"¢":{"ha":1011,"x_min":56,"x_max":956,"o":"m 956 160 q 581 107 768 107 q 521 108 540 107 l 510 0 l 486 0 l 497 110 q 178 205 301 125 q 56 432 56 285 q 200 651 56 574 q 564 740 344 729 l 578 875 l 600 875 l 586 740 q 632 742 601 742 q 903 714 753 742 l 921 599 q 754 685 842 656 q 583 717 667 714 l 524 133 q 585 129 553 129 q 758 162 672 129 q 908 257 844 194 l 956 160 m 249 436 q 319 236 249 313 q 500 138 389 160 l 561 717 q 336 643 424 714 q 249 436 249 572 z "},"¤":{"ha":688,"x_min":56,"x_max":632,"o":"m 79 150 l 56 171 l 132 257 q 60 444 60 336 q 78 546 60 497 q 131 632 97 594 l 56 717 l 79 738 l 153 654 q 340 724 236 724 q 443 704 394 724 q 531 650 492 685 l 608 738 l 632 717 l 553 628 q 602 543 585 590 q 619 444 619 496 q 553 260 619 342 l 632 171 l 608 150 l 531 238 q 340 164 449 164 q 154 235 233 164 l 79 150 m 340 201 q 463 234 407 201 q 551 322 518 267 q 583 444 583 378 q 551 567 583 511 q 462 655 518 622 q 340 688 406 688 q 218 655 274 688 q 130 567 163 622 q 97 444 97 511 q 130 322 97 378 q 218 234 163 267 q 340 201 274 201 z "},"$":{"ha":1046,"x_min":65,"x_max":990,"o":"m 990 257 q 871 67 990 138 q 553 -19 751 -3 l 553 -99 l 529 -99 l 529 -22 q 431 -25 465 -25 q 68 13 276 -25 l 81 154 q 290 80 167 113 q 529 36 414 47 l 529 389 l 506 399 l 469 413 q 253 503 332 467 q 119 588 174 540 q 65 692 65 635 q 194 840 65 792 q 529 894 322 888 l 529 978 l 553 978 l 553 896 l 611 896 q 965 872 797 896 l 954 729 q 781 806 899 769 q 553 857 664 843 l 553 572 l 572 565 q 789 481 704 519 q 932 386 874 442 q 990 257 990 331 m 236 772 q 306 677 236 718 q 529 581 375 636 l 529 860 q 458 864 492 864 q 301 842 365 864 q 236 772 236 821 m 622 32 q 795 59 729 32 q 861 147 861 86 q 779 264 861 208 q 553 379 697 319 l 553 35 q 622 32 600 32 z "},"€":{"ha":1144,"x_min":56,"x_max":1089,"o":"m 1089 17 q 725 -25 897 -25 q 299 74 465 -25 q 103 369 133 172 l 56 369 l 56 392 l 100 392 q 97 453 97 431 q 100 508 97 472 l 56 508 l 56 531 l 103 531 q 295 808 131 721 q 733 896 460 896 q 1039 875 876 896 l 1014 733 q 636 872 794 872 q 412 782 496 872 q 313 531 328 692 l 565 531 l 565 508 l 311 508 q 310 463 310 493 q 313 392 310 436 l 565 392 l 565 369 l 315 369 q 429 99 335 196 q 671 3 524 3 q 1064 160 847 3 l 1089 17 z "},"£":{"ha":1042,"x_min":56,"x_max":986,"o":"m 388 292 q 360 121 388 189 q 246 22 332 53 l 969 22 l 969 0 l 97 0 l 97 29 q 158 58 138 29 q 183 137 178 88 q 188 272 188 186 l 188 324 l 188 453 l 56 453 l 56 475 l 188 475 l 188 546 q 274 750 188 672 q 488 861 360 828 q 751 894 617 894 q 894 884 831 894 q 986 858 958 874 l 933 717 q 803 828 878 789 q 656 868 729 868 q 522 834 583 868 q 424 727 461 800 q 388 546 388 654 l 388 475 l 678 475 l 678 453 l 388 453 l 388 292 z "},"¥":{"ha":1051,"x_min":56,"x_max":996,"o":"m 974 875 l 996 875 l 643 376 l 897 376 l 897 354 l 628 354 l 628 293 l 897 293 l 897 271 l 628 271 l 628 -4 l 433 -4 l 433 271 l 163 271 l 163 293 l 433 293 l 433 354 l 163 354 l 163 376 l 417 376 l 56 875 l 250 875 l 615 381 l 974 875 z "},"+":{"ha":551,"x_min":56,"x_max":496,"o":"m 288 301 l 496 301 l 496 279 l 288 279 l 288 69 l 265 69 l 265 279 l 56 279 l 56 301 l 265 301 l 265 510 l 288 510 l 288 301 z "},"−":{"ha":650,"x_min":56,"x_max":594,"o":"m 594 279 l 56 279 l 56 301 l 594 301 l 594 279 z "},"×":{"ha":439,"x_min":56,"x_max":385,"o":"m 236 310 l 385 161 l 368 146 l 221 294 l 72 146 l 56 161 l 204 310 l 57 457 l 72 474 l 219 326 l 367 474 l 383 457 l 236 310 z "},"÷":{"ha":650,"x_min":56,"x_max":594,"o":"m 325 389 q 263 414 288 389 q 238 478 238 439 q 263 540 238 515 q 325 565 288 565 q 389 540 364 565 q 414 478 414 515 q 389 414 414 439 q 325 389 364 389 m 594 279 l 56 279 l 56 301 l 594 301 l 594 279 m 325 24 q 263 49 288 24 q 238 111 238 74 q 263 175 238 150 q 325 200 288 200 q 389 175 364 200 q 414 111 414 150 q 389 49 414 74 q 325 24 364 24 z "},"=":{"ha":650,"x_min":56,"x_max":594,"o":"m 594 211 l 56 211 l 56 233 l 594 233 l 594 211 m 594 351 l 56 351 l 56 374 l 594 374 l 594 351 z "},"≠":{"ha":650,"x_min":56,"x_max":594,"o":"m 594 374 l 594 351 l 369 351 l 294 233 l 594 233 l 594 211 l 281 211 l 181 56 l 157 56 l 257 211 l 56 211 l 56 233 l 271 233 l 346 351 l 56 351 l 56 374 l 360 374 l 471 547 l 494 547 l 383 374 l 594 374 z "},">":{"ha":590,"x_min":56,"x_max":535,"o":"m 535 292 l 56 18 l 56 42 l 499 293 l 499 294 l 56 542 l 56 565 l 535 297 l 535 292 z "},"<":{"ha":590,"x_min":56,"x_max":535,"o":"m 535 42 l 535 18 l 56 292 l 56 297 l 535 565 l 535 542 l 93 294 l 93 293 l 535 42 z "},"≥":{"ha":607,"x_min":56,"x_max":550,"o":"m 536 292 l 57 18 l 57 42 l 500 293 l 500 294 l 57 542 l 57 565 l 536 297 l 536 292 m 550 -22 l 56 -22 l 56 0 l 550 0 l 550 -22 z "},"≤":{"ha":607,"x_min":57,"x_max":551,"o":"m 550 42 l 550 18 l 71 292 l 71 297 l 550 565 l 550 542 l 107 294 l 107 293 l 550 42 m 551 0 l 551 -22 l 57 -22 l 57 0 l 551 0 z "},"±":{"ha":551,"x_min":56,"x_max":496,"o":"m 288 510 l 288 301 l 496 301 l 496 279 l 288 279 l 288 69 l 265 69 l 265 279 l 56 279 l 56 301 l 265 301 l 265 510 l 288 510 m 492 -22 l 57 -22 l 57 0 l 492 0 l 492 -22 z "},"≈":{"ha":886,"x_min":56,"x_max":831,"o":"m 690 285 q 582 303 650 285 q 403 356 514 321 q 236 405 290 390 q 150 419 182 419 q 94 398 113 419 q 78 329 76 376 l 56 329 q 98 496 56 444 q 199 547 140 547 q 304 530 236 547 q 478 481 372 513 q 636 434 575 450 q 731 418 697 418 q 788 441 768 418 q 808 517 808 464 l 831 517 q 796 351 831 418 q 690 285 761 285 m 690 58 q 582 76 650 58 q 403 129 514 94 q 236 178 290 164 q 150 193 182 193 q 94 172 113 193 q 78 103 76 150 l 56 103 q 98 269 56 218 q 199 321 140 321 q 304 303 236 321 q 478 254 372 286 q 636 208 575 224 q 731 192 697 192 q 788 215 768 192 q 808 290 808 238 l 831 290 q 796 125 831 192 q 690 58 761 58 z "},"~":{"ha":886,"x_min":56,"x_max":831,"o":"m 690 138 q 582 156 650 138 q 403 208 514 174 q 236 258 290 243 q 150 272 182 272 q 94 251 113 272 q 78 182 76 229 l 56 182 q 98 349 56 297 q 199 400 140 400 q 304 383 236 400 q 478 333 372 365 q 636 287 575 303 q 731 271 697 271 q 788 294 768 271 q 808 369 808 317 l 831 369 q 796 204 831 271 q 690 138 761 138 z "},"^":{"ha":638,"x_min":56,"x_max":582,"o":"m 326 921 l 582 588 l 542 588 l 324 903 l 96 588 l 56 588 l 321 921 l 326 921 z "},"%":{"ha":1261,"x_min":56,"x_max":1206,"o":"m 326 374 q 193 406 256 374 q 93 499 131 439 q 56 635 56 558 q 93 776 56 717 q 192 865 131 835 q 326 896 254 896 q 464 865 400 896 q 566 776 528 835 q 604 636 604 717 q 566 500 604 560 q 464 407 528 440 q 326 374 400 374 m 363 0 l 338 0 l 907 888 l 932 888 l 363 0 m 331 397 q 389 424 361 397 q 434 505 417 451 q 451 633 451 558 q 434 767 451 711 q 389 850 417 822 q 331 878 361 878 q 271 850 299 878 q 226 767 243 822 q 208 633 208 711 q 226 505 208 558 q 271 424 243 451 q 331 397 299 397 m 928 -25 q 794 8 857 -25 q 694 100 732 40 q 657 236 657 160 q 694 377 657 318 q 794 467 732 436 q 928 497 856 497 q 1066 467 1003 497 q 1167 377 1129 436 q 1206 238 1206 318 q 1167 101 1206 161 q 1065 8 1129 42 q 928 -25 1001 -25 m 932 -1 q 990 26 963 -1 q 1035 106 1018 53 q 1053 235 1053 160 q 1035 368 1053 313 q 990 451 1018 424 q 932 479 963 479 q 872 451 900 479 q 827 368 844 424 q 810 235 810 313 q 827 106 810 160 q 872 26 844 53 q 932 -1 900 -1 z "},"‰":{"ha":1835,"x_min":56,"x_max":1779,"o":"m 326 374 q 193 406 256 374 q 93 499 131 439 q 56 635 56 558 q 93 776 56 717 q 192 865 131 835 q 326 896 254 896 q 464 865 400 896 q 566 776 528 835 q 604 636 604 717 q 566 500 604 560 q 464 407 528 440 q 326 374 400 374 m 363 0 l 338 0 l 907 888 l 932 888 l 363 0 m 331 397 q 389 424 361 397 q 434 505 417 451 q 451 633 451 558 q 434 767 451 711 q 389 850 417 822 q 331 878 361 878 q 271 850 299 878 q 226 767 243 822 q 208 633 208 711 q 226 505 208 558 q 271 424 243 451 q 331 397 299 397 m 928 -25 q 794 8 857 -25 q 694 100 732 40 q 657 236 657 160 q 694 377 657 318 q 794 467 732 436 q 928 497 856 497 q 1066 467 1003 497 q 1167 377 1129 436 q 1206 238 1206 318 q 1167 101 1206 161 q 1065 8 1129 42 q 928 -25 1001 -25 m 1501 -25 q 1368 8 1431 -25 q 1268 100 1306 40 q 1231 236 1231 160 q 1268 377 1231 318 q 1367 467 1306 436 q 1501 497 1429 497 q 1639 467 1575 497 q 1741 377 1703 436 q 1779 238 1779 318 q 1741 101 1779 161 q 1639 8 1703 42 q 1501 -25 1575 -25 m 932 -1 q 990 26 963 -1 q 1035 106 1018 53 q 1053 235 1053 160 q 1035 368 1053 313 q 990 451 1018 424 q 932 479 963 479 q 872 451 900 479 q 827 368 844 424 q 810 235 810 313 q 827 106 810 160 q 872 26 844 53 q 932 -1 900 -1 m 1504 -1 q 1564 26 1536 -1 q 1609 106 1592 53 q 1626 235 1626 160 q 1609 368 1626 313 q 1564 451 1592 424 q 1504 479 1536 479 q 1446 451 1474 479 q 1401 368 1418 424 q 1383 235 1383 313 q 1401 106 1383 160 q 1446 26 1418 53 q 1504 -1 1474 -1 z "},"◊":{"ha":1029,"x_min":56,"x_max":974,"o":"m 524 0 l 510 0 l 56 489 l 510 975 l 524 975 l 974 489 l 524 0 m 149 489 l 515 28 l 881 489 l 517 950 l 149 489 z "},"@":{"ha":1478,"x_min":56,"x_max":1422,"o":"m 735 -97 q 402 -39 557 -97 q 151 137 247 19 q 56 419 56 254 q 161 727 56 600 q 435 917 267 854 q 793 981 604 981 q 1117 922 974 981 q 1342 760 1261 864 q 1422 522 1422 656 q 1373 341 1422 424 q 1246 210 1324 258 q 1086 163 1168 163 q 976 203 1019 163 q 932 326 932 244 q 935 369 932 339 l 926 372 q 772 230 864 279 q 588 181 679 181 q 422 235 488 181 q 356 390 356 290 q 437 586 356 506 q 648 707 518 667 q 924 747 778 747 q 1179 713 1065 747 l 1100 447 q 1082 339 1082 385 q 1107 251 1082 281 q 1171 221 1132 221 q 1278 263 1226 221 q 1364 376 1331 306 q 1397 525 1397 447 q 1320 748 1397 650 q 1105 901 1243 846 q 790 956 967 956 q 447 894 610 956 q 183 713 285 833 q 82 421 82 592 q 175 150 82 261 q 418 -17 268 39 q 740 -72 568 -72 q 1083 -12 922 -72 q 1333 161 1243 49 l 1353 153 q 1091 -33 1258 32 q 735 -97 924 -97 m 656 236 q 776 269 714 236 q 887 365 838 303 q 960 511 936 428 l 1017 714 q 932 721 968 721 q 728 678 822 721 q 578 560 635 636 q 522 389 522 485 q 558 277 522 318 q 656 236 593 236 z "},"&":{"ha":1319,"x_min":56,"x_max":1258,"o":"m 344 -25 q 189 3 254 -25 q 90 80 124 32 q 56 185 56 128 q 103 316 56 251 q 246 431 150 381 q 481 501 342 481 q 407 653 407 578 q 474 775 407 721 q 658 860 540 829 q 922 890 775 890 q 1136 875 1033 890 l 1111 735 q 912 824 1004 794 q 749 853 819 853 q 615 819 663 853 q 568 729 568 785 q 596 639 568 689 q 679 536 624 589 l 869 358 q 1061 508 967 456 q 1258 561 1156 561 l 1258 403 q 1083 379 1160 403 q 935 299 1007 356 l 1253 0 l 1024 0 l 808 199 q 672 86 735 132 q 526 8 610 40 q 344 -25 443 -25 m 407 10 q 576 73 490 10 q 761 242 663 136 l 508 474 q 353 417 415 458 q 260 319 290 375 q 231 204 231 264 q 279 67 231 125 q 407 10 328 10 z "},"¶":{"ha":547,"x_min":56,"x_max":492,"o":"m 376 513 q 314 508 343 508 q 171 537 229 508 q 84 610 113 565 q 56 704 56 654 q 106 824 56 774 q 244 875 157 875 l 492 875 l 492 0 l 465 0 l 465 854 l 401 854 l 401 0 l 376 0 l 376 513 z "},"§":{"ha":850,"x_min":56,"x_max":794,"o":"m 407 -106 q 230 -88 317 -106 q 76 -37 143 -71 l 135 63 q 340 -26 219 8 q 557 -60 460 -60 q 676 -39 631 -60 q 722 22 722 -18 q 677 97 722 63 q 567 156 632 131 q 392 218 501 182 q 215 280 282 253 q 101 342 147 307 q 56 418 56 376 q 109 525 56 488 q 240 578 163 563 q 105 648 154 610 q 56 738 56 686 q 147 853 56 814 q 378 893 239 893 q 552 878 465 893 q 706 833 639 863 l 653 729 q 460 818 579 783 q 247 853 342 853 q 141 835 182 853 q 100 783 100 818 q 168 715 100 742 q 379 651 236 688 q 594 589 513 617 q 735 517 676 561 q 794 410 794 472 q 749 310 794 350 q 633 250 704 269 q 752 173 710 213 q 794 83 794 133 q 740 -18 794 25 q 598 -83 686 -61 q 407 -106 510 -106 m 614 258 q 736 354 736 290 q 665 431 736 399 q 450 507 594 464 q 263 569 333 543 q 165 542 203 564 q 126 486 126 519 q 191 419 126 450 q 394 340 256 388 q 614 258 551 288 z "},"©":{"ha":1260,"x_min":56,"x_max":1204,"o":"m 631 -35 q 350 19 482 -35 q 137 178 218 72 q 56 432 56 283 q 137 686 56 579 q 350 848 218 793 q 631 903 482 903 q 910 848 778 903 q 1123 686 1042 793 q 1204 432 1204 579 q 1123 178 1204 283 q 910 19 1042 72 q 631 -35 779 -35 m 631 -11 q 898 40 772 -11 q 1101 192 1024 92 q 1179 432 1179 292 q 1101 674 1179 572 q 898 827 1024 775 q 631 879 772 879 q 363 827 489 879 q 158 674 236 775 q 81 432 81 572 q 158 191 81 292 q 362 40 236 90 q 631 -11 488 -11 m 681 200 q 406 259 515 200 q 297 438 297 318 q 419 606 297 549 q 718 664 540 664 q 917 643 806 664 l 929 560 q 801 624 868 601 q 672 646 735 646 q 503 593 569 646 q 438 440 438 540 q 472 317 438 368 q 562 242 506 267 q 683 217 618 217 q 812 240 749 217 q 921 310 875 264 l 954 238 q 681 200 818 200 z "},"®":{"ha":815,"x_min":56,"x_max":760,"o":"m 408 471 q 236 503 317 471 q 106 599 156 536 q 56 751 56 663 q 106 904 56 840 q 236 1001 156 968 q 407 1033 317 1033 q 579 1001 499 1033 q 710 905 660 968 q 760 751 760 842 q 710 599 760 663 q 579 503 660 536 q 408 471 499 471 m 407 494 q 569 524 493 494 q 691 610 644 553 q 738 749 738 668 q 691 892 738 832 q 569 981 644 951 q 408 1011 494 1011 q 247 981 322 1011 q 124 893 171 951 q 78 751 78 835 q 124 611 78 669 q 246 524 171 553 q 407 494 321 494 m 242 596 l 242 907 l 471 907 q 544 888 518 907 q 571 836 571 868 q 544 788 571 806 q 479 771 518 771 q 369 811 419 771 q 408 775 382 796 q 461 733 433 754 q 544 662 514 694 q 574 596 574 629 l 500 596 q 446 715 488 661 q 388 772 422 743 q 340 821 357 801 q 313 868 322 840 l 311 868 l 311 596 l 242 596 m 449 792 q 488 806 471 792 q 504 840 504 821 q 484 883 504 867 q 428 900 464 900 l 311 900 q 334 847 313 872 q 388 807 356 822 q 449 792 419 792 z "},"™":{"ha":904,"x_min":56,"x_max":849,"o":"m 217 568 l 217 867 l 175 867 q 115 855 147 867 q 56 824 83 843 l 64 875 l 436 875 l 444 824 q 385 854 422 842 q 325 867 349 867 l 285 867 l 285 568 l 217 568 m 456 568 l 456 875 l 524 875 q 580 811 558 854 q 626 697 601 768 q 638 667 631 686 q 650 635 644 647 l 651 635 q 665 683 653 660 q 699 735 678 706 q 735 782 710 751 q 774 835 761 814 q 788 875 788 856 l 849 875 l 849 568 l 781 568 l 781 826 l 779 826 q 731 763 764 801 q 676 690 693 717 q 660 632 660 663 q 681 568 660 596 l 613 568 q 571 669 596 590 q 520 799 543 751 q 464 865 497 847 l 464 568 l 456 568 z "},"°":{"ha":569,"x_min":56,"x_max":514,"o":"m 283 583 q 123 625 190 583 q 56 740 56 667 q 124 855 56 814 q 285 896 192 896 q 446 855 378 896 q 514 740 514 814 q 445 625 514 667 q 283 583 376 583 m 285 599 q 433 636 371 599 q 496 740 496 674 q 433 844 496 807 q 285 881 371 881 q 135 844 199 881 q 72 740 72 807 q 135 636 72 674 q 285 599 199 599 z "},"|":{"ha":136,"x_min":56,"x_max":81,"o":"m 81 -56 l 56 -56 l 56 931 l 81 931 l 81 -56 z "},"¦":{"ha":136,"x_min":56,"x_max":81,"o":"m 81 592 l 56 592 l 56 931 l 81 931 l 81 592 m 81 -56 l 56 -56 l 56 389 l 81 389 l 81 -56 z "},"†":{"ha":511,"x_min":56,"x_max":456,"o":"m 247 138 q 239 360 247 282 q 215 510 231 439 l 210 538 l 222 571 q 240 615 233 593 q 247 669 246 636 q 187 662 217 668 q 129 649 157 656 q 56 632 90 639 l 56 722 q 131 704 100 714 q 188 691 158 697 q 247 683 217 685 q 240 745 246 715 q 226 803 233 775 q 210 875 215 847 l 300 875 q 282 800 292 831 q 269 742 275 772 q 261 683 263 713 q 319 688 293 683 q 381 704 346 693 q 456 722 444 719 l 456 632 q 382 650 411 640 q 318 665 343 660 q 261 669 293 669 q 269 617 263 638 q 286 572 275 596 q 300 538 293 558 l 290 479 q 269 337 278 413 q 261 138 261 261 l 247 138 z "},"‡":{"ha":511,"x_min":56,"x_max":456,"o":"m 247 144 q 238 323 247 251 q 210 489 228 394 l 222 522 q 240 566 233 544 q 247 621 246 588 q 187 613 217 619 q 129 600 157 607 q 56 583 90 590 l 56 656 q 151 642 111 646 q 247 635 190 638 l 247 711 q 151 704 190 708 q 56 690 111 700 l 56 764 q 131 746 100 756 q 188 733 158 739 q 247 725 217 726 q 240 767 246 746 q 232 793 233 788 q 210 875 215 847 l 300 875 q 276 790 292 832 q 269 764 275 785 q 261 725 263 743 q 319 730 293 725 q 381 746 346 735 q 456 764 444 761 l 456 690 q 352 707 390 703 q 261 711 314 711 l 261 635 q 352 639 314 635 q 456 656 390 643 l 456 583 q 382 601 411 592 q 318 616 343 611 q 261 621 293 621 q 269 568 263 589 q 286 524 275 547 q 300 489 293 510 l 289 419 q 269 287 276 350 q 261 144 261 224 l 247 144 z "},"̈":{"ha":0,"x_min":-450,"x_max":-56,"o":"m -364 682 q -424 703 -399 682 q -450 753 -450 724 q -424 803 -450 782 q -364 825 -397 825 q -300 804 -326 825 q -274 753 -274 783 q -299 702 -274 722 q -364 682 -325 682 m -142 682 q -206 702 -179 682 q -233 753 -233 722 q -206 804 -233 783 q -142 825 -179 825 q -82 803 -108 825 q -56 753 -56 782 q -81 703 -56 724 q -142 682 -107 682 z "},"̇":{"ha":0,"x_min":-303,"x_max":-56,"o":"m -179 688 q -267 715 -232 688 q -303 783 -303 743 q -267 851 -303 824 q -179 878 -232 878 q -91 851 -126 878 q -56 783 -56 824 q -91 715 -56 743 q -179 688 -126 688 z "},"̀":{"ha":0,"x_min":-553,"x_max":-56,"o":"m -56 651 q -338 695 -210 653 q -553 803 -467 738 l -446 903 q -343 786 -408 840 q -201 699 -278 732 q -56 663 -125 665 l -56 651 z "},"́":{"ha":0,"x_min":-554,"x_max":-56,"o":"m -554 663 q -408 699 -485 665 q -267 786 -332 732 q -164 903 -201 840 l -56 803 q -271 695 -142 738 q -554 651 -400 653 l -554 663 z "},"̋":{"ha":0,"x_min":-474,"x_max":-56,"o":"m -399 647 l -474 647 l -385 821 l -236 821 l -399 647 m -222 647 l -297 647 l -203 821 l -56 821 l -222 647 z "},"̂":{"ha":0,"x_min":-650,"x_max":-56,"o":"m -354 824 l -562 676 l -650 736 l -354 842 l -56 736 l -149 676 l -354 824 z "},"̌":{"ha":0,"x_min":-650,"x_max":-56,"o":"m -354 824 l -562 676 l -650 736 l -354 842 l -56 736 l -149 676 l -354 824 z "},"̆":{"ha":0,"x_min":-499,"x_max":-57,"o":"m -281 656 q -436 699 -374 656 q -499 824 -499 743 q -494 863 -499 842 l -483 863 q -422 785 -483 811 q -274 758 -361 758 q -128 785 -187 758 q -69 863 -69 811 l -58 863 q -57 833 -57 853 q -122 701 -57 747 q -281 656 -186 656 z "},"̊":{"ha":0,"x_min":-494,"x_max":-56,"o":"m -276 642 q -430 669 -365 642 q -494 744 -494 696 q -429 820 -494 793 q -275 847 -364 847 q -121 820 -186 847 q -56 744 -56 793 q -121 669 -56 696 q -276 642 -186 642 m -275 653 q -206 677 -235 653 q -176 744 -176 701 q -206 811 -176 788 q -275 835 -235 835 q -345 810 -315 835 q -375 743 -375 786 q -345 677 -375 701 q -275 653 -315 653 z "},"̃":{"ha":0,"x_min":-701,"x_max":-56,"o":"m -200 671 q -312 684 -253 671 q -468 724 -372 697 q -556 747 -514 738 q -618 757 -597 757 q -666 744 -647 757 q -685 690 -685 732 l -701 690 q -653 803 -701 761 q -529 844 -606 844 q -444 833 -494 844 q -321 803 -393 822 q -143 765 -187 765 q -71 844 -71 765 l -56 844 q -95 724 -56 776 q -200 671 -135 671 z "},"̄":{"ha":0,"x_min":-507,"x_max":-56,"o":"m -56 738 l -507 738 l -507 760 l -56 760 l -56 738 z "},"̒":{"ha":0,"x_min":-364,"x_max":-56,"o":"m -364 647 q -299 776 -356 725 q -173 851 -243 828 q -56 871 -103 874 l -56 849 q -144 793 -110 842 q -178 647 -178 744 l -364 647 z "},"̣":{"ha":0,"x_min":-278,"x_max":-56,"o":"m -167 -329 q -246 -297 -214 -329 q -278 -218 -278 -265 q -246 -139 -278 -171 q -167 -107 -214 -107 q -87 -139 -119 -107 q -56 -218 -56 -171 q -87 -297 -56 -265 q -167 -329 -119 -329 z "},"̦":{"ha":0,"x_min":-300,"x_max":-56,"o":"m -243 -351 l -300 -351 l -215 -100 l -56 -100 l -243 -351 z "},"̧":{"ha":0,"x_min":-465,"x_max":-56,"o":"m -304 -336 q -465 -312 -390 -336 l -465 -293 q -360 -307 -410 -307 q -240 -275 -283 -307 q -197 -199 -197 -243 q -230 -135 -197 -158 q -317 -111 -262 -111 q -368 -117 -344 -111 l -368 -87 l -315 0 l -293 0 l -314 -54 q -275 -53 -300 -53 q -115 -87 -175 -53 q -56 -175 -56 -122 q -86 -254 -56 -217 q -173 -314 -117 -292 q -304 -336 -229 -336 z "},"̨":{"ha":0,"x_min":-504,"x_max":-56,"o":"m -328 -281 q -456 -253 -408 -281 q -504 -176 -504 -225 q -457 -99 -504 -136 q -324 -35 -410 -61 q -132 -1 -239 -8 l -132 -24 q -261 -36 -208 -24 q -340 -69 -314 -49 q -367 -112 -367 -90 q -322 -168 -367 -144 q -210 -192 -278 -192 q -123 -178 -162 -192 q -65 -136 -83 -164 l -56 -136 q -158 -242 -78 -204 q -328 -281 -237 -281 z "},"̵":{"ha":0,"x_min":-442,"x_max":-56,"o":"m -56 444 l -442 444 l -442 467 l -56 467 l -56 444 z "},"̶":{"ha":0,"x_min":-885,"x_max":-56,"o":"m -56 439 l -885 439 l -885 461 l -56 461 l -56 439 z "},"̷":{"ha":0,"x_min":-399,"x_max":-56,"o":"m -56 557 l -399 419 l -399 442 l -56 581 l -56 557 z "},"̸":{"ha":0,"x_min":-860,"x_max":-56,"o":"m -836 -25 l -860 -25 l -79 875 l -56 875 l -836 -25 z "}}}
